STARTFONT 2.1
COMMENT
COMMENT Converted from OpenType font "notosans_regular.ttf" by "otf2bdf 3.0".
COMMENT
FONT -FreeType-Noto Sans-Medium-R-Normal--77-560-100-100-P-380-ISO10646-1
SIZE 56 100 100
FONTBOUNDINGBOX 266 136 -48 -31
STARTPROPERTIES 19
FOUNDRY "FreeType"
FAMILY_NAME "Noto Sans"
WEIGHT_NAME "Medium"
SLANT "R"
SETWIDTH_NAME "Normal"
ADD_STYLE_NAME ""
PIXEL_SIZE 77
POINT_SIZE 560
RESOLUTION_X 100
RESOLUTION_Y 100
SPACING "P"
AVERAGE_WIDTH 380
CHARSET_REGISTRY "ISO10646"
CHARSET_ENCODING "1"
FONT_ASCENT 83
FONT_DESCENT 22
COPYRIGHT "Copyright 2015-2021 Google LLC. All Rights Reserved."
_OTF_FONTFILE "notosans_regular.ttf"
_OTF_PSNAME "NotoSans-Regular"
ENDPROPERTIES
CHARS 3053
STARTCHAR 0000
ENCODING 0
SWIDTH 0 0
DWIDTH 0 0
BBX 0 0 0 0
BITMAP
ENDCHAR
STARTCHAR 000D
ENCODING 13
SWIDTH 257 0
DWIDTH 20 0
BBX 0 0 0 0
BITMAP
ENDCHAR
STARTCHAR 0020
ENCODING 32
SWIDTH 257 0
DWIDTH 20 0
BBX 0 0 0 0
BITMAP
ENDCHAR
STARTCHAR 0021
ENCODING 33
SWIDTH 257 0
DWIDTH 20 0
BBX 9 57 6 -1
BITMAP
FF80
FF80
FF80
FF00
FF00
7F00
7F00
7F00
7F00
7F00
7F00
7F00
7F00
7F00
7F00
7F00
7F00
7F00
7F00
7F00
7F00
7F00
7F00
7F00
7E00
3E00
3E00
3E00
3E00
3E00
3E00
3E00
3E00
3E00
3E00
3E00
3E00
3E00
3E00
3E00
0000
0000
0000
0000
0000
0000
0000
7E00
FF00
FF80
FF80
FF80
FF80
FF80
FF80
7F00
3E00
ENDCHAR
STARTCHAR 0022
ENCODING 34
SWIDTH 398 0
DWIDTH 31 0
BBX 22 21 5 35
BITMAP
FE03FC
FE03FC
FE03FC
FE01F8
FE01F8
FE01F8
7E01F8
7E01F8
7E01F8
7E01F8
7E01F8
7E01F8
7E01F8
7C01F8
7C01F8
7C01F8
7C00F0
7C00F0
7C00F0
3C00F0
3C00F0
ENDCHAR
STARTCHAR 0023
ENCODING 35
SWIDTH 642 0
DWIDTH 50 0
BBX 46 56 2 0
BITMAP
00007E003E00
00007E003E00
00007E003E00
00007C007E00
00007C007E00
0000FC007E00
0000FC007C00
0000FC007C00
0000F8007C00
0000F800FC00
0001F800FC00
0001F800F800
0001F800F800
0001F000F800
0001F001F800
0003F001F800
0003F001F000
1FFFFFFFFFFC
1FFFFFFFFFFC
1FFFFFFFFFFC
1FFFFFFFFFFC
1FFFFFFFFFFC
0007E003E000
0007C003E000
0007C007E000
0007C007E000
000FC007C000
000FC007C000
000F8007C000
000F800FC000
000F800FC000
001F800FC000
001F800F8000
001F000F8000
001F001F8000
FFFFFFFFFFF0
FFFFFFFFFFF0
FFFFFFFFFFF0
FFFFFFFFFFF0
FFFFFFFFFFF0
003E003F0000
007E003F0000
007E003E0000
007E003E0000
007C007E0000
007C007E0000
007C007E0000
00FC007C0000
00FC007C0000
00F800FC0000
00F800FC0000
00F800FC0000
01F800F80000
01F800F80000
01F801F80000
01F001F80000
ENDCHAR
STARTCHAR 0024
ENCODING 36
SWIDTH 565 0
DWIDTH 44 0
BBX 35 64 5 -5
BITMAP
0001F00000
0001F00000
0001F00000
0001F00000
0001F00000
0001F00000
0001F00000
003FFFE000
01FFFFFC00
07FFFFFF80
0FFFFFFF80
1FFFFFFF80
3FFFFFFF00
7FE1F07F00
7F81F00700
FF01F00000
FE01F00000
FE01F00000
FE01F00000
FE01F00000
FE01F00000
FE01F00000
FE01F00000
FF01F00000
7F81F00000
7FE1F00000
3FFDF00000
1FFFF00000
0FFFF00000
07FFFF0000
01FFFFC000
007FFFF000
001FFFFC00
0001FFFE00
0001FFFF80
0001F7FF80
0001F0FFC0
0001F03FC0
0001F01FE0
0001F00FE0
0001F00FE0
0001F00FE0
0001F00FE0
0001F00FE0
0001F00FE0
0001F01FE0
8001F01FC0
F001F07FC0
FF01F3FF80
FFFFFFFF00
FFFFFFFE00
FFFFFFFC00
FFFFFFF000
3FFFFFC000
01FFFC0000
0001F00000
0001F00000
0001F00000
0001F00000
0001F00000
0001F00000
0001F00000
0001F00000
0001F00000
ENDCHAR
STARTCHAR 0025
ENCODING 37
SWIDTH 822 0
DWIDTH 64 0
BBX 57 57 4 -1
BITMAP
01FF0000007E0000
07FF800000FC0000
0FFFC00000FC0000
1FFFE00001F80000
3FFFF00003F00000
3F03F80003F00000
7F01F80007E00000
7E00F80007E00000
7E00FC000FC00000
7C00FC000FC00000
FC007C001F800000
FC007C001F800000
FC007E003F000000
FC007E007F000000
FC007E007E000000
FC007E00FC000000
F8007E00FC000000
F8007E01F8000000
F8007E01F8000000
FC007E03F0000000
FC007E03F0000000
FC007E07E0000000
FC007C0FE07F8000
FC007C0FC1FFE000
7C00FC1F83FFF000
7C00FC1F87FFF800
7E00FC3F0FFFFC00
7E01F83F0FE0FC00
3F03F87E1FC07E00
3FCFF07E1F807E00
1FFFF0FC1F803F00
0FFFE1FC1F003F00
07FFC1F83F003F00
03FF03F03F001F00
000003F03F001F80
000007E03F001F80
000007E03F001F80
00000FC03F001F80
00000FC03E001F80
00001F803E001F80
00001F803E001F80
00003F003F001F80
00007E003F001F80
00007E003F001F80
0000FC003F001F00
0000FC003F001F00
0001F8003F003F00
0001F8001F003F00
0003F0001F803F00
0003F0001F807E00
0007E0000FC0FE00
000FC0000FE1FC00
000FC00007FFFC00
001F800003FFF800
001F800001FFF000
003F000000FFE000
00000000001F0000
ENDCHAR
STARTCHAR 0026
ENCODING 38
SWIDTH 720 0
DWIDTH 56 0
BBX 52 57 4 -1
BITMAP
0007FFC0000000
001FFFF0000000
003FFFF8000000
00FFFFFC000000
00FFFFFE000000
01FF87FF000000
03FE00FF000000
03F8007F800000
03F8003F800000
07F0003F800000
07F0003F800000
07F0003F800000
07F0003F800000
07F0003F800000
03F0003F800000
03F8007F800000
03F8007F000000
03FC00FF000000
01FE01FE000000
00FE03FC000000
00FF0FF8000000
007F9FF0000000
003FFFE0000000
001FFFC0000000
001FFF80000000
000FFE00000000
003FFC00000000
00FFFE00000000
01FFFF00003F80
03FFFF80003F80
07FE7FE0003F80
0FF83FF0003F00
1FF01FF8007F00
3FE00FFC007F00
3FC007FE00FE00
7F8003FF00FE00
7F0001FF80FE00
7F0000FFC1FC00
FF00007FE1FC00
FE00001FF3F800
FE00000FFFF800
FE000007FFF000
FE000003FFE000
FE000001FFE000
FF000000FFC000
FF000000FFC000
7F800001FFE000
7FC00007FFF000
7FE0000FFFF800
3FF0007FFFFC00
1FFE0FFFF3FE00
1FFFFFFFC1FF00
0FFFFFFF80FF80
03FFFFFE007FC0
01FFFFF8003FE0
007FFFE0001FF0
0007FC00000000
ENDCHAR
STARTCHAR 0027
ENCODING 39
SWIDTH 218 0
DWIDTH 17 0
BBX 7 21 5 35
BITMAP
FE
FE
FE
FE
FE
FE
7E
7E
7E
7E
7E
7E
7E
7C
7C
7C
7C
7C
7C
3C
3C
ENDCHAR
STARTCHAR 0028
ENCODING 40
SWIDTH 295 0
DWIDTH 23 0
BBX 18 68 3 -12
BITMAP
000FC0
001F80
003F80
007F00
007E00
00FE00
01FC00
01FC00
03F800
03F800
07F000
07F000
0FE000
0FE000
1FC000
1FC000
1FC000
1FC000
3F8000
3F8000
3F8000
7F0000
7F0000
7F0000
7F0000
7F0000
7F0000
FE0000
FE0000
FE0000
FE0000
FE0000
FE0000
FE0000
FE0000
FE0000
FE0000
FE0000
FE0000
FE0000
FE0000
FE0000
7F0000
7F0000
7F0000
7F0000
7F0000
7F0000
3F8000
3F8000
3F8000
3FC000
1FC000
1FC000
1FE000
0FE000
0FE000
07F000
07F000
03F800
03F800
01FC00
01FC00
00FE00
007E00
007F00
003F80
001F80
ENDCHAR
STARTCHAR 0029
ENCODING 41
SWIDTH 295 0
DWIDTH 23 0
BBX 18 68 2 -12
BITMAP
FE0000
7F0000
3F0000
3F8000
1FC000
0FC000
0FE000
07F000
07F000
03F800
03F800
01FC00
01FC00
01FC00
00FE00
00FE00
007E00
007F00
007F00
007F00
003F80
003F80
003F80
003F80
003F80
001FC0
001FC0
001FC0
001FC0
001FC0
001FC0
001FC0
001FC0
001FC0
001FC0
001FC0
001FC0
001FC0
001FC0
001FC0
001FC0
001FC0
001FC0
001FC0
003F80
003F80
003F80
003F80
003F80
007F00
007F00
007F00
00FF00
00FE00
00FE00
01FE00
01FC00
01FC00
03F800
03F800
07F000
07F000
0FE000
0FC000
1FC000
3F8000
3F0000
7E0000
ENDCHAR
STARTCHAR 002A
ENCODING 42
SWIDTH 540 0
DWIDTH 42 0
BBX 36 35 3 24
BITMAP
0003FC0000
0001FC0000
0001FC0000
0001FC0000
0001FC0000
0001F80000
0001F80000
0001F80000
0001F80000
0001F80000
0000F80000
7000F800F0
7F00F807F0
7FE0F87FF0
7FFEFBFFF0
7FFFFFFFF0
FFFFFFFFF0
FFFFFFFFF0
007FFFF000
0003FE0000
0007FE0000
000FFF0000
000FDF8000
001F9FC000
003F8FC000
007F0FE000
007F07F000
00FE07F800
01FE03F800
01FE03FC00
03FC01FE00
03FC01FE00
00F800F800
003800E000
0010000000
ENDCHAR
STARTCHAR 002B
ENCODING 43
SWIDTH 565 0
DWIDTH 44 0
BBX 36 37 4 9
BITMAP
0001F80000
0001F80000
0001F80000
0001F80000
0001F80000
0001F80000
0001F80000
0001F80000
0001F80000
0001F80000
0001F80000
0001F80000
0001F80000
0001F80000
0001F80000
0001F80000
FFFFFFFFF0
FFFFFFFFF0
FFFFFFFFF0
FFFFFFFFF0
FFFFFFFFF0
0001F80000
0001F80000
0001F80000
0001F80000
0001F80000
0001F80000
0001F80000
0001F80000
0001F80000
0001F80000
0001F80000
0001F80000
0001F80000
0001F80000
0001F80000
0001F80000
ENDCHAR
STARTCHAR 002C
ENCODING 44
SWIDTH 257 0
DWIDTH 20 0
BBX 12 19 3 -10
BITMAP
0FF0
0FF0
0FE0
0FE0
1FE0
1FE0
1FC0
1FC0
1FC0
3F80
3F80
3F00
3F00
7F00
7E00
7E00
7C00
7C00
F800
ENDCHAR
STARTCHAR 002D
ENCODING 45
SWIDTH 321 0
DWIDTH 25 0
BBX 19 6 3 18
BITMAP
FFFFE0
FFFFE0
FFFFE0
FFFFE0
FFFFE0
FFFFE0
ENDCHAR
STARTCHAR 002E
ENCODING 46
SWIDTH 257 0
DWIDTH 20 0
BBX 9 10 6 -1
BITMAP
7E00
FF00
FF80
FF80
FF80
FF80
FF80
FF80
7F00
3E00
ENDCHAR
STARTCHAR 002F
ENCODING 47
SWIDTH 360 0
DWIDTH 28 0
BBX 27 56 1 0
BITMAP
00000FE0
00000FE0
00000FC0
00001FC0
00001FC0
00001F80
00003F80
00003F80
00007F00
00007F00
00007E00
0000FE00
0000FE00
0000FC00
0001FC00
0001FC00
0003F800
0003F800
0003F000
0007F000
0007F000
0007E000
000FE000
000FE000
000FC000
001FC000
001F8000
003F8000
003F8000
003F0000
007F0000
007F0000
007E0000
00FE0000
00FC0000
01FC0000
01FC0000
01F80000
03F80000
03F80000
03F00000
07F00000
07F00000
0FE00000
0FE00000
0FC00000
1FC00000
1FC00000
1F800000
3F800000
3F800000
7F000000
7F000000
7E000000
FE000000
FE000000
ENDCHAR
STARTCHAR 0030
ENCODING 48
SWIDTH 565 0
DWIDTH 44 0
BBX 37 57 4 -1
BITMAP
000FFF0000
003FFFC000
00FFFFF000
01FFFFF800
03FFFFFC00
07FFDFFE00
0FF801FF00
0FF000FF00
1FE0007F80
1FC0003F80
3FC0001FC0
3F80001FC0
3F80000FE0
7F00000FE0
7F00000FE0
7F000007E0
7F000007F0
7E000007F0
FE000007F0
FE000007F0
FE000007F0
FE000007F0
FE000003F0
FE000003F8
FE000003F8
FE000003F8
FE000003F8
FE000003F8
FE000003F8
FE000003F8
FE000003F8
FE000003F8
FE000003F8
FE000003F0
FE000007F0
FE000007F0
FE000007F0
FE000007F0
7E000007F0
7F000007F0
7F000007F0
7F00000FE0
7F00000FE0
3F80000FE0
3F80001FE0
3F80001FC0
1FC0003FC0
1FE0003F80
0FF0007F80
0FF800FF00
07FE07FF00
03FFFFFE00
01FFFFFC00
00FFFFF800
007FFFE000
001FFF8000
0000FC0000
ENDCHAR
STARTCHAR 0031
ENCODING 49
SWIDTH 565 0
DWIDTH 44 0
BBX 21 56 7 0
BITMAP
0001F8
0003F8
000FF8
001FF8
003FF8
00FFF8
01FFF8
03FFF8
07FBF8
1FF3F8
3FE3F8
7FC3F8
FF83F8
7E03F8
3C03F8
1803F8
1003F8
0003F8
0003F8
0003F8
0003F8
0003F8
0003F8
0003F8
0003F8
0003F8
0003F8
0003F8
0003F8
0003F8
0003F8
0003F8
0003F8
0003F8
0003F8
0003F8
0003F8
0003F8
0003F8
0003F8
0003F8
0003F8
0003F8
0003F8
0003F8
0003F8
0003F8
0003F8
0003F8
0003F8
0003F8
0003F8
0003F8
0003F8
0003F8
0003F8
ENDCHAR
STARTCHAR 0032
ENCODING 50
SWIDTH 565 0
DWIDTH 44 0
BBX 36 56 4 0
BITMAP
001FFF0000
00FFFFC000
03FFFFF000
0FFFFFFC00
1FFFFFFE00
7FFFFFFE00
7FE003FF00
7F8000FF80
3E00007F80
1C00003F80
0000003FC0
0000001FC0
0000001FC0
0000001FC0
0000001FC0
0000001FC0
0000001FC0
0000001FC0
0000001FC0
0000001FC0
0000003F80
0000003F80
0000007F00
0000007F00
000000FE00
000001FE00
000001FC00
000003F800
000007F800
00000FF000
00001FE000
00003FC000
00007F8000
0000FF0000
0001FE0000
0003FE0000
0007F80000
000FF00000
001FE00000
003FC00000
007F800000
00FF000000
01FE000000
03FC000000
07F8000000
0FF0000000
1FE0000000
1FC0000000
3F80000000
7F00000000
FFFFFFFFF0
FFFFFFFFF0
FFFFFFFFF0
FFFFFFFFF0
FFFFFFFFF0
FFFFFFFFF0
ENDCHAR
STARTCHAR 0033
ENCODING 51
SWIDTH 565 0
DWIDTH 44 0
BBX 37 57 3 -1
BITMAP
001FFF8000
00FFFFF000
03FFFFFC00
0FFFFFFE00
3FFFFFFF00
7FFF9FFF80
3FE000FFC0
3F80007FC0
1E00003FC0
0800001FE0
0000000FE0
0000000FE0
0000000FE0
0000000FE0
0000000FE0
0000000FE0
0000000FE0
0000000FE0
0000001FE0
0000001FC0
0000003FC0
0000007F80
000001FF00
000007FE00
007FFFFC00
007FFFF000
007FFF8000
007FFFC000
007FFFFC00
007FFFFF00
00001FFF80
000001FFC0
0000003FE0
0000001FE0
0000000FF0
00000007F0
00000007F8
00000003F8
00000003F8
00000003F8
00000003F8
00000003F8
00000003F8
00000007F8
00000007F8
00000007F0
0000000FF0
8000001FF0
E000003FE0
FC0000FFC0
FFC007FFC0
FFFFFFFF80
FFFFFFFE00
FFFFFFFC00
3FFFFFF000
07FFFFC000
003FF00000
ENDCHAR
STARTCHAR 0034
ENCODING 52
SWIDTH 565 0
DWIDTH 44 0
BBX 41 56 2 0
BITMAP
0000003F8000
0000007F8000
000000FF8000
000001FF8000
000001FF8000
000003FF8000
000007FF8000
000007DF8000
00000FDF8000
00001F9F8000
00001FBF8000
00003F3F8000
00007F3F8000
0000FE3F8000
0000FC3F8000
0001FC3F8000
0003F83F8000
0003F03F8000
0007F03F8000
000FE03F8000
000FC03F8000
001F803F8000
003F803F8000
007F003F8000
007E003F8000
00FE003F8000
01FC003F8000
01F8003F8000
03F0003F8000
07F0003F8000
07E0003F8000
0FC0003F8000
1FC0003F8000
3F80003F8000
3F00003F8000
7F00003F8000
FE00003F8000
FFFFFFFFFF80
FFFFFFFFFF80
FFFFFFFFFF80
FFFFFFFFFF80
FFFFFFFFFF80
FFFFFFFFFF80
0000003F8000
0000003F8000
0000003F8000
0000003F8000
0000003F8000
0000003F8000
0000003F8000
0000003F8000
0000003F8000
0000003F8000
0000003F8000
0000003F8000
0000003F8000
ENDCHAR
STARTCHAR 0035
ENCODING 53
SWIDTH 565 0
DWIDTH 44 0
BBX 35 57 5 -1
BITMAP
1FFFFFFE00
1FFFFFFE00
1FFFFFFE00
1FFFFFFE00
1FFFFFFE00
1FFFFFFE00
1FFFFFFE00
1F80000000
1F80000000
1F80000000
1F80000000
3F80000000
3F80000000
3F80000000
3F80000000
3F00000000
3F00000000
3F00000000
3F00000000
3F00000000
3F00000000
3F00000000
3F3FFC0000
7FFFFF8000
7FFFFFF000
7FFFFFF800
7FFFFFFC00
3FFFFFFE00
0E0007FF00
000001FF80
0000007F80
0000003FC0
0000003FC0
0000001FC0
0000001FE0
0000000FE0
0000000FE0
0000000FE0
0000000FE0
0000000FE0
0000000FE0
0000000FE0
0000000FE0
0000001FC0
0000001FC0
0000001FC0
0000003F80
0000007F80
C00000FF00
F80003FF00
FF801FFE00
FFFFFFFC00
FFFFFFF800
FFFFFFE000
7FFFFFC000
0FFFFE0000
007FC00000
ENDCHAR
STARTCHAR 0036
ENCODING 54
SWIDTH 565 0
DWIDTH 44 0
BBX 37 57 4 -1
BITMAP
00003FFF80
0001FFFF80
0007FFFF80
001FFFFF80
003FFFFF80
007FFE0780
00FFC00000
01FF000000
03FE000000
07F8000000
07F0000000
0FF0000000
0FE0000000
1FC0000000
1FC0000000
1F80000000
3F80000000
3F80000000
3F00000000
3F00000000
7F00000000
7F003F0000
7F03FFF000
7F0FFFFC00
7E1FFFFE00
7E7FFFFF00
7E7FFFFF80
FEFC00FFC0
FFF0003FE0
FFE0001FE0
FFC0000FF0
FF800007F0
FF000007F0
FF000007F0
FF000003F8
FE000003F8
FE000003F8
7E000003F8
7E000003F8
7E000003F8
7F000003F8
7F000003F8
7F000003F0
3F800007F0
3F800007F0
1FC00007F0
1FC0000FE0
0FE0001FE0
0FF0003FC0
07F8007FC0
03FF01FF80
03FFFFFF00
01FFFFFE00
007FFFFC00
003FFFF800
000FFFE000
0000FE0000
ENDCHAR
STARTCHAR 0037
ENCODING 55
SWIDTH 565 0
DWIDTH 44 0
BBX 38 56 3 0
BITMAP
FFFFFFFFFC
FFFFFFFFFC
FFFFFFFFFC
FFFFFFFFFC
FFFFFFFFFC
FFFFFFFFFC
FFFFFFFFF8
00000003F8
00000003F0
00000007F0
00000007F0
0000000FE0
0000000FE0
0000001FC0
0000001FC0
0000003F80
0000003F80
0000007F00
0000007F00
000000FF00
000000FE00
000000FE00
000001FC00
000001FC00
000003F800
000003F800
000007F000
000007F000
00000FE000
00000FE000
00001FE000
00001FC000
00003FC000
00003F8000
00003F8000
00007F0000
00007F0000
0000FE0000
0000FE0000
0001FE0000
0001FC0000
0003FC0000
0003F80000
0007F80000
0007F00000
000FF00000
000FE00000
001FE00000
001FC00000
001FC00000
003FC00000
003F800000
007F800000
007F000000
00FF000000
00FE000000
ENDCHAR
STARTCHAR 0038
ENCODING 56
SWIDTH 565 0
DWIDTH 44 0
BBX 37 57 4 -1
BITMAP
000FFF8000
007FFFE000
01FFFFF800
03FFFFFE00
07FFFFFF00
0FFE07FF80
1FF000FF80
1FE0003FC0
3FC0001FC0
3F80001FC0
3F80000FE0
3F00000FE0
3F00000FE0
3F00000FE0
3F00000FE0
3F80000FE0
3F80000FC0
3F80001FC0
1FC0003FC0
1FE0003F80
0FF000FF00
07FC01FE00
07FE07FC00
03FFCFF800
00FFFFF000
007FFFC000
003FFF0000
003FFFC000
00FFFFF000
01FFFFF800
03FE1FFE00
0FF807FF00
1FF001FF80
1FE0007FC0
3FC0003FE0
7F80001FE0
7F00000FF0
FE000007F0
FE000007F0
FE000003F0
FE000003F8
FE000003F8
FE000003F8
FE000003F8
FE000003F0
FE000007F0
FF000007F0
7F00000FF0
7F80001FE0
3FC0003FC0
3FF800FFC0
1FFFFFFF80
0FFFFFFF00
07FFFFFE00
01FFFFF800
007FFFE000
0003FE0000
ENDCHAR
STARTCHAR 0039
ENCODING 57
SWIDTH 565 0
DWIDTH 44 0
BBX 36 57 4 -1
BITMAP
000FFE0000
007FFFC000
01FFFFE000
03FFFFF800
07FFFFFC00
0FFFBFFE00
1FF803FF00
1FE000FF00
3FC0007F80
3F80003F80
7F00001FC0
7F00001FC0
7E00000FE0
FE00000FE0
FE000007E0
FE000007F0
FE000007F0
FE000007F0
FE000007F0
FE000003F0
FE000007F0
FE000007F0
FE000007F0
FE000007F0
7F00000FF0
7F00001FF0
7F80003FF0
3FC0007FF0
3FE001FFF0
1FFC07FFF0
0FFFFFF7F0
07FFFFE7F0
03FFFF87F0
00FFFF07F0
003FF807F0
00000007E0
00000007E0
0000000FE0
0000000FE0
0000000FE0
0000001FC0
0000001FC0
0000001FC0
0000003F80
0000007F80
0000007F00
000000FF00
000001FE00
000007FC00
00001FF800
08007FF000
0FFFFFE000
0FFFFFC000
0FFFFF8000
0FFFFE0000
0FFFF00000
01FE000000
ENDCHAR
STARTCHAR 003A
ENCODING 58
SWIDTH 257 0
DWIDTH 20 0
BBX 9 44 6 -1
BITMAP
1C00
7F00
FF80
FF80
FF80
FF80
FF80
FF80
FF80
7F00
1C00
0000
0000
0000
0000
0000
0000
0000
0000
0000
0000
0000
0000
0000
0000
0000
0000
0000
0000
0000
0000
0000
0000
0000
7E00
FF00
FF80
FF80
FF80
FF80
FF80
FF80
7F00
3E00
ENDCHAR
STARTCHAR 003B
ENCODING 59
SWIDTH 257 0
DWIDTH 20 0
BBX 12 53 3 -10
BITMAP
0780
0FE0
1FF0
1FF0
3FF0
3FF0
3FF0
1FF0
1FE0
0FE0
0780
0000
0000
0000
0000
0000
0000
0000
0000
0000
0000
0000
0000
0000
0000
0000
0000
0000
0000
0000
0000
0000
0000
0000
1FE0
1FE0
1FE0
1FC0
1FC0
3FC0
3FC0
3F80
3F80
3F00
7F00
7F00
7E00
7E00
7E00
FC00
FC00
F800
F800
ENDCHAR
STARTCHAR 003C
ENCODING 60
SWIDTH 565 0
DWIDTH 44 0
BBX 37 38 4 9
BITMAP
0000000018
0000000078
00000001F8
00000007F8
0000001FF8
0000007FF8
000001FFE0
000007FF80
00001FFE00
00007FF800
0001FFE000
0007FF0000
001FFC0000
007FF00000
01FFC00000
07FF000000
1FFC000000
7FF0000000
FFC0000000
FE00000000
FF80000000
FFF0000000
7FFC000000
0FFF000000
03FFE00000
00FFF80000
003FFF0000
0007FFC000
0001FFF000
00007FFE00
00001FFF80
000003FFF0
000000FFF8
0000003FF8
00000007F8
00000001F8
0000000078
0000000018
ENDCHAR
STARTCHAR 003D
ENCODING 61
SWIDTH 565 0
DWIDTH 44 0
BBX 36 21 4 17
BITMAP
FFFFFFFFF0
FFFFFFFFF0
FFFFFFFFF0
FFFFFFFFF0
FFFFFFFFF0
FFFFFFFFF0
0000000000
0000000000
0000000000
0000000000
0000000000
0000000000
0000000000
0000000000
0000000000
0000000000
FFFFFFFFF0
FFFFFFFFF0
FFFFFFFFF0
FFFFFFFFF0
FFFFFFFFF0
ENDCHAR
STARTCHAR 003E
ENCODING 62
SWIDTH 565 0
DWIDTH 44 0
BBX 37 38 4 9
BITMAP
8000000000
E000000000
F800000000
FE00000000
FFC0000000
FFF0000000
7FFC000000
1FFF000000
03FFC00000
00FFF00000
003FFC0000
000FFF0000
0003FFC000
0000FFF000
00003FFC00
00000FFF00
000003FFC0
0000007FF0
0000001FF8
00000007F8
0000001FF8
0000007FF8
000003FFE0
00000FFF80
00003FFE00
0001FFF000
0007FFC000
003FFF0000
00FFF80000
03FFE00000
1FFF800000
7FFE000000
FFF0000000
FFC0000000
FF00000000
FC00000000
E000000000
8000000000
ENDCHAR
STARTCHAR 003F
ENCODING 63
SWIDTH 424 0
DWIDTH 33 0
BBX 31 57 1 -1
BITMAP
00FFF800
07FFFF00
3FFFFFC0
FFFFFFE0
FFFFFFF0
7FFFFFF8
7F800FF8
3C0003FC
200001FC
000001FC
000000FC
000000FE
000000FE
000000FE
000000FE
000000FE
000000FC
000001FC
000001FC
000003F8
000007F8
00000FF0
00001FF0
00003FE0
00007FC0
0000FF80
0001FE00
0003FC00
0007F800
000FF000
000FE000
001FC000
001F8000
003F8000
003F0000
003F0000
003F0000
003E0000
003E0000
003E0000
00000000
00000000
00000000
00000000
00000000
00000000
00000000
003F0000
007F8000
00FF8000
00FFC000
00FFC000
00FFC000
00FFC000
007F8000
007F8000
003E0000
ENDCHAR
STARTCHAR 0040
ENCODING 64
SWIDTH 887 0
DWIDTH 69 0
BBX 60 63 5 -7
BITMAP
0000000180000000
000001FFFF800000
00000FFFFFF00000
00003FFFFFFC0000
0000FFFFFFFF0000
0003FFFFFFFFC000
000FFF0001FFE000
001FF800003FF000
003FE000000FF800
007F80000003FC00
00FF00000001FE00
01FC000000007F00
03F8000000003F00
03F0000000003F80
07E0000000001F80
0FE0000000000FC0
0FC0003FFF000FC0
1F8001FFFFE007E0
1F8003FFFFE007E0
3F0007FFFFE003E0
3F001FFEFFE003F0
3E001FE007E003F0
7E003F8007E003F0
7E007F0007E001F0
7C007E0007E001F0
FC00FE0007E001F0
FC00FC0007E001F0
FC00FC0007E001F0
F801FC0007E001F0
F801FC0007E001F0
F801F80007E001F0
F801F80007E001F0
F801F80007E001F0
F801F80007E003F0
F801F8000FE003F0
F801F8000FE003F0
F801F8000FE003E0
F801FC000FE007E0
F800FC001FE007E0
FC00FC001FE00FC0
FC00FE003FE00FC0
FC007F007DF01F80
FC007FE3F9FCFF00
7C003FFFF8FFFF00
7E001FFFF0FFFE00
7E000FFFC07FF800
3F0003FF801FF000
3F00001000010000
3F80000000000000
1F80000000000000
1FC0000000000000
0FE0000000000000
07F0000000000000
07F8000000000000
03FE000000000000
01FF800000380000
00FFE00001F80000
003FFF803FF80000
001FFFFFFFF80000
0007FFFFFFF80000
0001FFFFFFE00000
00003FFFFF000000
000001FFE0000000
ENDCHAR
STARTCHAR 0041
ENCODING 65
SWIDTH 630 0
DWIDTH 49 0
BBX 49 56 0 0
BITMAP
000003F0000000
000007F0000000
000007F8000000
00000FF8000000
00000FFC000000
00000FFC000000
00001FFC000000
00001FFE000000
00003F7E000000
00003F7F000000
00003F3F000000
00007F3F000000
00007E3F800000
00007E1F800000
0000FE1FC00000
0000FC1FC00000
0001FC0FC00000
0001FC0FE00000
0001F80FE00000
0003F807E00000
0003F807F00000
0007F007F00000
0007F003F80000
0007E003F80000
000FE001F80000
000FE001FC0000
001FC001FC0000
001FC000FE0000
001FC000FE0000
003F8000FE0000
003F80007F0000
003F00007F0000
007F00003F8000
007FFFFFFF8000
00FFFFFFFF8000
00FFFFFFFFC000
00FFFFFFFFC000
01FFFFFFFFC000
01FFFFFFFFE000
03F800000FE000
03F800000FF000
03F8000007F000
07F0000007F000
07F0000003F800
0FF0000003F800
0FE0000003FC00
0FE0000001FC00
1FC0000001FC00
1FC0000001FE00
1FC0000000FE00
3F80000000FE00
3F800000007F00
7F000000007F00
7F000000007F80
7F000000003F80
FE000000003F80
ENDCHAR
STARTCHAR 0042
ENCODING 66
SWIDTH 642 0
DWIDTH 50 0
BBX 38 56 8 0
BITMAP
FFFF000000
FFFFFFC000
FFFFFFF800
FFFFFFFE00
FFFFFFFF80
FFFFFFFFC0
FE007FFFC0
FE0000FFE0
FE00003FE0
FE00001FF0
FE00000FF0
FE000007F0
FE000007F0
FE000007F0
FE000007F0
FE000007F0
FE000007F0
FE000007F0
FE000007F0
FE00000FE0
FE00000FE0
FE00001FC0
FE00003FC0
FE0001FF80
FFFFFFFE00
FFFFFFF800
FFFFFFC000
FFFFFFF800
FFFFFFFE00
FFFFFFFF80
FE0001FFE0
FE00003FF0
FE00000FF0
FE000007F8
FE000007F8
FE000003FC
FE000003FC
FE000001FC
FE000001FC
FE000001FC
FE000001FC
FE000001FC
FE000001FC
FE000003FC
FE000003FC
FE000007FC
FE000007F8
FE00000FF8
FE00003FF0
FE0001FFF0
FFFFFFFFE0
FFFFFFFFC0
FFFFFFFF00
FFFFFFFE00
FFFFFFF000
FFFFFF8000
ENDCHAR
STARTCHAR 0043
ENCODING 67
SWIDTH 630 0
DWIDTH 49 0
BBX 41 57 5 -1
BITMAP
00001FFFE000
0000FFFFFC00
0007FFFFFF80
000FFFFFFF80
003FFFFFFF80
007FFFFFFF80
00FFF800FF00
01FFC0001F00
03FF00000200
07FE00000000
0FFC00000000
0FF800000000
1FF000000000
1FE000000000
3FC000000000
3FC000000000
3F8000000000
7F8000000000
7F8000000000
7F0000000000
FF0000000000
FF0000000000
FF0000000000
FE0000000000
FE0000000000
FE0000000000
FE0000000000
FE0000000000
FE0000000000
FE0000000000
FE0000000000
FE0000000000
FE0000000000
FE0000000000
FF0000000000
FF0000000000
FF0000000000
7F0000000000
7F8000000000
7F8000000000
7F8000000000
3FC000000000
3FC000000000
1FE000000000
1FF000000000
0FF800000000
0FFC00000000
07FE00000000
03FF80000100
01FFE0000F00
01FFFF87FF00
007FFFFFFF00
003FFFFFFF00
001FFFFFFF00
0007FFFFFF00
0000FFFFF800
00000FFE0000
ENDCHAR
STARTCHAR 0044
ENCODING 68
SWIDTH 720 0
DWIDTH 56 0
BBX 44 56 8 0
BITMAP
FFFF80000000
FFFFFFC00000
FFFFFFF80000
FFFFFFFE0000
FFFFFFFF8000
FFFFFFFFC000
FE00FFFFF000
FE0000FFF800
FE00003FFC00
FE00000FFE00
FE000003FE00
FE000001FF00
FE000000FF80
FE0000007F80
FE0000007FC0
FE0000003FC0
FE0000001FC0
FE0000001FE0
FE0000001FE0
FE0000000FE0
FE0000000FE0
FE0000000FF0
FE0000000FF0
FE0000000FF0
FE0000000FF0
FE00000007F0
FE00000007F0
FE00000007F0
FE00000007F0
FE00000007F0
FE00000007F0
FE0000000FF0
FE0000000FF0
FE0000000FF0
FE0000000FF0
FE0000000FE0
FE0000000FE0
FE0000001FE0
FE0000001FE0
FE0000003FC0
FE0000003FC0
FE0000007FC0
FE0000007F80
FE000000FF80
FE000001FF00
FE000003FE00
FE00000FFE00
FE00001FFC00
FE0000FFF800
FE000FFFF000
FFFFFFFFC000
FFFFFFFF8000
FFFFFFFE0000
FFFFFFF80000
FFFFFFC00000
FFFFFC000000
ENDCHAR
STARTCHAR 0045
ENCODING 69
SWIDTH 552 0
DWIDTH 43 0
BBX 31 56 8 0
BITMAP
FFFFFFFE
FFFFFFFE
FFFFFFFE
FFFFFFFE
FFFFFFFE
FFFFFFFE
FFFFFFFE
FE000000
FE000000
FE000000
FE000000
FE000000
FE000000
FE000000
FE000000
FE000000
FE000000
FE000000
FE000000
FE000000
FE000000
FE000000
FE000000
FE000000
FFFFFFF8
FFFFFFF8
FFFFFFF8
FFFFFFF8
FFFFFFF8
FFFFFFF8
FE000000
FE000000
FE000000
FE000000
FE000000
FE000000
FE000000
FE000000
FE000000
FE000000
FE000000
FE000000
FE000000
FE000000
FE000000
FE000000
FE000000
FE000000
FE000000
FE000000
FFFFFFFE
FFFFFFFE
FFFFFFFE
FFFFFFFE
FFFFFFFE
FFFFFFFE
ENDCHAR
STARTCHAR 0046
ENCODING 70
SWIDTH 514 0
DWIDTH 40 0
BBX 31 56 8 0
BITMAP
FFFFFFFE
FFFFFFFE
FFFFFFFE
FFFFFFFE
FFFFFFFE
FFFFFFFE
FFFFFFFE
FE000000
FE000000
FE000000
FE000000
FE000000
FE000000
FE000000
FE000000
FE000000
FE000000
FE000000
FE000000
FE000000
FE000000
FE000000
FE000000
FE000000
FE000000
FE000000
FFFFFFF8
FFFFFFF8
FFFFFFF8
FFFFFFF8
FFFFFFF8
FFFFFFF8
FE000000
FE000000
FE000000
FE000000
FE000000
FE000000
FE000000
FE000000
FE000000
FE000000
FE000000
FE000000
FE000000
FE000000
FE000000
FE000000
FE000000
FE000000
FE000000
FE000000
FE000000
FE000000
FE000000
FE000000
ENDCHAR
STARTCHAR 0047
ENCODING 71
SWIDTH 720 0
DWIDTH 56 0
BBX 46 57 5 -1
BITMAP
00000FFFF800
00007FFFFF80
0003FFFFFFF0
0007FFFFFFF8
001FFFFFFFF0
003FFFFFFFF0
00FFFC001FF0
01FFE00003E0
03FF80000060
03FE00000000
07FC00000000
0FF800000000
1FF000000000
1FE000000000
3FE000000000
3FC000000000
3F8000000000
7F8000000000
7F8000000000
7F0000000000
FF0000000000
FF0000000000
FF0000000000
FE0000000000
FE0000000000
FE0000000000
FE0000000000
FE00001FFFFC
FE00001FFFFC
FE00001FFFFC
FE00001FFFFC
FE00001FFFFC
FE00001FFFFC
FE00000001FC
FF00000001FC
FF00000001FC
7F00000001FC
7F00000001FC
7F80000001FC
7F80000001FC
3F80000001FC
3FC0000001FC
3FE0000001FC
1FE0000001FC
1FF0000001FC
0FF8000001FC
07FC000001FC
07FE000001FC
03FF800001FC
01FFF00003FC
00FFFF01FFFC
007FFFFFFFFC
003FFFFFFFFC
000FFFFFFFFC
0003FFFFFFF0
00007FFFFF00
000003FF8000
ENDCHAR
STARTCHAR 0048
ENCODING 72
SWIDTH 732 0
DWIDTH 57 0
BBX 42 56 8 0
BITMAP
FE0000001FC0
FE0000001FC0
FE0000001FC0
FE0000001FC0
FE0000001FC0
FE0000001FC0
FE0000001FC0
FE0000001FC0
FE0000001FC0
FE0000001FC0
FE0000001FC0
FE0000001FC0
FE0000001FC0
FE0000001FC0
FE0000001FC0
FE0000001FC0
FE0000001FC0
FE0000001FC0
FE0000001FC0
FE0000001FC0
FE0000001FC0
FE0000001FC0
FE0000001FC0
FE0000001FC0
FFFFFFFFFFC0
FFFFFFFFFFC0
FFFFFFFFFFC0
FFFFFFFFFFC0
FFFFFFFFFFC0
FFFFFFFFFFC0
FE0000001FC0
FE0000001FC0
FE0000001FC0
FE0000001FC0
FE0000001FC0
FE0000001FC0
FE0000001FC0
FE0000001FC0
FE0000001FC0
FE0000001FC0
FE0000001FC0
FE0000001FC0
FE0000001FC0
FE0000001FC0
FE0000001FC0
FE0000001FC0
FE0000001FC0
FE0000001FC0
FE0000001FC0
FE0000001FC0
FE0000001FC0
FE0000001FC0
FE0000001FC0
FE0000001FC0
FE0000001FC0
FE0000001FC0
ENDCHAR
STARTCHAR 0049
ENCODING 73
SWIDTH 334 0
DWIDTH 26 0
BBX 20 56 3 0
BITMAP
FFFFF0
FFFFF0
FFFFF0
FFFFF0
FFFFF0
0FFF00
01FC00
01FC00
01FC00
01FC00
01FC00
01FC00
01FC00
01FC00
01FC00
01FC00
01FC00
01FC00
01FC00
01FC00
01FC00
01FC00
01FC00
01FC00
01FC00
01FC00
01FC00
01FC00
01FC00
01FC00
01FC00
01FC00
01FC00
01FC00
01FC00
01FC00
01FC00
01FC00
01FC00
01FC00
01FC00
01FC00
01FC00
01FC00
01FC00
01FC00
01FC00
01FC00
01FC00
01FC00
01FC00
3FFFC0
FFFFF0
FFFFF0
FFFFF0
FFFFF0
ENDCHAR
STARTCHAR 004A
ENCODING 74
SWIDTH 270 0
DWIDTH 21 0
BBX 20 71 -6 -15
BITMAP
0007F0
0007F0
0007F0
0007F0
0007F0
0007F0
0007F0
0007F0
0007F0
0007F0
0007F0
0007F0
0007F0
0007F0
0007F0
0007F0
0007F0
0007F0
0007F0
0007F0
0007F0
0007F0
0007F0
0007F0
0007F0
0007F0
0007F0
0007F0
0007F0
0007F0
0007F0
0007F0
0007F0
0007F0
0007F0
0007F0
0007F0
0007F0
0007F0
0007F0
0007F0
0007F0
0007F0
0007F0
0007F0
0007F0
0007F0
0007F0
0007F0
0007F0
0007F0
0007F0
0007F0
0007F0
0007F0
0007F0
0007F0
0007F0
0007F0
0007F0
000FF0
000FE0
001FE0
003FE0
F1FFC0
FFFF80
FFFF80
FFFF00
FFFC00
FFF000
3F8000
ENDCHAR
STARTCHAR 004B
ENCODING 75
SWIDTH 617 0
DWIDTH 48 0
BBX 40 56 8 0
BITMAP
FE000001FE
FE000003FC
FE000007F8
FE00000FF8
FE00000FF0
FE00001FE0
FE00003FC0
FE00007F80
FE0000FF00
FE0001FE00
FE0003FC00
FE0007F800
FE000FF000
FE001FE000
FE001FE000
FE003FC000
FE007F8000
FE00FF0000
FE01FE0000
FE03FC0000
FE07F80000
FE0FF00000
FE1FE00000
FE3FC00000
FE3F800000
FE7FC00000
FEFFE00000
FFFFE00000
FFFFF00000
FFFFF80000
FFE7FC0000
FFC3FC0000
FF83FE0000
FF01FF0000
FE00FF0000
FE007F8000
FE007FC000
FE003FE000
FE001FE000
FE000FF000
FE000FF800
FE0007FC00
FE0003FC00
FE0001FE00
FE0001FF00
FE0000FF00
FE00007F80
FE00003FC0
FE00003FE0
FE00001FE0
FE00000FF0
FE000007F8
FE000007FC
FE000003FC
FE000001FE
FE000000FF
ENDCHAR
STARTCHAR 004C
ENCODING 76
SWIDTH 514 0
DWIDTH 40 0
BBX 31 56 8 0
BITMAP
FE000000
FE000000
FE000000
FE000000
FE000000
FE000000
FE000000
FE000000
FE000000
FE000000
FE000000
FE000000
FE000000
FE000000
FE000000
FE000000
FE000000
FE000000
FE000000
FE000000
FE000000
FE000000
FE000000
FE000000
FE000000
FE000000
FE000000
FE000000
FE000000
FE000000
FE000000
FE000000
FE000000
FE000000
FE000000
FE000000
FE000000
FE000000
FE000000
FE000000
FE000000
FE000000
FE000000
FE000000
FE000000
FE000000
FE000000
FE000000
FE000000
FE000000
FFFFFFFE
FFFFFFFE
FFFFFFFE
FFFFFFFE
FFFFFFFE
FFFFFFFE
ENDCHAR
STARTCHAR 004D
ENCODING 77
SWIDTH 900 0
DWIDTH 70 0
BBX 55 56 8 0
BITMAP
FFC000000007FE
FFC00000000FFE
FFE00000000FFE
FFE00000000FFE
FFE00000001FFE
FFF00000001FFE
FFF00000003FFE
FBF80000003F7E
FFF80000003F7E
FDF80000007FFE
FDFC0000007EFE
FDFC000000FEFE
FCFC000000FCFE
FCFE000000FCFE
FCFE000001FCFE
FC7F000001F8FE
FC7F000001F8FE
FC3F000003F0FE
FC3F800003F0FE
FC3F800007F0FE
FC1F800007E0FE
FC1FC00007E0FE
FC1FC0000FE0FE
FC0FE0000FC0FE
FC0FE0000FC0FE
FC07E0001F80FE
FC07F0001F80FE
FC07F0003F80FE
FC03F0003F00FE
FC03F8003F00FE
FC03F8007F00FE
FC01FC007E00FE
FC01FC00FE00FE
FC00FC00FC00FE
FC00FE00FC00FE
FC00FE01FC00FE
FC007E01F800FE
FC007F01F800FE
FC007F03F000FE
FC003F83F000FE
FC003F87F000FE
FC001F87E000FE
FC001FC7E000FE
FC001FCFE000FE
FC000FCFC000FE
FC000FFFC000FE
FC000FFF8000FE
FC0007FF8000FE
FC0007FF8000FE
FC0003FF0000FE
FC0003FF0000FE
FC0003FF0000FE
FC0001FE0000FE
FC0001FE0000FE
FC0001FC0000FE
FC0000FC0000FE
ENDCHAR
STARTCHAR 004E
ENCODING 78
SWIDTH 758 0
DWIDTH 59 0
BBX 44 56 8 0
BITMAP
FF00000007F0
FF00000007F0
FF80000007F0
FFC0000007F0
FFC0000007F0
FFE0000007F0
FFF0000007F0
FFF0000007F0
FFF8000007F0
FFF8000007F0
FBFC000007F0
F9FE000007F0
FDFE000007F0
FCFF000007F0
FC7F800007F0
FC7F800007F0
FC3FC00007F0
FC1FE00007F0
FC1FE00007F0
FC0FF00007F0
FC07F80007F0
FC07F80007F0
FC03FC0007F0
FC03FC0007F0
FC01FE0007F0
FC00FF0007F0
FC00FF0007F0
FC007F8007F0
FC003FC007F0
FC003FC007F0
FC001FE007F0
FC000FF007F0
FC000FF007F0
FC0007F807F0
FC0003FC07F0
FC0003FC07F0
FC0001FE07F0
FC0001FF07F0
FC0000FF07F0
FC00007F87F0
FC00007F87F0
FC00003FC7F0
FC00001FE7F0
FC00001FE7F0
FC00000FF7F0
FC000007FBF0
FC000007FFF0
FC000003FFF0
FC000001FFF0
FC000001FFF0
FC000000FFF0
FC000000FFF0
FC0000007FF0
FC0000003FF0
FC0000003FF0
FC0000001FF0
ENDCHAR
STARTCHAR 004F
ENCODING 79
SWIDTH 771 0
DWIDTH 60 0
BBX 51 57 5 -1
BITMAP
00003FFF800000
0003FFFFF00000
000FFFFFFC0000
001FFFFFFF0000
007FFFFFFF8000
00FFFFFFFFE000
01FFE001FFF000
03FF80003FF800
07FE00000FF800
07FC000007FC00
0FF8000003FE00
1FF0000001FE00
1FE0000000FF00
3FC0000000FF00
3FC00000007F80
3F800000007F80
7F800000003F80
7F800000003FC0
7F000000003FC0
7F000000001FC0
FF000000001FC0
FF000000001FE0
FE000000001FE0
FE000000001FE0
FE000000001FE0
FE000000000FE0
FE000000000FE0
FE000000000FE0
FE000000000FE0
FE000000000FE0
FE000000000FE0
FE000000001FE0
FE000000001FE0
FE000000001FE0
FF000000001FE0
FF000000001FC0
FF000000001FC0
7F000000001FC0
7F800000003FC0
7F800000003F80
3F800000003F80
3FC00000007F80
3FC00000007F00
1FE0000000FF00
1FE0000001FE00
0FF0000001FE00
0FF8000003FC00
07FC000007FC00
03FF00001FF800
01FFC0007FF000
00FFFE0FFFE000
007FFFFFFFC000
003FFFFFFF8000
000FFFFFFE0000
0007FFFFF80000
0000FFFFC00000
000007FC000000
ENDCHAR
STARTCHAR 0050
ENCODING 80
SWIDTH 604 0
DWIDTH 47 0
BBX 35 56 8 0
BITMAP
FFFF000000
FFFFFF0000
FFFFFFC000
FFFFFFF000
FFFFFFFC00
FFFFFFFE00
FE01FFFF00
FE0007FF80
FE0000FF80
FE00007FC0
FE00003FC0
FE00001FC0
FE00001FE0
FE00001FE0
FE00000FE0
FE00000FE0
FE00000FE0
FE00000FE0
FE00000FE0
FE00000FE0
FE00001FE0
FE00001FE0
FE00001FC0
FE00003FC0
FE00007F80
FE0000FF80
FE0001FF00
FE000FFF00
FFFFFFFE00
FFFFFFFC00
FFFFFFF000
FFFFFFE000
FFFFFF8000
FFFFF80000
FE00000000
FE00000000
FE00000000
FE00000000
FE00000000
FE00000000
FE00000000
FE00000000
FE00000000
FE00000000
FE00000000
FE00000000
FE00000000
FE00000000
FE00000000
FE00000000
FE00000000
FE00000000
FE00000000
FE00000000
FE00000000
FE00000000
ENDCHAR
STARTCHAR 0051
ENCODING 81
SWIDTH 771 0
DWIDTH 60 0
BBX 51 69 5 -13
BITMAP
00003FFF800000
0003FFFFF00000
000FFFFFFC0000
001FFFFFFF0000
007FFFFFFF8000
00FFFFFFFFE000
01FFE001FFF000
03FF80003FF800
07FE00000FF800
07FC000007FC00
0FF8000003FE00
1FF0000001FE00
1FE0000000FF00
3FC0000000FF00
3FC00000007F80
3F800000007F80
7F800000003F80
7F800000003FC0
7F000000003FC0
7F000000001FC0
FF000000001FC0
FF000000001FE0
FE000000001FE0
FE000000001FE0
FE000000001FE0
FE000000000FE0
FE000000000FE0
FE000000000FE0
FE000000000FE0
FE000000000FE0
FE000000000FE0
FE000000001FE0
FE000000001FE0
FE000000001FE0
FF000000001FE0
FF000000001FC0
FF000000001FC0
7F000000001FC0
7F800000003FC0
7F800000003F80
3F800000003F80
3FC00000007F80
3FC00000007F00
1FE0000000FF00
1FE0000001FE00
0FF0000001FE00
0FF8000003FC00
07FC000007FC00
03FF00001FF800
01FFC0007FF000
00FFFE0FFFE000
007FFFFFFFC000
003FFFFFFF8000
000FFFFFFE0000
0007FFFFF80000
0000FFFFE00000
000007FFF00000
0000000FF80000
00000007FC0000
00000003FE0000
00000001FF0000
00000001FF8000
00000000FFC000
000000007FE000
000000003FF000
000000001FF800
000000000FFC00
0000000007FC00
0000000007FF00
ENDCHAR
STARTCHAR 0052
ENCODING 82
SWIDTH 617 0
DWIDTH 48 0
BBX 39 56 8 0
BITMAP
FFFF800000
FFFFFF0000
FFFFFFE000
FFFFFFF800
FFFFFFFC00
FFFFFFFE00
FFFFFFFF00
FE0003FF80
FE0000FF80
FE00007FC0
FE00003FC0
FE00001FE0
FE00001FE0
FE00000FE0
FE00000FE0
FE00000FE0
FE00000FE0
FE00000FE0
FE00000FE0
FE00000FE0
FE00001FE0
FE00001FC0
FE00003FC0
FE00003FC0
FE00007F80
FE0001FF00
FE0007FE00
FFFFFFFC00
FFFFFFF800
FFFFFFF000
FFFFFFC000
FFFFFF0000
FFFFFF8000
FE003F8000
FE003FC000
FE001FE000
FE000FE000
FE000FF000
FE0007F000
FE0007F800
FE0003FC00
FE0001FC00
FE0001FE00
FE0000FF00
FE0000FF00
FE00007F80
FE00007F80
FE00003FC0
FE00001FE0
FE00001FE0
FE00000FF0
FE00000FF0
FE000007F8
FE000003FC
FE000003FC
FE000001FE
ENDCHAR
STARTCHAR 0053
ENCODING 83
SWIDTH 540 0
DWIDTH 42 0
BBX 35 57 4 -1
BITMAP
000FFFE000
007FFFFC00
01FFFFFF80
03FFFFFF80
0FFFFFFF80
1FFFFFFF80
1FF800FF00
3FE0000F00
3FC0000100
7F80000000
7F00000000
7F00000000
7F00000000
7F00000000
7F00000000
7F00000000
7F00000000
7F00000000
7F80000000
3FC0000000
3FE0000000
3FF0000000
1FFC000000
0FFF000000
07FFC00000
03FFF80000
01FFFE0000
007FFF8000
001FFFE000
0007FFF800
0001FFFC00
00003FFE00
00000FFF00
000003FF80
000000FFC0
0000007FC0
0000003FC0
0000001FE0
0000001FE0
0000000FE0
0000000FE0
0000000FE0
0000000FE0
0000000FE0
0000000FE0
0000001FC0
0000001FC0
0000003FC0
E000007F80
FC0001FF80
FFF01FFF00
FFFFFFFE00
FFFFFFFC00
FFFFFFF000
7FFFFFE000
0FFFFF0000
003FF00000
ENDCHAR
STARTCHAR 0054
ENCODING 84
SWIDTH 552 0
DWIDTH 43 0
BBX 41 56 1 0
BITMAP
FFFFFFFFFF80
FFFFFFFFFF80
FFFFFFFFFF80
FFFFFFFFFF80
FFFFFFFFFF80
FFFFFFFFFF80
FFFFFFFFFF80
00007F000000
00007F000000
00007F000000
00007F000000
00007F000000
00007F000000
00007F000000
00007F000000
00007F000000
00007F000000
00007F000000
00007F000000
00007F000000
00007F000000
00007F000000
00007F000000
00007F000000
00007F000000
00007F000000
00007F000000
00007F000000
00007F000000
00007F000000
00007F000000
00007F000000
00007F000000
00007F000000
00007F000000
00007F000000
00007F000000
00007F000000
00007F000000
00007F000000
00007F000000
00007F000000
00007F000000
00007F000000
00007F000000
00007F000000
00007F000000
00007F000000
00007F000000
00007F000000
00007F000000
00007F000000
00007F000000
00007F000000
00007F000000
00007F000000
ENDCHAR
STARTCHAR 0055
ENCODING 85
SWIDTH 720 0
DWIDTH 56 0
BBX 43 57 7 -1
BITMAP
FE0000000FE0
FE0000000FE0
FE0000000FE0
FE0000000FE0
FE0000000FE0
FE0000000FE0
FE0000000FE0
FE0000000FE0
FE0000000FE0
FE0000000FE0
FE0000000FE0
FE0000000FE0
FE0000000FE0
FE0000000FE0
FE0000000FE0
FE0000000FE0
FE0000000FE0
FE0000000FE0
FE0000000FE0
FE0000000FE0
FE0000000FE0
FE0000000FE0
FE0000000FE0
FE0000000FE0
FE0000000FE0
FE0000000FE0
FE0000000FE0
FE0000000FE0
FE0000000FE0
FE0000000FE0
FE0000000FE0
FE0000000FE0
FE0000000FE0
FE0000000FE0
FE0000000FE0
FE0000000FE0
FE0000000FE0
FE0000000FE0
FE0000000FE0
FE0000000FE0
FE0000001FC0
FF0000001FC0
7F0000001FC0
7F0000003FC0
7F8000003F80
3F8000007F80
3FC000007F80
1FE00000FF00
1FF00003FE00
0FFC0007FE00
07FFE0FFFC00
03FFFFFFF800
01FFFFFFF000
00FFFFFFC000
003FFFFF8000
000FFFFC0000
00007FC00000
ENDCHAR
STARTCHAR 0056
ENCODING 86
SWIDTH 591 0
DWIDTH 46 0
BBX 47 56 0 0
BITMAP
FE00000001FE
FF00000001FC
7F00000001FC
7F00000003FC
7F80000003F8
3F80000003F8
3F80000007F8
1FC0000007F0
1FC000000FF0
1FC000000FE0
0FE000000FE0
0FE000001FE0
0FF000001FC0
07F000001FC0
07F000003FC0
07F800003F80
03F800003F80
03F800007F80
03FC00007F00
01FC00007F00
01FC0000FF00
00FE0000FE00
00FE0000FE00
00FE0001FC00
007F0001FC00
007F0003FC00
007F0003F800
003F8003F800
003F8007F800
003FC007F000
001FC007F000
001FC00FF000
001FE00FE000
000FE00FE000
000FE01FE000
0007F01FC000
0007F01FC000
0007F03F8000
0003F83F8000
0003F83F8000
0003F87F0000
0001FC7F0000
0001FC7F0000
0001FCFE0000
0000FCFE0000
0000FEFE0000
0000FEFC0000
00007FFC0000
00007FFC0000
00003FF80000
00003FF80000
00003FF00000
00001FF00000
00001FF00000
00001FE00000
00000FE00000
ENDCHAR
STARTCHAR 0057
ENCODING 87
SWIDTH 925 0
DWIDTH 72 0
BBX 70 56 1 0
BITMAP
FE000001FE000001FC
FF000001FE000001FC
FF000001FE000003FC
7F000003FE000003FC
7F000003FF000003F8
7F800003FF000003F8
3F800003FF000007F8
3F800007FF800007F0
3F800007FF800007F0
3FC00007FF800007F0
1FC0000FFFC0000FF0
1FC0000FDFC0000FE0
1FC0000FCFC0000FE0
1FE0001FCFC0000FE0
0FE0001FCFE0001FE0
0FE0001F87E0001FC0
0FE0001F87E0001FC0
0FF0003F87F0001FC0
07F0003F87F0003FC0
07F0003F03F0003F80
07F0007F03F8003F80
03F8007F03F8003F80
03F8007E01F8007F00
03F8007E01F8007F00
03F800FE01FC007F00
01FC00FE01FC007F00
01FC00FC00FC00FE00
01FC01FC00FE00FE00
01FC01FC00FE00FE00
00FE01F8007E00FE00
00FE03F8007F01FC00
00FE03F8007F01FC00
00FE03F8007F01FC00
007F03F0003F01FC00
007F07F0003F83F800
007F07F0003F83F800
007F07E0001F83F800
003F8FE0001FC3F000
003F8FE0001FC7F000
003F8FE0000FC7F000
001F8FC0000FC7F000
001FCFC0000FE7E000
001FDFC0000FE7E000
001FDF800007EFE000
000FDF800007EFE000
000FDF800007EFC000
000FDF000003FFC000
000FFF000003FFC000
0007FF000003FFC000
0007FF000001FF8000
0007FE000001FF8000
0007FE000001FF8000
0003FE000001FF0000
0003FC000000FF0000
0003FC000000FF0000
0001FC000000FF0000
ENDCHAR
STARTCHAR 0058
ENCODING 88
SWIDTH 578 0
DWIDTH 45 0
BBX 44 56 1 0
BITMAP
FF0000000FE0
7F8000001FC0
3FC000003FC0
3FC000003F80
1FE000007F00
0FE00000FF00
0FF00000FE00
07F80001FC00
03F80003FC00
03FC0003F800
01FE0007F000
00FE0007F000
00FF000FE000
007F001FC000
003F801FC000
003FC03F8000
001FC07F8000
000FE07F0000
000FF0FE0000
0007F0FE0000
0007F9FC0000
0003FBF80000
0001FFF80000
0001FFF00000
0000FFE00000
00007FE00000
00007FC00000
00007FC00000
00007FE00000
0000FFE00000
0000FFF00000
0001FFF80000
0003FBF80000
0003F9FC0000
0007F1FE0000
000FE0FE0000
000FE0FF0000
001FC07F8000
003FC03F8000
003F803FC000
007F001FC000
007F000FE000
00FE000FF000
01FC0007F000
01FC0007F800
03F80003FC00
07F80001FC00
07F00001FE00
0FE00000FF00
1FE00000FF00
1FC000007F80
3FC000003F80
3F8000003FC0
7F0000001FE0
FF0000001FE0
FE0000000FF0
ENDCHAR
STARTCHAR 0059
ENCODING 89
SWIDTH 565 0
DWIDTH 44 0
BBX 44 56 0 0
BITMAP
FF0000000FF0
7F0000000FE0
7F8000001FE0
3F8000001FC0
3FC000003FC0
1FC000003F80
1FE000007F80
0FE000007F00
0FF00000FF00
07F00000FE00
07F80001FE00
03F80001FC00
03FC0003F800
01FE0003F800
00FE0007F000
00FF0007F000
007F000FE000
007F801FE000
003F801FC000
003FC03FC000
001FC03F8000
001FE07F8000
000FE07F0000
000FF0FF0000
0007F0FE0000
0003F9FC0000
0003F9FC0000
0001FFF80000
0001FFF80000
0000FFF00000
0000FFF00000
00007FE00000
00007FE00000
00003FC00000
00003FC00000
00001FC00000
00001FC00000
00001FC00000
00001FC00000
00001FC00000
00001FC00000
00001FC00000
00001FC00000
00001FC00000
00001FC00000
00001FC00000
00001FC00000
00001FC00000
00001FC00000
00001FC00000
00001FC00000
00001FC00000
00001FC00000
00001FC00000
00001FC00000
00001FC00000
ENDCHAR
STARTCHAR 005A
ENCODING 90
SWIDTH 565 0
DWIDTH 44 0
BBX 38 56 3 0
BITMAP
7FFFFFFFFC
7FFFFFFFFC
7FFFFFFFFC
7FFFFFFFFC
7FFFFFFFFC
7FFFFFFFFC
7FFFFFFFF8
00000007F8
0000000FF0
0000001FE0
0000001FE0
0000003FC0
0000007F80
0000007F80
000000FF00
000001FE00
000001FE00
000003FC00
000007F800
000007F800
00000FF000
00001FE000
00001FE000
00003FC000
00007F8000
00007F8000
0000FF0000
0001FE0000
0001FE0000
0003FC0000
0007F80000
0007F80000
000FF00000
001FE00000
001FE00000
003FC00000
007F800000
007F800000
00FF000000
01FE000000
01FE000000
03FC000000
07F8000000
07F8000000
0FF0000000
1FE0000000
1FE0000000
3FC0000000
7F80000000
7F80000000
FFFFFFFFFC
FFFFFFFFFC
FFFFFFFFFC
FFFFFFFFFC
FFFFFFFFFC
FFFFFFFFFC
ENDCHAR
STARTCHAR 005B
ENCODING 91
SWIDTH 321 0
DWIDTH 25 0
BBX 18 68 6 -12
BITMAP
FFFFC0
FFFFC0
FFFFC0
FFFFC0
FFFFC0
FFFFC0
FE0000
FE0000
FE0000
FE0000
FE0000
FE0000
FE0000
FE0000
FE0000
FE0000
FE0000
FE0000
FE0000
FE0000
FE0000
FE0000
FE0000
FE0000
FE0000
FE0000
FE0000
FE0000
FE0000
FE0000
FE0000
FE0000
FE0000
FE0000
FE0000
FE0000
FE0000
FE0000
FE0000
FE0000
FE0000
FE0000
FE0000
FE0000
FE0000
FE0000
FE0000
FE0000
FE0000
FE0000
FE0000
FE0000
FE0000
FE0000
FE0000
FE0000
FE0000
FE0000
FE0000
FE0000
FE0000
FE0000
FE0000
FFFFC0
FFFFC0
FFFFC0
FFFFC0
FFFFC0
ENDCHAR
STARTCHAR 005C
ENCODING 92
SWIDTH 360 0
DWIDTH 28 0
BBX 27 56 1 0
BITMAP
FC000000
FE000000
7E000000
7F000000
7F000000
3F000000
3F800000
3F800000
1F800000
1FC00000
0FC00000
0FE00000
0FE00000
07E00000
07F00000
07F00000
03F00000
03F80000
03F80000
01FC0000
01FC0000
00FC0000
00FE0000
00FE0000
007E0000
007F0000
007F0000
003F8000
003F8000
001F8000
001FC000
001FC000
000FC000
000FE000
000FE000
0007F000
0007F000
0003F000
0003F800
0003F800
0001F800
0001FC00
0001FC00
0000FE00
0000FE00
00007E00
00007F00
00007F00
00003F00
00003F80
00003F80
00001FC0
00001FC0
00000FC0
00000FE0
00000FE0
ENDCHAR
STARTCHAR 005D
ENCODING 93
SWIDTH 321 0
DWIDTH 25 0
BBX 17 68 2 -12
BITMAP
FFFF80
FFFF80
FFFF80
FFFF80
FFFF80
FFFF80
001F80
001F80
001F80
001F80
001F80
001F80
001F80
001F80
001F80
001F80
001F80
001F80
001F80
001F80
001F80
001F80
001F80
001F80
001F80
001F80
001F80
001F80
001F80
001F80
001F80
001F80
001F80
001F80
001F80
001F80
001F80
001F80
001F80
001F80
001F80
001F80
001F80
001F80
001F80
001F80
001F80
001F80
001F80
001F80
001F80
001F80
001F80
001F80
001F80
001F80
001F80
001F80
001F80
001F80
001F80
001F80
001F80
FFFF80
FFFF80
FFFF80
FFFF80
FFFF80
ENDCHAR
STARTCHAR 005E
ENCODING 94
SWIDTH 565 0
DWIDTH 44 0
BBX 38 35 3 21
BITMAP
0000F80000
0000F80000
0001FC0000
0001FC0000
0003FE0000
0003FE0000
0007FF0000
0007DF0000
000FDF8000
000FCF8000
000F8FC000
001F87C000
001F07E000
003F03E000
003E03F000
007E01F000
007C01F800
00FC00F800
00FC00FC00
01F8007C00
01F8007E00
03F0003E00
03F0003F00
07E0001F00
07E0001F80
07C0000FC0
0FC0000FC0
0F800007E0
1F800007E0
1F800003F0
3F000003F0
3F000001F8
7E000001F8
7E000000FC
FC000000FC
ENDCHAR
STARTCHAR 005F
ENCODING 95
SWIDTH 437 0
DWIDTH 34 0
BBX 35 5 0 -12
BITMAP
FFFFFFFFE0
FFFFFFFFE0
FFFFFFFFE0
FFFFFFFFE0
FFFFFFFFE0
ENDCHAR
STARTCHAR 0060
ENCODING 96
SWIDTH 270 0
DWIDTH 21 0
BBX 16 13 3 47
BITMAP
FF00
FF80
7F80
3FC0
1FE0
0FE0
0FF0
07F0
03F8
01FC
00FE
007E
001F
ENDCHAR
STARTCHAR 0061
ENCODING 97
SWIDTH 552 0
DWIDTH 43 0
BBX 33 43 4 -1
BITMAP
001FFF8000
00FFFFF000
03FFFFF800
0FFFFFFC00
07FFFFFE00
07FC07FF00
03E001FF00
0300007F00
0000007F80
0000003F80
0000003F80
0000003F80
0000001F80
0000001F80
0000001F80
0000001F80
0000001F80
0001FFFF80
003FFFFF80
01FFFFFF80
07FFFFFF80
0FFFFFFF80
3FFE001F80
3FE0001F80
7F80001F80
FF00001F80
FF00003F80
FE00003F80
FE00003F80
FE00003F80
FE00003F80
FE00007F80
FE00007F80
FE0000FF80
FF0001FF80
FF8007FF80
7FC01FDF80
7FFFFFDF80
3FFFFF8F80
1FFFFE0F80
0FFFFC0F80
03FFF00F80
007F000000
ENDCHAR
STARTCHAR 0062
ENCODING 98
SWIDTH 604 0
DWIDTH 47 0
BBX 37 60 7 -1
BITMAP
FC00000000
FC00000000
FC00000000
FC00000000
FC00000000
FC00000000
FC00000000
FC00000000
FC00000000
FC00000000
FC00000000
FC00000000
FC00000000
FC00000000
FC00000000
FC00000000
FC00000000
FC07FF8000
FC1FFFF000
FC3FFFF800
FCFFFFFC00
FDFFFFFE00
FDFE0FFF00
FFF000FF80
FFC0007FC0
FF80003FC0
FF80001FE0
FF00001FE0
FF00000FE0
FE00000FF0
FE000007F0
FE000007F0
FE000007F0
FE000007F0
FE000007F0
FE000007F0
FC000007F8
FC000007F8
FC000007F8
FC000007F8
FC000007F0
FE000007F0
FE000007F0
FE000007F0
FE000007F0
FE000007F0
FE00000FF0
FF00000FE0
FF00000FE0
FF80001FE0
FF80003FC0
FFC0007FC0
FFF000FF80
FFFC03FF00
FDFFFFFF00
F8FFFFFE00
F87FFFFC00
F81FFFF000
F80FFFC000
00007C0000
ENDCHAR
STARTCHAR 0063
ENCODING 99
SWIDTH 475 0
DWIDTH 37 0
BBX 31 43 4 -1
BITMAP
0007FFE0
003FFFFC
007FFFFE
01FFFFFC
03FFFFFC
07FFFFF8
0FFC0038
0FF00000
1FE00000
1FC00000
3FC00000
3F800000
7F800000
7F000000
7F000000
7F000000
7F000000
FF000000
FE000000
FE000000
FE000000
FE000000
FE000000
FE000000
FE000000
FF000000
7F000000
7F000000
7F000000
7F800000
7F800000
3F800000
3FC00000
1FE00000
1FF00000
0FF8001C
07FF00FC
07FFFFFC
03FFFFFC
00FFFFFC
007FFFFC
000FFFF0
0001FE00
ENDCHAR
STARTCHAR 0064
ENCODING 100
SWIDTH 604 0
DWIDTH 47 0
BBX 37 60 4 -1
BITMAP
00000003F8
00000003F8
00000003F8
00000003F8
00000003F8
00000003F8
00000003F8
00000003F8
00000003F8
00000003F8
00000003F8
00000003F8
00000003F8
00000003F8
00000003F8
00000003F8
00000003F8
001FFF03F8
007FFFC3F8
00FFFFE1F8
03FFFFF1F8
07FFFFF9F8
07FF03FDF8
0FF8007FF8
1FF0003FF8
1FE0001FF8
3FC0000FF8
3FC0000FF8
3F800007F8
7F800007F8
7F000003F8
7F000003F8
7F000003F8
7F000003F8
FF000003F8
FE000003F8
FE000003F8
FE000003F8
FE000003F8
FE000003F8
FE000003F8
FE000003F8
FF000003F8
7F000003F8
7F000003F8
7F000003F8
7F000003F8
7F800007F8
3F800007F8
3FC0000FF8
3FC0000FF8
1FE0001FF8
0FF8003FF8
0FFE01FDF8
07FFFFFDF8
03FFFFF9F8
01FFFFE1F8
007FFFC1F8
001FFF00F8
0003F00000
ENDCHAR
STARTCHAR 0065
ENCODING 101
SWIDTH 552 0
DWIDTH 43 0
BBX 36 43 4 -1
BITMAP
0007FF8000
003FFFE000
007FFFF800
01FFFFFC00
03FFFFFE00
07FF03FF00
0FF800FF80
0FF0007F80
1FE0003FC0
1FC0001FC0
3F80001FE0
3F80000FE0
7F00000FE0
7F00000FE0
7F000007F0
7F000007F0
7F000007F0
FFFFFFFFF0
FFFFFFFFF0
FFFFFFFFF0
FFFFFFFFF0
FFFFFFFFF0
FE00000000
FE00000000
FE00000000
7F00000000
7F00000000
7F00000000
7F00000000
7F80000000
3F80000000
3FC0000000
3FC0000000
1FE0000000
0FF0000040
0FFC0003C0
07FF803FC0
03FFFFFFC0
01FFFFFFC0
00FFFFFFC0
003FFFFF80
000FFFFC00
00007FC000
ENDCHAR
STARTCHAR 0066
ENCODING 102
SWIDTH 334 0
DWIDTH 26 0
BBX 29 59 1 1
BITMAP
0001FFF0
0007FFF8
000FFFF8
001FFFF0
003FFFF0
007FE0F0
007F8000
00FF0000
00FE0000
00FE0000
00FE0000
00FE0000
00FC0000
01FC0000
01FC0000
01FC0000
01FC0000
03FFFF80
1FFFFF80
FFFFFF80
FFFFFF80
FFFFFF80
FFFFFF80
01FC0000
01FC0000
01FC0000
01FC0000
01FC0000
01FC0000
01FC0000
01FC0000
01FC0000
01FC0000
01FC0000
01FC0000
01FC0000
01FC0000
01FC0000
01FC0000
01FC0000
01FC0000
01FC0000
01FC0000
01FC0000
01FC0000
01FC0000
01FC0000
01FC0000
01FC0000
01FC0000
01FC0000
01FC0000
01FC0000
01FC0000
01FC0000
01FC0000
01FC0000
01FC0000
01FC0000
ENDCHAR
STARTCHAR 0067
ENCODING 103
SWIDTH 604 0
DWIDTH 47 0
BBX 37 61 4 -19
BITMAP
001FFE00F8
007FFFC0F8
00FFFFE1F8
01FFFFF1F8
03FFFFF9F8
07FF07FDF8
0FF800FFF8
1FF0003FF8
1FE0001FF8
3FC0000FF8
3FC00007F8
3F800007F8
7F800007F8
7F000003F8
7F000003F8
7F000003F8
7F000003F8
FF000003F8
FE000003F8
FE000003F8
FE000001F8
FE000001F8
FE000001F8
FE000001F8
FE000003F8
FF000003F8
7F000003F8
7F000003F8
7F000003F8
7F000003F8
7F800007F8
3F800007F8
3FC00007F8
1FC0000FF8
1FE0001FF8
0FF8003FF8
0FFE01FDF8
07FFFFFDF8
03FFFFF9F8
01FFFFF3F8
007FFFC3F8
001FFF03F8
0003F003F8
00000003F8
00000003F8
00000003F8
00000003F8
00000003F8
00000003F8
00000007F0
0000000FF0
0000000FF0
0800001FE0
0F00007FE0
0FF001FFC0
0FFFFFFF80
0FFFFFFF00
0FFFFFFE00
07FFFFF800
00FFFFE000
0003F80000
ENDCHAR
STARTCHAR 0068
ENCODING 104
SWIDTH 617 0
DWIDTH 48 0
BBX 35 59 7 0
BITMAP
FC00000000
FC00000000
FC00000000
FC00000000
FC00000000
FC00000000
FC00000000
FC00000000
FC00000000
FC00000000
FC00000000
FC00000000
FC00000000
FC00000000
FC00000000
FC00000000
FC00000000
FC03FFC000
FC0FFFF800
FC3FFFFC00
FC7FFFFE00
FCFFFFFF00
FDFF07FF80
FFF000FF80
FFE0007FC0
FFC0003FC0
FF80001FC0
FF00001FC0
FF00000FE0
FF00000FE0
FE00000FE0
FE00000FE0
FE00000FE0
FE00000FE0
FE00000FE0
FE00000FE0
FC00000FE0
FC00000FE0
FC00000FE0
FC00000FE0
FC00000FE0
FC00000FE0
FC00000FE0
FC00000FE0
FC00000FE0
FC00000FE0
FC00000FE0
FC00000FE0
FC00000FE0
FC00000FE0
FC00000FE0
FC00000FE0
FC00000FE0
FC00000FE0
FC00000FE0
FC00000FE0
FC00000FE0
FC00000FE0
FC00000FE0
ENDCHAR
STARTCHAR 0069
ENCODING 105
SWIDTH 257 0
DWIDTH 20 0
BBX 8 57 6 0
BITMAP
3E
7E
FF
FF
FF
FF
7F
7E
00
00
00
00
00
00
00
7E
7E
7E
7E
7E
7E
7E
7E
7E
7E
7E
7E
7E
7E
7E
7E
7E
7E
7E
7E
7E
7E
7E
7E
7E
7E
7E
7E
7E
7E
7E
7E
7E
7E
7E
7E
7E
7E
7E
7E
7E
7E
ENDCHAR
STARTCHAR 006A
ENCODING 106
SWIDTH 257 0
DWIDTH 20 0
BBX 18 76 -4 -19
BITMAP
000F80
001F80
003FC0
003FC0
003FC0
003FC0
001FC0
001F80
000000
000000
000000
000000
000000
000000
000000
001F80
001F80
001F80
001F80
001F80
001F80
001F80
001F80
001F80
001F80
001F80
001F80
001F80
001F80
001F80
001F80
001F80
001F80
001F80
001F80
001F80
001F80
001F80
001F80
001F80
001F80
001F80
001F80
001F80
001F80
001F80
001F80
001F80
001F80
001F80
001F80
001F80
001F80
001F80
001F80
001F80
001F80
001F80
001F80
001F80
001F80
001F80
001F80
001F80
001F80
003F80
003F80
003F80
007F80
81FF00
FFFF00
FFFE00
FFFE00
FFF800
FFF000
1F0000
ENDCHAR
STARTCHAR 006B
ENCODING 107
SWIDTH 527 0
DWIDTH 41 0
BBX 33 59 7 0
BITMAP
FC00000000
FC00000000
FC00000000
FC00000000
FC00000000
FC00000000
FC00000000
FC00000000
FC00000000
FC00000000
FC00000000
FC00000000
FC00000000
FC00000000
FC00000000
FC00000000
FC00000000
FC0000FF80
FC0000FF00
FC0001FE00
FC0003FC00
FC0007F800
FC000FF000
FC001FE000
FC003FC000
FC007F8000
FC00FF0000
FC01FE0000
FC03FC0000
FC07F80000
FC0FF00000
FC1FE00000
FC3FC00000
FC3F800000
FC7F000000
FCFF000000
FDFF800000
FFFFC00000
FFFFC00000
FFFFE00000
FFCFF00000
FF87F80000
FF07F80000
FE03FC0000
FC01FE0000
FC00FF0000
FC00FF0000
FC007F8000
FC003FC000
FC001FE000
FC001FE000
FC000FF000
FC0007F800
FC0007FC00
FC0003FC00
FC0001FE00
FC0000FF00
FC0000FF80
FC00007F80
ENDCHAR
STARTCHAR 006C
ENCODING 108
SWIDTH 257 0
DWIDTH 20 0
BBX 6 59 7 0
BITMAP
FC
FC
FC
FC
FC
FC
FC
FC
FC
FC
FC
FC
FC
FC
FC
FC
FC
FC
FC
FC
FC
FC
FC
FC
FC
FC
FC
FC
FC
FC
FC
FC
FC
FC
FC
FC
FC
FC
FC
FC
FC
FC
FC
FC
FC
FC
FC
FC
FC
FC
FC
FC
FC
FC
FC
FC
FC
FC
FC
ENDCHAR
STARTCHAR 006D
ENCODING 109
SWIDTH 925 0
DWIDTH 72 0
BBX 59 42 7 0
BITMAP
F807FF8001FFF000
F81FFFE007FFFC00
FC3FFFF80FFFFE00
FCFFFFFC3FFFFF00
FCFFFFFC7FFFFF80
FDFE0FFE7F83FFC0
FFF003FFFC007FC0
FFC000FFF8003FC0
FF80007FF0001FE0
FF80007FE0000FE0
FF00007FC0000FE0
FF00003FC0000FE0
FE00003FC0000FE0
FE00003F800007E0
FE00003F800007E0
FE00003F800007E0
FE00003F800007E0
FE00003F800007E0
FE00003F800007E0
FC00003F800007E0
FC00003F800007E0
FC00003F800007E0
FC00003F800007E0
FC00003F800007E0
FC00003F800007E0
FC00003F800007E0
FC00003F800007E0
FC00003F800007E0
FC00003F800007E0
FC00003F800007E0
FC00003F800007E0
FC00003F800007E0
FC00003F800007E0
FC00003F800007E0
FC00003F800007E0
FC00003F800007E0
FC00003F800007E0
FC00003F800007E0
FC00003F800007E0
FC00003F800007E0
FC00003F800007E0
FC00003F800007E0
ENDCHAR
STARTCHAR 006E
ENCODING 110
SWIDTH 617 0
DWIDTH 48 0
BBX 35 42 7 0
BITMAP
F803FFC000
F81FFFF800
FC3FFFFC00
FC7FFFFE00
FCFFFFFF00
FDFF07FF80
FFF000FF80
FFE0007FC0
FFC0003FC0
FF80001FC0
FF00001FC0
FF00000FE0
FE00000FE0
FE00000FE0
FE00000FE0
FE00000FE0
FE00000FE0
FE00000FE0
FE00000FE0
FC00000FE0
FC00000FE0
FC00000FE0
FC00000FE0
FC00000FE0
FC00000FE0
FC00000FE0
FC00000FE0
FC00000FE0
FC00000FE0
FC00000FE0
FC00000FE0
FC00000FE0
FC00000FE0
FC00000FE0
FC00000FE0
FC00000FE0
FC00000FE0
FC00000FE0
FC00000FE0
FC00000FE0
FC00000FE0
FC00000FE0
ENDCHAR
STARTCHAR 006F
ENCODING 111
SWIDTH 604 0
DWIDTH 47 0
BBX 39 43 4 -1
BITMAP
0007FFC000
003FFFF800
007FFFFC00
01FFFFFF00
03FFFFFF80
07FF83FFC0
0FFC007FE0
0FF0001FE0
1FE0000FF0
1FC00007F0
3FC00007F8
3F800003F8
7F800003FC
7F000001FC
7F000001FC
7F000001FC
7F000001FE
FF000000FE
FE000000FE
FE000000FE
FE000000FE
FE000000FE
FE000000FE
FE000000FE
FF000000FE
7F000001FE
7F000001FC
7F000001FC
7F000001FC
7F800003FC
3F800003F8
3FC00003F8
1FC00007F8
1FE0000FF0
0FF0001FF0
0FF8003FE0
07FE00FFC0
03FFFFFF80
01FFFFFF00
00FFFFFE00
003FFFF800
000FFFE000
0000FE0000
ENDCHAR
STARTCHAR 0070
ENCODING 112
SWIDTH 604 0
DWIDTH 47 0
BBX 37 61 7 -19
BITMAP
F807FF8000
F81FFFF000
FC3FFFF800
FC7FFFFC00
FCFFFFFE00
FDFE0FFF00
FFF001FF80
FFC0007FC0
FFC0003FC0
FF80001FE0
FF00001FE0
FF00000FE0
FE00000FF0
FE00000FF0
FE000007F0
FE000007F0
FE000007F0
FE000007F0
FC000007F0
FC000007F8
FC000007F8
FC000007F8
FC000007F8
FE000007F0
FE000007F0
FE000007F0
FE000007F0
FE000007F0
FE00000FF0
FE00000FF0
FF00000FE0
FF00001FE0
FF80001FE0
FF80003FC0
FFC0007FC0
FFF000FF80
FFFC03FF00
FDFFFFFF00
FCFFFFFE00
FC7FFFFC00
FC1FFFF000
FC0FFFC000
FC007C0000
FC00000000
FC00000000
FC00000000
FC00000000
FC00000000
FC00000000
FC00000000
FC00000000
FC00000000
FC00000000
FC00000000
FC00000000
FC00000000
FC00000000
FC00000000
FC00000000
FC00000000
FC00000000
ENDCHAR
STARTCHAR 0071
ENCODING 113
SWIDTH 604 0
DWIDTH 47 0
BBX 37 61 4 -19
BITMAP
000FFF00F8
007FFFC0F8
00FFFFE1F8
01FFFFF1F8
03FFFFF9F8
07FF03FDF8
0FF8007FF8
1FF0003FF8
1FE0001FF8
3FC0000FF8
3FC0000FF8
3F800007F8
7F800007F8
7F000003F8
7F000003F8
7F000003F8
7F000003F8
FF000003F8
FE000003F8
FE000003F8
FE000003F8
FE000003F8
FE000003F8
FE000003F8
FE000003F8
FF000003F8
7F000003F8
7F000003F8
7F000003F8
7F000003F8
7F800007F8
3F800007F8
3FC0000FF8
3FE0000FF8
1FE0001FF8
0FF8003FF8
0FFE01FDF8
07FFFFF9F8
03FFFFFBF8
01FFFFE3F8
007FFFC3F8
001FFF03F8
0003F003F8
00000003F8
00000003F8
00000003F8
00000003F8
00000003F8
00000003F8
00000003F8
00000003F8
00000003F8
00000003F8
00000003F8
00000003F8
00000003F8
00000003F8
00000003F8
00000003F8
00000003F8
00000003F8
ENDCHAR
STARTCHAR 0072
ENCODING 114
SWIDTH 411 0
DWIDTH 32 0
BBX 24 42 7 0
BITMAP
F803FF
F80FFF
F81FFF
FC3FFE
FC7FFE
FCFFFE
FDFE00
FDF800
FFE000
FFC000
FF8000
FF8000
FF0000
FF0000
FE0000
FE0000
FE0000
FE0000
FC0000
FC0000
FC0000
FC0000
FC0000
FC0000
FC0000
FC0000
FC0000
FC0000
FC0000
FC0000
FC0000
FC0000
FC0000
FC0000
FC0000
FC0000
FC0000
FC0000
FC0000
FC0000
FC0000
FC0000
ENDCHAR
STARTCHAR 0073
ENCODING 115
SWIDTH 475 0
DWIDTH 37 0
BBX 30 43 4 -1
BITMAP
00FFFF00
03FFFFE0
0FFFFFF8
1FFFFFF0
3FFFFFF0
7FE01FF0
7F8001E0
FF000020
FE000000
FE000000
FE000000
FE000000
FE000000
FF000000
7F800000
7FE00000
3FF80000
1FFF0000
0FFFC000
07FFF800
01FFFE00
007FFF80
000FFFC0
0003FFE0
0000FFF0
00001FF8
00000FF8
000003F8
000003FC
000001FC
000001FC
000001FC
000001FC
000001F8
800003F8
F00007F8
FE001FF0
FFFFFFF0
FFFFFFE0
FFFFFFC0
7FFFFF00
1FFFFC00
00FFC000
ENDCHAR
STARTCHAR 0074
ENCODING 116
SWIDTH 360 0
DWIDTH 28 0
BBX 25 52 1 -1
BITMAP
00780000
00F80000
00F80000
00F80000
01F80000
01F80000
01F80000
01F80000
03F80000
0FFFFF80
3FFFFF80
FFFFFF80
FFFFFF80
FFFFFF80
FFFFFF80
03F80000
03F80000
03F80000
03F80000
03F80000
03F80000
03F80000
03F80000
03F80000
03F80000
03F80000
03F80000
03F80000
03F80000
03F80000
03F80000
03F80000
03F80000
03F80000
03F80000
03F80000
03F80000
03F80000
03F80000
03F80000
03F80000
03F80000
03FC0000
01FC0000
01FE0000
01FF0000
00FFFF80
00FFFF80
007FFF80
003FFF80
000FFF80
0001FC00
ENDCHAR
STARTCHAR 0075
ENCODING 117
SWIDTH 617 0
DWIDTH 48 0
BBX 35 43 6 -1
BITMAP
FE000007E0
FE000007E0
FE000007E0
FE000007E0
FE000007E0
FE000007E0
FE000007E0
FE000007E0
FE000007E0
FE000007E0
FE000007E0
FE000007E0
FE000007E0
FE000007E0
FE000007E0
FE000007E0
FE000007E0
FE000007E0
FE000007E0
FE000007E0
FE000007E0
FE000007E0
FE000007E0
FE000007E0
FE00000FE0
FE00000FE0
FE00000FE0
FE00000FE0
FE00000FE0
FE00000FE0
FE00001FE0
FF00001FE0
7F00003FE0
7F80003FE0
7F80007FE0
7FC001FFE0
3FF007FFE0
1FFFFFF7E0
1FFFFFE7E0
0FFFFFC7E0
03FFFF03E0
00FFFC03E0
001FC00000
ENDCHAR
STARTCHAR 0076
ENCODING 118
SWIDTH 501 0
DWIDTH 39 0
BBX 39 42 0 0
BITMAP
FE000000FE
FF000000FE
7F000001FE
7F000001FC
3F800001FC
3F800003FC
3FC00003F8
1FC00003F8
1FC00007F0
1FE00007F0
0FE00007F0
0FE0000FE0
07F0000FE0
07F0001FE0
07F0001FC0
03F8001FC0
03F8003F80
01FC003F80
01FC003F80
01FC007F00
00FE007F00
00FE007E00
00FE00FE00
007F00FE00
007F01FC00
003F01FC00
003F81FC00
003F83F800
001F83F800
001FC3F000
001FC7F000
000FC7F000
000FE7E000
0007EFE000
0007EFE000
0007EFC000
0003FFC000
0003FF8000
0003FF8000
0001FF8000
0001FF0000
0000FF0000
ENDCHAR
STARTCHAR 0077
ENCODING 119
SWIDTH 784 0
DWIDTH 61 0
BBX 59 42 1 0
BITMAP
FE00003F80000FE0
FE00007FC0000FE0
FF00007FC0000FE0
7F00007FC0001FC0
7F00007FE0001FC0
7F0000FFE0001FC0
3F8000FFE0001FC0
3F8000FBF0003F80
3F8001FBF0003F80
3F8001FBF0003F80
1FC001FBF8003F00
1FC003F1F8007F00
1FC003F1F8007F00
0FC003F1F8007F00
0FE007F1FC007E00
0FE007E0FC00FE00
0FE007E0FC00FE00
07E00FE0FE00FC00
07F00FE07E01FC00
07F00FC07E01FC00
07F00FC07F01FC00
03F01FC07F01F800
03F81F803F03F800
03F81F803F03F800
01F83F803F83F800
01F83F001F83F000
01FC3F001F87F000
01FC7F001FC7F000
00FC7E000FC7E000
00FC7E000FC7E000
00FE7E000FCFE000
00FEFC000FEFE000
007EFC0007EFC000
007EFC0007EFC000
007EF80007EFC000
003FF80003FF8000
003FF80003FF8000
003FF00003FF8000
003FF00001FF8000
001FF00001FF0000
001FF00001FF0000
001FE00000FF0000
ENDCHAR
STARTCHAR 0078
ENCODING 120
SWIDTH 527 0
DWIDTH 41 0
BBX 37 42 2 0
BITMAP
FF000007F8
7F80000FF0
3F80000FE0
3FC0001FE0
1FE0003FC0
0FE0003F80
0FF0007F80
07F800FF00
03F800FE00
01FC01FE00
01FE03FC00
00FF03F800
007F07F000
007F8FF000
003FCFE000
001FDFC000
000FFFC000
000FFF8000
0007FF0000
0003FE0000
0003FE0000
0003FE0000
0007FF0000
000FFF8000
000FFF8000
001FFFC000
003FDFE000
003F8FE000
007F07F000
00FF07F800
00FE03FC00
01FC01FC00
03FC01FE00
07F800FF00
07F0007F00
0FF0003F80
1FE0003FC0
1FC0001FE0
3FC0000FE0
7F80000FF0
FF000007F8
FE000003F8
ENDCHAR
STARTCHAR 0079
ENCODING 121
SWIDTH 501 0
DWIDTH 39 0
BBX 40 61 0 -19
BITMAP
FE000000FF
7F000000FE
7F000001FE
7F800001FC
3F800001FC
3F800003FC
1FC00003F8
1FC00003F8
1FE00007F8
0FE00007F0
0FE00007F0
07F0000FE0
07F0000FE0
07F0000FE0
03F8001FC0
03F8001FC0
01FC003FC0
01FC003F80
01FC003F80
00FE007F00
00FE007F00
007E007F00
007F00FE00
007F00FE00
003F80FE00
003F81FC00
001F81FC00
001FC1F800
001FC3F800
000FC3F800
000FE3F000
0007E7F000
0007E7E000
0007E7E000
0003FFE000
0003FFC000
0001FFC000
0001FFC000
0001FF8000
0000FF8000
0000FF0000
00007F0000
00007F0000
0000FE0000
0000FE0000
0000FE0000
0001FC0000
0001FC0000
0003F80000
0003F80000
0007F80000
0007F00000
000FF00000
001FE00000
007FC00000
7FFFC00000
7FFF800000
7FFF000000
7FFE000000
7FF8000000
0F80000000
ENDCHAR
STARTCHAR 007A
ENCODING 122
SWIDTH 462 0
DWIDTH 36 0
BBX 31 42 3 0
BITMAP
7FFFFFFC
7FFFFFFC
7FFFFFFC
7FFFFFFC
7FFFFFFC
7FFFFFFC
000003F8
000007F8
00000FF0
00000FE0
00001FC0
00003FC0
00003F80
00007F00
0000FF00
0001FE00
0001FC00
0003F800
0007F800
0007F000
000FE000
001FE000
001FC000
003F8000
007F8000
00FF0000
00FE0000
01FC0000
03FC0000
03F80000
07F00000
0FF00000
0FE00000
1FC00000
3F800000
7F800000
7F000000
FFFFFFFE
FFFFFFFE
FFFFFFFE
FFFFFFFE
FFFFFFFE
ENDCHAR
STARTCHAR 007B
ENCODING 123
SWIDTH 372 0
DWIDTH 29 0
BBX 25 67 2 -11
BITMAP
00003F80
0000FF80
0003FF80
0007FF80
000FFF80
001FFC00
001FE000
003FC000
003F8000
003F8000
003F8000
003F0000
003F0000
003F0000
003F0000
003F0000
003F0000
003F0000
003F0000
003F0000
003F0000
003F0000
003F0000
003F0000
003F0000
007F0000
007F0000
007F0000
00FE0000
03FE0000
FFFC0000
FFF00000
FFC00000
FF000000
FFE00000
FFF80000
1FFC0000
01FE0000
00FF0000
007F0000
007F0000
007F0000
003F0000
003F0000
003F0000
003F0000
003F0000
003F0000
003F0000
003F0000
003F0000
003F0000
003F0000
003F0000
003F0000
003F0000
003F8000
003F8000
003F8000
003FC000
001FF000
001FFF00
000FFF80
0007FF80
0003FF80
0000FF80
00001F80
ENDCHAR
STARTCHAR 007C
ENCODING 124
SWIDTH 540 0
DWIDTH 42 0
BBX 5 78 19 -19
BITMAP
F8
F8
F8
F8
F8
F8
F8
F8
F8
F8
F8
F8
F8
F8
F8
F8
F8
F8
F8
F8
F8
F8
F8
F8
F8
F8
F8
F8
F8
F8
F8
F8
F8
F8
F8
F8
F8
F8
F8
F8
F8
F8
F8
F8
F8
F8
F8
F8
F8
F8
F8
F8
F8
F8
F8
F8
F8
F8
F8
F8
F8
F8
F8
F8
F8
F8
F8
F8
F8
F8
F8
F8
F8
F8
F8
F8
F8
F8
ENDCHAR
STARTCHAR 007D
ENCODING 125
SWIDTH 372 0
DWIDTH 29 0
BBX 25 68 2 -12
BITMAP
C0000000
FF000000
FFC00000
FFF00000
FFF80000
FFFC0000
0FFC0000
03FE0000
00FE0000
00FF0000
007F0000
007F0000
007F0000
007F0000
007F0000
007F0000
007F0000
007F0000
007F0000
007F0000
007F0000
007F0000
007F0000
007F0000
007F0000
007F0000
007F0000
007F0000
003F8000
003FC000
001FF000
000FFF80
0007FF80
0001FF80
00003F80
0003FF80
0007FF80
001FFE00
001FE000
003FC000
003F8000
007F0000
007F0000
007F0000
007F0000
007F0000
007F0000
007F0000
007F0000
007F0000
007F0000
007F0000
007F0000
007F0000
007F0000
007F0000
007F0000
007F0000
007F0000
00FE0000
01FE0000
03FE0000
3FFC0000
FFF80000
FFF80000
FFE00000
FF800000
FE000000
ENDCHAR
STARTCHAR 007E
ENCODING 126
SWIDTH 565 0
DWIDTH 44 0
BBX 37 11 4 22
BITMAP
0040000000
0FFF000018
3FFFC00038
7FFFF80078
FFFFFF01F8
FFFFFFFFF8
FC0FFFFFF8
F001FFFFF0
C0003FFFC0
80000FFF80
000000F800
ENDCHAR
STARTCHAR 00A0
ENCODING 160
SWIDTH 257 0
DWIDTH 20 0
BBX 0 0 0 0
BITMAP
ENDCHAR
STARTCHAR 00A1
ENCODING 161
SWIDTH 257 0
DWIDTH 20 0
BBX 9 56 6 -14
BITMAP
7E00
FF00
FF80
FF80
FF80
FF80
FF80
FF80
7F00
3E00
0000
0000
0000
0000
0000
0000
3E00
3E00
3E00
3E00
3E00
3E00
3E00
3E00
3E00
3E00
3E00
3E00
7E00
7E00
7E00
7E00
7E00
7E00
7E00
7F00
7F00
7F00
7F00
7F00
7F00
7F00
7F00
7F00
7F00
7F00
7F00
7F00
FF00
FF00
FF00
FF00
FF00
FF00
FF00
FF80
ENDCHAR
STARTCHAR 00A2
ENCODING 162
SWIDTH 565 0
DWIDTH 44 0
BBX 31 57 7 -1
BITMAP
0001F000
0001F000
0001F000
0001F000
0001F000
0001F000
0003FF80
001FFFF8
007FFFFE
01FFFFFC
03FFFFFC
07FFFFFC
0FFE00F8
1FF80008
1FE00000
3FC00000
3FC00000
7F800000
7F800000
7F000000
7F000000
7F000000
FE000000
FE000000
FE000000
FE000000
FE000000
FE000000
FE000000
FE000000
FE000000
FE000000
FE000000
FF000000
7F000000
7F000000
7F000000
7F800000
3F800000
3FC00000
1FE00000
1FF00004
0FFC007C
0FFFFFFC
07FFFFFC
01FFFFFC
00FFFFFC
003FFFF8
0007FFC0
0001F000
0001F000
0001F000
0001F000
0001F000
0001F000
0001F000
0001F000
ENDCHAR
STARTCHAR 00A3
ENCODING 163
SWIDTH 565 0
DWIDTH 44 0
BBX 40 56 2 0
BITMAP
00003FFE00
0000FFFFC0
0003FFFFF8
0007FFFFFC
000FFFFFF8
001FFE7FF8
003FE003F0
003FC00070
007F800000
007F000000
007F000000
00FE000000
00FE000000
00FE000000
00FE000000
00FE000000
00FE000000
00FE000000
00FE000000
00FE000000
00FE000000
00FE000000
00FE000000
00FE000000
00FE000000
00FE000000
7FFFFFFE00
7FFFFFFE00
7FFFFFFE00
7FFFFFFE00
7FFFFFFE00
00FE000000
00FE000000
00FE000000
00FE000000
00FE000000
00FE000000
00FE000000
00FE000000
00FE000000
00FE000000
00FE000000
00FE000000
00FE000000
01FC000000
01FC000000
03F8000000
07F0000000
0FE0000000
1FC0000000
FFFFFFFFFF
FFFFFFFFFF
FFFFFFFFFF
FFFFFFFFFF
FFFFFFFFFF
FFFFFFFFFF
ENDCHAR
STARTCHAR 00A4
ENCODING 164
SWIDTH 565 0
DWIDTH 44 0
BBX 35 35 5 10
BITMAP
1000000000
3800000780
7C01F00FC0
FE1FFE1FE0
FF7FFFBFC0
7FFFFFFF80
3FFFFFFF00
1FFF3FFE00
0FF803FC00
0FE001FC00
0FC0007E00
1F80007E00
1F00003F00
1F00001F00
3F00001F00
3E00001F00
3E00001F00
3E00001F00
3E00001F00
3E00001F00
3F00001F00
1F00001F00
1F00003F00
1F80007E00
0FC0007E00
0FE001FC00
0FF803FC00
1FFFBFFE00
3FFFFFFF00
7FFFFFFF80
FF7FFFBFC0
FE1FFE1FE0
7C01F00FC0
3800000780
1000000300
ENDCHAR
STARTCHAR 00A5
ENCODING 165
SWIDTH 565 0
DWIDTH 44 0
BBX 42 56 1 0
BITMAP
FE0000001FC0
7F0000001FC0
7F0000003F80
3F8000003F80
3F8000007F00
1FC000007F00
1FC00000FE00
0FE00001FC00
0FE00001FC00
07F00003F800
07F00003F800
03F80007F000
03F80007F000
01FC000FE000
00FC000FE000
00FE001FC000
007F001FC000
007F003F8000
003F803F8000
003F807F0000
001FC07F0000
001FC0FE0000
000FE0FC0000
000FE1FC0000
0007F1F80000
0007F3F80000
0003FBF00000
0003FFF00000
0001FFE00000
0001FFE00000
03FFFFFFF000
03FFFFFFF000
03FFFFFFF000
03FFFFFFF000
03FFFFFFF000
00003F800000
00003F800000
00003F800000
00003F800000
00003F800000
00003F800000
03FFFFFFF000
03FFFFFFF000
03FFFFFFF000
03FFFFFFF000
03FFFFFFF000
00003F800000
00003F800000
00003F800000
00003F800000
00003F800000
00003F800000
00003F800000
00003F800000
00003F800000
00003F800000
ENDCHAR
STARTCHAR 00A6
ENCODING 166
SWIDTH 540 0
DWIDTH 42 0
BBX 5 78 19 -19
BITMAP
F8
F8
F8
F8
F8
F8
F8
F8
F8
F8
F8
F8
F8
F8
F8
F8
F8
F8
F8
F8
F8
F8
F8
F8
F8
F8
F8
F8
F8
F8
00
00
00
00
00
00
00
00
00
00
00
00
00
00
00
00
00
00
F8
F8
F8
F8
F8
F8
F8
F8
F8
F8
F8
F8
F8
F8
F8
F8
F8
F8
F8
F8
F8
F8
F8
F8
F8
F8
F8
F8
F8
F8
ENDCHAR
STARTCHAR 00A7
ENCODING 167
SWIDTH 501 0
DWIDTH 39 0
BBX 30 59 5 1
BITMAP
00FFFF00
03FFFFE0
0FFFFFF8
1FFFFFF8
3FFFFFF0
7FC007F0
7F000060
7E000000
FE000000
FE000000
FE000000
7E000000
7F000000
7FC00000
3FF00000
1FFC0000
0FFF0000
07FFE000
03FFF800
07FFFE00
1FFFFF80
3FC3FFC0
3F00FFE0
7E001FF0
7E000FF8
FC0003F8
FC0001F8
FC0001FC
FC0000FC
FC0000FC
FE0000FC
7F0000FC
7F8001F8
7FC001F8
3FF003F8
1FFC07F0
0FFF8FE0
03FFFFC0
01FFFF80
007FFF00
000FFF80
0003FFE0
00007FF0
00001FF0
000007F8
000003F8
000001FC
000001FC
000001FC
000001FC
000001F8
800003F8
F00007F8
FE001FF0
FFFFFFE0
FFFFFFC0
FFFFFF80
7FFFFE00
0FFFF800
ENDCHAR
STARTCHAR 00A8
ENCODING 168
SWIDTH 578 0
DWIDTH 45 0
BBX 21 8 12 49
BITMAP
3800E0
FC01F8
FE03F8
FE03F8
FE03F8
FE03F8
FC01F8
7800F0
ENDCHAR
STARTCHAR 00A9
ENCODING 169
SWIDTH 822 0
DWIDTH 64 0
BBX 57 57 4 -1
BITMAP
000007FFE0000000
00003FFFFE000000
0001FFFFFF800000
0007FFFFFFE00000
000FFC003FF80000
003FE00007FC0000
007F800000FE0000
00FE0000007F0000
01FC0000001F8000
03F00000000FC000
07E000000007E000
07C0007FE003F000
0F8003FFFC01F000
1F8007FFFE00F800
1F001FFFFE00FC00
3E003FFFFC007C00
3E003FE07C003E00
3C007F8008003E00
7C00FE0000001E00
7C00FE0000001F00
7801FC0000001F00
F801F80000000F00
F801F80000000F00
F801F80000000F80
F003F80000000F80
F003F00000000F80
F003F00000000F80
F003F00000000F80
F003F00000000F80
F003F00000000F80
F003F00000000F80
F003F00000000F80
F003F80000000F80
F801F80000000F00
F801F80000000F00
7801F80000001F00
7C00FC0000001F00
7C00FE0000001F00
7C00FE0000003E00
3E007F800C003E00
3E003FF9FC007C00
1F001FFFFC007C00
1F800FFFFC00F800
0F8007FFFC01F800
0FC001FFF001F000
07E0000F0003F000
03F000000007E000
01F80000001FC000
00FE0000003F8000
007F000000FF0000
003FC00001FE0000
001FF8000FFC0000
0007FFE3FFF00000
0003FFFFFFC00000
0000FFFFFF000000
00001FFFFC000000
000000FF00000000
ENDCHAR
STARTCHAR 00AA
ENCODING 170
SWIDTH 347 0
DWIDTH 27 0
BBX 22 26 2 30
BITMAP
03FF80
1FFFE0
3FFFF0
1FFFF8
1E01F8
0800FC
00007C
00007C
00007C
00007C
001FFC
03FFFC
0FFFFC
3FFFFC
3F807C
7E007C
7C007C
7C007C
F8007C
7C00FC
7C01FC
7E03FC
7FFFFC
3FFF3C
1FFE3C
07F83C
ENDCHAR
STARTCHAR 00AB
ENCODING 171
SWIDTH 501 0
DWIDTH 39 0
BBX 33 31 3 5
BITMAP
000E000E00
001F801F00
001FC03F80
003F807F00
007F00FF00
00FE00FE00
01FE01FC00
03FC03F800
03F807F000
07F00FF000
0FE01FE000
1FC03FC000
3FC03F8000
7F807F0000
7F00FE0000
FE00FE0000
FF00FF0000
7F807F0000
3FC03F8000
1FE03FC000
0FE01FE000
07F00FF000
03F807F000
03FC03F800
01FE01FC00
00FE00FE00
007F00FF00
003F807F80
001FC03F80
001F801F00
000E000E00
ENDCHAR
STARTCHAR 00AC
ENCODING 172
SWIDTH 565 0
DWIDTH 44 0
BBX 36 20 4 10
BITMAP
FFFFFFFFF0
FFFFFFFFF0
FFFFFFFFF0
FFFFFFFFF0
FFFFFFFFF0
00000001F0
00000001F0
00000001F0
00000001F0
00000001F0
00000001F0
00000001F0
00000001F0
00000001F0
00000001F0
00000001F0
00000001F0
00000001F0
00000001F0
00000001F0
ENDCHAR
STARTCHAR 00AD
ENCODING 173
SWIDTH 321 0
DWIDTH 25 0
BBX 19 6 3 18
BITMAP
FFFFE0
FFFFE0
FFFFE0
FFFFE0
FFFFE0
FFFFE0
ENDCHAR
STARTCHAR 00AE
ENCODING 174
SWIDTH 822 0
DWIDTH 64 0
BBX 57 57 4 -1
BITMAP
000007FFE0000000
00003FFFFE000000
0001FFFFFF800000
0007FFFFFFE00000
000FFC003FF80000
003FE00007FC0000
007F800000FE0000
00FE0000007F0000
01FC0000001F8000
03F00000000FC000
07E000000007E000
07C03FFE0003F000
0F803FFFE001F000
1F803FFFF800F800
1F003FFFFC00FC00
3E003FFFFE007C00
3E003F03FE003E00
3C003F00FE003E00
7C003F007F001E00
7C003F003F001F00
78003F003F001F00
F8003F003F000F00
F8003F003F000F00
F8003F003F000F80
F0003F007F000F80
F0003F00FE000F80
F0003F03FE000F80
F0003FFFFC000F80
F0003FFFF8000F80
F0003FFFE0000F80
F0003FFFC0000F80
F0003FFFE0000F80
F0003F07E0000F80
F8003F07F0000F00
F8003F03F0000F00
78003F01F8001F00
7C003F01FC001F00
7C003F00FC001F00
7C003F00FE003E00
3E003F007E003E00
3E003F007F007C00
1F003F003F807C00
1F803F001F80F800
0F803F001FC1F800
0FC03F000FC1F000
07E000000003F000
03F000000007E000
01F80000001FC000
00FE0000003F8000
007F000000FF0000
003FC00001FE0000
001FF8000FFC0000
0007FFE3FFF00000
0003FFFFFFC00000
0000FFFFFF000000
00001FFFFC000000
000000FF00000000
ENDCHAR
STARTCHAR 00AF
ENCODING 175
SWIDTH 488 0
DWIDTH 38 0
BBX 39 5 0 59
BITMAP
FFFFFFFFFE
FFFFFFFFFE
FFFFFFFFFE
FFFFFFFFFE
FFFFFFFFFE
ENDCHAR
STARTCHAR 00B0
ENCODING 176
SWIDTH 424 0
DWIDTH 33 0
BBX 25 24 4 32
BITMAP
00FFC000
03FFF000
0FFFF800
1FFFFC00
3FC1FE00
3F007E00
7E003F00
7C001F00
7C001F80
FC000F80
FC000F80
F8000F80
F8000F80
F8000F80
7C000F80
7C001F80
7E001F00
3F003F00
3FC0FE00
1FFFFC00
0FFFF800
07FFF000
01FFC000
00080000
ENDCHAR
STARTCHAR 00B1
ENCODING 177
SWIDTH 565 0
DWIDTH 44 0
BBX 37 47 4 0
BITMAP
0001F80000
0001F80000
0001F80000
0001F80000
0001F80000
0001F80000
0001F80000
0001F80000
0001F80000
0001F80000
0001F80000
0001F80000
0001F80000
0001F80000
0001F80000
0001F80000
0001F80000
FFFFFFFFF0
FFFFFFFFF0
FFFFFFFFF0
FFFFFFFFF0
FFFFFFFFF0
0001F80000
0001F80000
0001F80000
0001F80000
0001F80000
0001F80000
0001F80000
0001F80000
0001F80000
0001F80000
0001F80000
0001F80000
0001F80000
0001F80000
0001F80000
0001F80000
0000000000
0000000000
0000000000
FFFFFFFFF8
FFFFFFFFF8
FFFFFFFFF8
FFFFFFFFF8
FFFFFFFFF8
FFFFFFFFF8
ENDCHAR
STARTCHAR 00B2
ENCODING 178
SWIDTH 347 0
DWIDTH 27 0
BBX 22 34 2 32
BITMAP
03FF00
0FFFC0
3FFFE0
7FFFF0
7F07F8
7C01F8
3000FC
0000FC
0000FC
0000FC
0000FC
0000FC
0000F8
0001F8
0001F0
0003F0
0007E0
000FC0
001F80
003F00
007E00
00FC00
01F800
03F000
07E000
0FC000
1F8000
3F0000
7E0000
FFFFFC
FFFFFC
FFFFFC
FFFFFC
FFFFFC
ENDCHAR
STARTCHAR 00B3
ENCODING 179
SWIDTH 347 0
DWIDTH 27 0
BBX 24 34 1 32
BITMAP
03FF80
0FFFE0
3FFFF8
FFFFF8
7F83FC
3C00FE
10007E
00007E
00007E
00007E
00007E
00007C
0000FC
0003F8
07FFF0
07FFE0
07FFC0
07FFF0
07FFFC
0001FE
00007E
00003F
00003F
00003F
00003F
00003F
00003F
80007E
E000FE
FE03FC
FFFFFC
FFFFF8
7FFFE0
0FFF80
ENDCHAR
STARTCHAR 00B4
ENCODING 180
SWIDTH 270 0
DWIDTH 21 0
BBX 16 13 3 47
BITMAP
01FF
01FF
03FE
03FC
07F8
07F0
0FE0
1FC0
1F80
3F00
7E00
FC00
F800
ENDCHAR
STARTCHAR 00B5
ENCODING 181
SWIDTH 617 0
DWIDTH 48 0
BBX 35 61 7 -19
BITMAP
FC00000FE0
FC00000FE0
FC00000FE0
FC00000FE0
FC00000FE0
FC00000FE0
FC00000FE0
FC00000FE0
FC00000FE0
FC00000FE0
FC00000FE0
FC00000FE0
FC00000FE0
FC00000FE0
FC00000FE0
FC00000FE0
FC00000FE0
FC00000FE0
FC00000FE0
FC00000FE0
FC00000FE0
FC00000FE0
FC00000FE0
FC00000FE0
FC00000FE0
FC00000FE0
FC00000FE0
FC00000FE0
FC00001FE0
FE00001FE0
FE00001FE0
FE00003FE0
FE00003FE0
FF00007FE0
FF8000FFE0
FFC001FFE0
FFF007FFE0
FFFFFFEFE0
FFFFFFC7E0
FDFFFF87E0
FCFFFF07E0
FC7FFC07E0
FC0FC00000
FC00000000
FC00000000
FC00000000
FC00000000
FC00000000
FC00000000
FC00000000
FC00000000
FC00000000
FC00000000
FC00000000
FC00000000
FC00000000
FC00000000
FC00000000
FC00000000
FC00000000
FC00000000
ENDCHAR
STARTCHAR 00B6
ENCODING 182
SWIDTH 642 0
DWIDTH 50 0
BBX 39 69 4 -10
BITMAP
000FFFFFFE
007FFFFFFE
01FFFFFFFE
03FFFFFFFE
07FFFFC03E
0FFFFFC03E
1FFFFFC03E
1FFFFFC03E
3FFFFFC03E
3FFFFFC03E
7FFFFFC03E
7FFFFFC03E
7FFFFFC03E
7FFFFFC03E
7FFFFFC03E
FFFFFFC03E
FFFFFFC03E
FFFFFFC03E
FFFFFFC03E
FFFFFFC03E
FFFFFFC03E
FFFFFFC03E
FFFFFFC03E
FFFFFFC03E
7FFFFFC03E
7FFFFFC03E
7FFFFFC03E
7FFFFFC03E
7FFFFFC03E
3FFFFFC03E
3FFFFFC03E
1FFFFFC03E
1FFFFFC03E
0FFFFFC03E
07FFFFC03E
03FFFFC03E
01FFFFC03E
003FFFC03E
000003C03E
000003C03E
000003C03E
000003C03E
000003C03E
000003C03E
000003C03E
000003C03E
000003C03E
000003C03E
000003C03E
000003C03E
000003C03E
000003C03E
000003C03E
000003C03E
000003C03E
000003C03E
000003C03E
000003C03E
000003C03E
000003C03E
000003C03E
000003C03E
000003C03E
000003C03E
000003C03E
000003C03E
000003C03E
000003C03E
000003C03E
ENDCHAR
STARTCHAR 00B7
ENCODING 183
SWIDTH 257 0
DWIDTH 20 0
BBX 9 11 6 22
BITMAP
1800
7F00
FF80
FF80
FF80
FF80
FF80
FF80
FF80
7F00
3C00
ENDCHAR
STARTCHAR 00B8
ENCODING 184
SWIDTH 218 0
DWIDTH 17 0
BBX 15 19 1 -19
BITMAP
03E0
07C0
07C0
0F80
0FC0
1FF0
1FFC
03FE
007E
003E
003E
003E
003E
007E
FFFE
FFFC
FFF8
FFE0
3E00
ENDCHAR
STARTCHAR 00B9
ENCODING 185
SWIDTH 347 0
DWIDTH 27 0
BBX 16 34 3 32
BITMAP
003F
00FF
01FF
03FF
0FFF
1FFF
7FBF
FF3F
7E3F
783F
303F
003F
003F
003F
003F
003F
003F
003F
003F
003F
003F
003F
003F
003F
003F
003F
003F
003F
003F
003F
003F
003F
003F
003F
ENDCHAR
STARTCHAR 00BA
ENCODING 186
SWIDTH 372 0
DWIDTH 29 0
BBX 25 26 2 30
BITMAP
00FF8000
03FFE000
07FFF800
1FFFFC00
1F80FE00
3F007E00
3E003F00
7C001F00
7C001F00
7C000F80
7C000F80
78000F80
F8000F80
F8000F80
78000F80
7C000F80
7C000F80
7C001F00
7C001F00
3E003F00
3F007E00
1F80FC00
0FFFFC00
07FFF800
03FFE000
00FF8000
ENDCHAR
STARTCHAR 00BB
ENCODING 187
SWIDTH 501 0
DWIDTH 39 0
BBX 33 31 3 5
BITMAP
1C00380000
7E007C0000
FF00FE0000
7F007F0000
3F807F8000
1FC03F8000
0FE01FC000
0FF00FE000
07F807F000
03F807F800
01FC03FC00
00FE01FE00
00FF00FE00
007F807F00
003FC03F80
001FC03F80
003FC07F80
007F807F00
00FF00FE00
00FE01FE00
01FC03FC00
03F807F800
07F807F000
0FF00FE000
0FE01FC000
1FC03F8000
3F807F8000
7F00FF0000
FF00FE0000
7E007C0000
1C00380000
ENDCHAR
STARTCHAR 00BC
ENCODING 188
SWIDTH 732 0
DWIDTH 57 0
BBX 54 56 3 0
BITMAP
003E0000007E00
00FE000000FC00
01FE000001F800
07FE000001F800
0FFE000003F000
1FFE000003E000
7FBE000007E000
FF3E00000FC000
FC3E00000FC000
783E00001F8000
303E00001F0000
003E00003F0000
003E00007E0000
003E00007E0000
003E0000FC0000
003E0000F80000
003E0001F80000
003E0003F00000
003E0003F00000
003E0007E00000
003E000FC00000
003E000FC00000
003E001F800FC0
003E001F801FC0
003E003F003FC0
003E007E003FC0
003E007E007FC0
003E00FC00FFC0
003E00F800FFC0
003E01F801FFC0
003E03F003EFC0
003E03F003CFC0
003E07E007CFC0
003E07C00F8FC0
00000FC01F0FC0
00001F801F0FC0
00001F803E0FC0
00003F007C0FC0
00007E007C0FC0
00007E00F80FC0
0000FC01F00FC0
0000FC01F00FC0
0001F803E00FC0
0003F007C00FC0
0003F00FFFFFFC
0007E00FFFFFFC
0007C00FFFFFFC
000FC00FFFFFFC
001F800FFFFFFC
001F8000000FC0
003F0000000FC0
003E0000000FC0
007E0000000FC0
00FC0000000FC0
00FC0000000FC0
01F80000000FC0
ENDCHAR
STARTCHAR 00BD
ENCODING 189
SWIDTH 758 0
DWIDTH 59 0
BBX 55 56 2 0
BITMAP
003F000001F800
00FF000001F800
01FF000003F000
03FF000003E000
0FFF000007E000
1FFF00000FC000
7FBF00000FC000
FF3F00001F8000
FE3F00003F0000
783F00003F0000
303F00007E0000
003F00007C0000
003F0000FC0000
003F0001F80000
003F0001F80000
003F0003F00000
003F0003E00000
003F0007E00000
003F000FC00000
003F000FC00000
003F001F800000
003F001F000000
003F003F00FF00
003F007E07FFC0
003F007E1FFFF0
003F00FC3FFFF8
003F01F87FFFF8
003F01F83F01FC
003F03F01C00FC
003F03F010007C
003F07E000007E
003F0FC000007E
003F0FC000007E
003F1F8000007C
00001F0000007C
00003F000000FC
00007E000000F8
00007E000001F8
0000FC000003F0
0000F8000007E0
0001F800000FC0
0003F000001F80
0003F000003F00
0007E000007E00
000FC00000FC00
000FC00001F800
001F800003F000
001F800007E000
003F00000FC000
007E00001F8000
007E00003F0000
00FC00007FFFFE
00F800007FFFFE
01F800007FFFFE
03F000007FFFFE
03F000007FFFFE
ENDCHAR
STARTCHAR 00BE
ENCODING 190
SWIDTH 771 0
DWIDTH 60 0
BBX 59 56 1 0
BITMAP
03FF80000003F000
0FFFE0000003E000
3FFFF0000007E000
FFFFF800000FC000
7F83FC00000FC000
3C00FC00001F8000
10007E00003F0000
00007E00003F0000
00007E00007E0000
00007E00007C0000
00007E0000FC0000
00007C0001F80000
0000FC0001F80000
0003F80003F00000
07FFF00003E00000
07FFE00007E00000
07FF80000FC00000
07FFF0000FC00000
07FFF8001F800000
0001FC001F000000
00007E003F000000
00003E007E000000
00003F007E007C00
00003F00FC00FC00
00003F01F801FC00
00003F01F801FC00
00003F03F003FC00
80007E03E007FC00
E000FE07E00FFC00
FE03FC0FC00F7C00
FFFFFC0FC01F7C00
FFFFF81F803E7C00
7FFFE01F003C7C00
1FFF803F007CFC00
0000007E00F8FC00
0000007E00F0FC00
000000FC01F0FC00
000000F803E0FC00
000001F807C0FC00
000003F007C0FC00
000003F00F80FC00
000007E01F00FC00
00000FC01F00FC00
00000FC03E00FC00
00001F807FFFFFE0
00001F007FFFFFE0
00003F007FFFFFE0
00007E007FFFFFE0
00007E007FFFFFE0
0000FC000000FC00
0000F8000000FC00
0001F8000000FC00
0003F0000000FC00
0003F0000000FC00
0007E0000000FC00
0007C0000000FC00
ENDCHAR
STARTCHAR 00BF
ENCODING 191
SWIDTH 424 0
DWIDTH 33 0
BBX 30 57 2 -15
BITMAP
0001F800
0003FC00
0007FC00
0007FC00
0007FC00
0007FC00
0007FC00
0007FC00
0003F800
0001F000
00000000
00000000
00000000
00000000
00000000
00000000
0001F800
0001F800
0001F800
0001F800
0001F800
0001F800
0003F000
0003F000
0007F000
000FE000
001FE000
003FC000
007F8000
00FF0000
01FE0000
03FC0000
07F80000
0FF00000
1FE00000
3FC00000
7F800000
7F000000
7E000000
FE000000
FE000000
FC000000
FC000000
FC000000
FC000000
FE000000
FE000000
FF000000
7F000038
7FC000F8
3FF00FFC
3FFFFFFC
1FFFFFFC
0FFFFFFC
07FFFFF0
01FFFF80
003FF800
ENDCHAR
STARTCHAR 00C0
ENCODING 192
SWIDTH 630 0
DWIDTH 49 0
BBX 49 73 0 0
BITMAP
0001FE00000000
0001FF00000000
0000FF00000000
00007F80000000
00003FC0000000
00001FC0000000
00000FE0000000
000007F0000000
000003F0000000
000001F8000000
000000FC000000
0000007C000000
00000000000000
00000000000000
00000000000000
00000000000000
00000000000000
000003F0000000
000007F0000000
000007F8000000
00000FF8000000
00000FFC000000
00000FFC000000
00001FFC000000
00001FFE000000
00003F7E000000
00003F7F000000
00003F3F000000
00007F3F000000
00007E3F800000
00007E1F800000
0000FE1FC00000
0000FC1FC00000
0001FC0FC00000
0001FC0FE00000
0001F80FE00000
0003F807E00000
0003F807F00000
0007F007F00000
0007F003F80000
0007E003F80000
000FE001F80000
000FE001FC0000
001FC001FC0000
001FC000FE0000
001FC000FE0000
003F8000FE0000
003F80007F0000
003F00007F0000
007F00003F8000
007FFFFFFF8000
00FFFFFFFF8000
00FFFFFFFFC000
00FFFFFFFFC000
01FFFFFFFFC000
01FFFFFFFFE000
03F800000FE000
03F800000FF000
03F8000007F000
07F0000007F000
07F0000003F800
0FF0000003F800
0FE0000003FC00
0FE0000001FC00
1FC0000001FC00
1FC0000001FE00
1FC0000000FE00
3F80000000FE00
3F800000007F00
7F000000007F00
7F000000007F80
7F000000003F80
FE000000003F80
ENDCHAR
STARTCHAR 00C1
ENCODING 193
SWIDTH 630 0
DWIDTH 49 0
BBX 49 73 0 0
BITMAP
0000001FF00000
0000001FE00000
0000003FE00000
0000003FC00000
0000007F800000
000000FF000000
000000FE000000
000001FC000000
000001F8000000
000003F0000000
000007E0000000
000007C0000000
00000000000000
00000000000000
00000000000000
00000000000000
00000000000000
000003F0000000
000007F0000000
000007F8000000
00000FF8000000
00000FFC000000
00000FFC000000
00001FFC000000
00001FFE000000
00003F7E000000
00003F7F000000
00003F3F000000
00007F3F000000
00007E3F800000
00007E1F800000
0000FE1FC00000
0000FC1FC00000
0001FC0FC00000
0001FC0FE00000
0001F80FE00000
0003F807E00000
0003F807F00000
0007F007F00000
0007F003F80000
0007E003F80000
000FE001F80000
000FE001FC0000
001FC001FC0000
001FC000FE0000
001FC000FE0000
003F8000FE0000
003F80007F0000
003F00007F0000
007F00003F8000
007FFFFFFF8000
00FFFFFFFF8000
00FFFFFFFFC000
00FFFFFFFFC000
01FFFFFFFFC000
01FFFFFFFFE000
03F800000FE000
03F800000FF000
03F8000007F000
07F0000007F000
07F0000003F800
0FF0000003F800
0FE0000003FC00
0FE0000001FC00
1FC0000001FC00
1FC0000001FE00
1FC0000000FE00
3F80000000FE00
3F800000007F00
7F000000007F00
7F000000007F80
7F000000003F80
FE000000003F80
ENDCHAR
STARTCHAR 00C2
ENCODING 194
SWIDTH 630 0
DWIDTH 49 0
BBX 49 73 0 0
BITMAP
000007F8000000
00000FF8000000
00001FFC000000
00003FFE000000
00003FFF000000
00007F7F800000
0000FE3F800000
0001FC1FC00000
0003F80FE00000
0007F007F00000
000FC001F80000
000F8000FC0000
00000000000000
00000000000000
00000000000000
00000000000000
00000000000000
000003F0000000
000007F0000000
000007F8000000
00000FF8000000
00000FFC000000
00000FFC000000
00001FFC000000
00001FFE000000
00003F7E000000
00003F7F000000
00003F3F000000
00007F3F000000
00007E3F800000
00007E1F800000
0000FE1FC00000
0000FC1FC00000
0001FC0FC00000
0001FC0FE00000
0001F80FE00000
0003F807E00000
0003F807F00000
0007F007F00000
0007F003F80000
0007E003F80000
000FE001F80000
000FE001FC0000
001FC001FC0000
001FC000FE0000
001FC000FE0000
003F8000FE0000
003F80007F0000
003F00007F0000
007F00003F8000
007FFFFFFF8000
00FFFFFFFF8000
00FFFFFFFFC000
00FFFFFFFFC000
01FFFFFFFFC000
01FFFFFFFFE000
03F800000FE000
03F800000FF000
03F8000007F000
07F0000007F000
07F0000003F800
0FF0000003F800
0FE0000003FC00
0FE0000001FC00
1FC0000001FC00
1FC0000001FE00
1FC0000000FE00
3F80000000FE00
3F800000007F00
7F000000007F00
7F000000007F80
7F000000003F80
FE000000003F80
ENDCHAR
STARTCHAR 00C3
ENCODING 195
SWIDTH 630 0
DWIDTH 49 0
BBX 49 71 0 0
BITMAP
0000FC001E0000
0003FF001E0000
0007FFC03E0000
0007FFF03C0000
000FFFFFFC0000
000FFFFFFC0000
001F03FFF80000
001E00FFF00000
001E003FE00000
001E000F800000
00000000000000
00000000000000
00000000000000
00000000000000
00000000000000
000003F0000000
000007F0000000
000007F8000000
00000FF8000000
00000FFC000000
00000FFC000000
00001FFC000000
00001FFE000000
00003F7E000000
00003F7F000000
00003F3F000000
00007F3F000000
00007E3F800000
00007E1F800000
0000FE1FC00000
0000FC1FC00000
0001FC0FC00000
0001FC0FE00000
0001F80FE00000
0003F807E00000
0003F807F00000
0007F007F00000
0007F003F80000
0007E003F80000
000FE001F80000
000FE001FC0000
001FC001FC0000
001FC000FE0000
001FC000FE0000
003F8000FE0000
003F80007F0000
003F00007F0000
007F00003F8000
007FFFFFFF8000
00FFFFFFFF8000
00FFFFFFFFC000
00FFFFFFFFC000
01FFFFFFFFC000
01FFFFFFFFE000
03F800000FE000
03F800000FF000
03F8000007F000
07F0000007F000
07F0000003F800
0FF0000003F800
0FE0000003FC00
0FE0000001FC00
1FC0000001FC00
1FC0000001FE00
1FC0000000FE00
3F80000000FE00
3F800000007F00
7F000000007F00
7F000000007F80
7F000000003F80
FE000000003F80
ENDCHAR
STARTCHAR 00C4
ENCODING 196
SWIDTH 630 0
DWIDTH 49 0
BBX 49 71 0 0
BITMAP
0000E001800000
0001F007E00000
0003F807E00000
0003F80FF00000
0003F80FF00000
0003F807F00000
0003F807E00000
0001F003C00000
00000000000000
00000000000000
00000000000000
00000000000000
00000000000000
00000000000000
00000000000000
000003F0000000
000007F0000000
000007F8000000
00000FF8000000
00000FFC000000
00000FFC000000
00001FFC000000
00001FFE000000
00003F7E000000
00003F7F000000
00003F3F000000
00007F3F000000
00007E3F800000
00007E1F800000
0000FE1FC00000
0000FC1FC00000
0001FC0FC00000
0001FC0FE00000
0001F80FE00000
0003F807E00000
0003F807F00000
0007F007F00000
0007F003F80000
0007E003F80000
000FE001F80000
000FE001FC0000
001FC001FC0000
001FC000FE0000
001FC000FE0000
003F8000FE0000
003F80007F0000
003F00007F0000
007F00003F8000
007FFFFFFF8000
00FFFFFFFF8000
00FFFFFFFFC000
00FFFFFFFFC000
01FFFFFFFFC000
01FFFFFFFFE000
03F800000FE000
03F800000FF000
03F8000007F000
07F0000007F000
07F0000003F800
0FF0000003F800
0FE0000003FC00
0FE0000001FC00
1FC0000001FC00
1FC0000001FE00
1FC0000000FE00
3F80000000FE00
3F800000007F00
7F000000007F00
7F000000007F80
7F000000003F80
FE000000003F80
ENDCHAR
STARTCHAR 00C5
ENCODING 197
SWIDTH 630 0
DWIDTH 49 0
BBX 49 68 0 0
BITMAP
000007F8000000
00001FFC000000
00003FFE000000
00007FFF000000
00007C0F800000
0000F80F800000
0000F007800000
0000F007800000
0000F007800000
0000F807800000
0000F80F800000
00007C1F800000
00007FFF000000
00003FFE000000
00001FFC000000
00000FF8000000
00000FFC000000
00000FFC000000
00001FFC000000
00001FFE000000
00003F7E000000
00003F7F000000
00003F3F000000
00007F3F000000
00007E3F800000
00007E1F800000
0000FE1FC00000
0000FC1FC00000
0001FC0FC00000
0001FC0FE00000
0001F80FE00000
0003F807E00000
0003F807F00000
0007F007F00000
0007F003F80000
0007E003F80000
000FE001F80000
000FE001FC0000
001FC001FC0000
001FC000FE0000
001FC000FE0000
003F8000FE0000
003F80007F0000
003F00007F0000
007F00003F8000
007FFFFFFF8000
00FFFFFFFF8000
00FFFFFFFFC000
00FFFFFFFFC000
01FFFFFFFFC000
01FFFFFFFFE000
03F800000FE000
03F800000FF000
03F8000007F000
07F0000007F000
07F0000003F800
0FF0000003F800
0FE0000003FC00
0FE0000001FC00
1FC0000001FC00
1FC0000001FE00
1FC0000000FE00
3F80000000FE00
3F800000007F00
7F000000007F00
7F000000007F80
7F000000003F80
FE000000003F80
ENDCHAR
STARTCHAR 00C6
ENCODING 198
SWIDTH 874 0
DWIDTH 68 0
BBX 64 56 0 0
BITMAP
0000003FFFFFFFFF
0000003FFFFFFFFF
0000007FFFFFFFFF
0000007FFFFFFFFF
000000FFFFFFFFFF
000000FFFFFFFFFF
000001FFFFFFFFFF
000001FC1FC00000
000003FC1FC00000
000003F81FC00000
000003F81FC00000
000007F01FC00000
000007F01FC00000
00000FE01FC00000
00000FE01FC00000
00001FC01FC00000
00001FC01FC00000
00003F801FC00000
00003F801FC00000
00007F001FC00000
00007F001FC00000
0000FE001FC00000
0000FE001FC00000
0001FE001FC00000
0001FC001FFFFFFC
0003FC001FFFFFFC
0003F8001FFFFFFC
0007F8001FFFFFFC
0007F0001FFFFFFC
000FF0001FFFFFFC
000FE0001FC00000
000FE0001FC00000
001FC0001FC00000
001FFFFFFFC00000
003FFFFFFFC00000
003FFFFFFFC00000
007FFFFFFFC00000
007FFFFFFFC00000
00FFFFFFFFC00000
00FE00001FC00000
01FE00001FC00000
01FC00001FC00000
03FC00001FC00000
03F800001FC00000
07F800001FC00000
07F000001FC00000
0FF000001FC00000
0FE000001FC00000
1FE000001FC00000
1FC000001FC00000
1FC000001FFFFFFF
3F8000001FFFFFFF
3F8000001FFFFFFF
7F0000001FFFFFFF
7F0000001FFFFFFF
FE0000001FFFFFFF
ENDCHAR
STARTCHAR 00C7
ENCODING 199
SWIDTH 630 0
DWIDTH 49 0
BBX 41 75 5 -19
BITMAP
00001FFFE000
0000FFFFFC00
0007FFFFFF80
000FFFFFFF80
003FFFFFFF80
007FFFFFFF80
00FFF800FF00
01FFC0001F00
03FF00000200
07FE00000000
0FFC00000000
0FF800000000
1FF000000000
1FE000000000
3FC000000000
3FC000000000
3F8000000000
7F8000000000
7F8000000000
7F0000000000
FF0000000000
FF0000000000
FF0000000000
FE0000000000
FE0000000000
FE0000000000
FE0000000000
FE0000000000
FE0000000000
FE0000000000
FE0000000000
FE0000000000
FE0000000000
FE0000000000
FF0000000000
FF0000000000
FF0000000000
7F0000000000
7F8000000000
7F8000000000
7F8000000000
3FC000000000
3FC000000000
1FE000000000
1FF000000000
0FF800000000
0FFC00000000
07FE00000000
03FF80000100
01FFE0000F00
01FFFF87FF00
007FFFFFFF00
003FFFFFFF00
001FFFFFFF00
0007FFFFFF00
0000FFFFF800
00000FFE0000
000003C00000
000007C00000
000007800000
00000FC00000
00000FF80000
00001FFC0000
000001FE0000
0000007E0000
0000003F0000
0000003F0000
0000003F0000
0000003F0000
0000007E0000
0000FFFE0000
0000FFFC0000
0000FFF80000
0000FFE00000
00001E000000
ENDCHAR
STARTCHAR 00C8
ENCODING 200
SWIDTH 552 0
DWIDTH 43 0
BBX 31 73 8 0
BITMAP
03FC0000
03FE0000
01FE0000
00FF0000
007F8000
003F8000
001FC000
000FE000
0007E000
0003F000
0001F800
0000F800
00000000
00000000
00000000
00000000
00000000
FFFFFFFE
FFFFFFFE
FFFFFFFE
FFFFFFFE
FFFFFFFE
FFFFFFFE
FFFFFFFE
FE000000
FE000000
FE000000
FE000000
FE000000
FE000000
FE000000
FE000000
FE000000
FE000000
FE000000
FE000000
FE000000
FE000000
FE000000
FE000000
FE000000
FFFFFFF8
FFFFFFF8
FFFFFFF8
FFFFFFF8
FFFFFFF8
FFFFFFF8
FE000000
FE000000
FE000000
FE000000
FE000000
FE000000
FE000000
FE000000
FE000000
FE000000
FE000000
FE000000
FE000000
FE000000
FE000000
FE000000
FE000000
FE000000
FE000000
FE000000
FFFFFFFE
FFFFFFFE
FFFFFFFE
FFFFFFFE
FFFFFFFE
FFFFFFFE
ENDCHAR
STARTCHAR 00C9
ENCODING 201
SWIDTH 552 0
DWIDTH 43 0
BBX 31 73 8 0
BITMAP
00003FE0
00003FC0
00007FC0
00007F80
0000FF00
0001FE00
0001FC00
0003F800
0007F000
0007E000
000FC000
000F8000
00000000
00000000
00000000
00000000
00000000
FFFFFFFE
FFFFFFFE
FFFFFFFE
FFFFFFFE
FFFFFFFE
FFFFFFFE
FFFFFFFE
FE000000
FE000000
FE000000
FE000000
FE000000
FE000000
FE000000
FE000000
FE000000
FE000000
FE000000
FE000000
FE000000
FE000000
FE000000
FE000000
FE000000
FFFFFFF8
FFFFFFF8
FFFFFFF8
FFFFFFF8
FFFFFFF8
FFFFFFF8
FE000000
FE000000
FE000000
FE000000
FE000000
FE000000
FE000000
FE000000
FE000000
FE000000
FE000000
FE000000
FE000000
FE000000
FE000000
FE000000
FE000000
FE000000
FE000000
FE000000
FFFFFFFE
FFFFFFFE
FFFFFFFE
FFFFFFFE
FFFFFFFE
FFFFFFFE
ENDCHAR
STARTCHAR 00CA
ENCODING 202
SWIDTH 552 0
DWIDTH 43 0
BBX 31 73 8 0
BITMAP
000FF000
001FF000
003FF800
007FFC00
007FFE00
00FEFF00
01FC7F00
03F83F80
07F01FC0
0FE00FE0
1F8003F0
1F0001F8
00000000
00000000
00000000
00000000
00000000
FFFFFFFE
FFFFFFFE
FFFFFFFE
FFFFFFFE
FFFFFFFE
FFFFFFFE
FFFFFFFE
FE000000
FE000000
FE000000
FE000000
FE000000
FE000000
FE000000
FE000000
FE000000
FE000000
FE000000
FE000000
FE000000
FE000000
FE000000
FE000000
FE000000
FFFFFFF8
FFFFFFF8
FFFFFFF8
FFFFFFF8
FFFFFFF8
FFFFFFF8
FE000000
FE000000
FE000000
FE000000
FE000000
FE000000
FE000000
FE000000
FE000000
FE000000
FE000000
FE000000
FE000000
FE000000
FE000000
FE000000
FE000000
FE000000
FE000000
FE000000
FFFFFFFE
FFFFFFFE
FFFFFFFE
FFFFFFFE
FFFFFFFE
FFFFFFFE
ENDCHAR
STARTCHAR 00CB
ENCODING 203
SWIDTH 552 0
DWIDTH 43 0
BBX 31 71 8 0
BITMAP
01C00300
03E00FC0
07F00FC0
07F01FE0
07F01FE0
07F00FE0
07F00FC0
03E00780
00000000
00000000
00000000
00000000
00000000
00000000
00000000
FFFFFFFE
FFFFFFFE
FFFFFFFE
FFFFFFFE
FFFFFFFE
FFFFFFFE
FFFFFFFE
FE000000
FE000000
FE000000
FE000000
FE000000
FE000000
FE000000
FE000000
FE000000
FE000000
FE000000
FE000000
FE000000
FE000000
FE000000
FE000000
FE000000
FFFFFFF8
FFFFFFF8
FFFFFFF8
FFFFFFF8
FFFFFFF8
FFFFFFF8
FE000000
FE000000
FE000000
FE000000
FE000000
FE000000
FE000000
FE000000
FE000000
FE000000
FE000000
FE000000
FE000000
FE000000
FE000000
FE000000
FE000000
FE000000
FE000000
FE000000
FFFFFFFE
FFFFFFFE
FFFFFFFE
FFFFFFFE
FFFFFFFE
FFFFFFFE
ENDCHAR
STARTCHAR 00CC
ENCODING 204
SWIDTH 334 0
DWIDTH 26 0
BBX 20 73 3 0
BITMAP
FF8000
7F8000
3FC000
1FC000
1FE000
0FF000
07F000
03F800
01FC00
00FE00
007E00
003F00
000000
000000
000000
000000
000000
FFFFF0
FFFFF0
FFFFF0
FFFFF0
FFFFF0
0FFF00
01FC00
01FC00
01FC00
01FC00
01FC00
01FC00
01FC00
01FC00
01FC00
01FC00
01FC00
01FC00
01FC00
01FC00
01FC00
01FC00
01FC00
01FC00
01FC00
01FC00
01FC00
01FC00
01FC00
01FC00
01FC00
01FC00
01FC00
01FC00
01FC00
01FC00
01FC00
01FC00
01FC00
01FC00
01FC00
01FC00
01FC00
01FC00
01FC00
01FC00
01FC00
01FC00
01FC00
01FC00
01FC00
3FFFC0
FFFFF0
FFFFF0
FFFFF0
FFFFF0
ENDCHAR
STARTCHAR 00CD
ENCODING 205
SWIDTH 334 0
DWIDTH 26 0
BBX 22 73 3 0
BITMAP
0007FC
000FF8
000FF0
001FE0
001FC0
003F80
007F80
007F00
00FE00
01FC00
01F000
03E000
000000
000000
000000
000000
000000
FFFFF0
FFFFF0
FFFFF0
FFFFF0
FFFFF0
0FFF00
01FC00
01FC00
01FC00
01FC00
01FC00
01FC00
01FC00
01FC00
01FC00
01FC00
01FC00
01FC00
01FC00
01FC00
01FC00
01FC00
01FC00
01FC00
01FC00
01FC00
01FC00
01FC00
01FC00
01FC00
01FC00
01FC00
01FC00
01FC00
01FC00
01FC00
01FC00
01FC00
01FC00
01FC00
01FC00
01FC00
01FC00
01FC00
01FC00
01FC00
01FC00
01FC00
01FC00
01FC00
01FC00
3FFFC0
FFFFF0
FFFFF0
FFFFF0
FFFFF0
ENDCHAR
STARTCHAR 00CE
ENCODING 206
SWIDTH 334 0
DWIDTH 26 0
BBX 26 73 0 0
BITMAP
007F8000
00FFC000
00FFE000
01FFE000
03FFF000
07FBF800
0FF1FC00
1FE0FE00
1F807F00
3F003F80
7E001FC0
FC0007C0
00000000
00000000
00000000
00000000
00000000
1FFFFE00
1FFFFE00
1FFFFE00
1FFFFE00
1FFFFE00
01FFE000
003F8000
003F8000
003F8000
003F8000
003F8000
003F8000
003F8000
003F8000
003F8000
003F8000
003F8000
003F8000
003F8000
003F8000
003F8000
003F8000
003F8000
003F8000
003F8000
003F8000
003F8000
003F8000
003F8000
003F8000
003F8000
003F8000
003F8000
003F8000
003F8000
003F8000
003F8000
003F8000
003F8000
003F8000
003F8000
003F8000
003F8000
003F8000
003F8000
003F8000
003F8000
003F8000
003F8000
003F8000
003F8000
07FFF800
1FFFFE00
1FFFFE00
1FFFFE00
1FFFFE00
ENDCHAR
STARTCHAR 00CF
ENCODING 207
SWIDTH 334 0
DWIDTH 26 0
BBX 22 71 2 0
BITMAP
180020
7E00F8
7E01FC
FF01FC
FF01FC
FE01FC
7E00FC
3C00F8
000000
000000
000000
000000
000000
000000
000000
7FFFF8
7FFFF8
7FFFF8
7FFFF8
7FFFF8
07FF80
00FE00
00FE00
00FE00
00FE00
00FE00
00FE00
00FE00
00FE00
00FE00
00FE00
00FE00
00FE00
00FE00
00FE00
00FE00
00FE00
00FE00
00FE00
00FE00
00FE00
00FE00
00FE00
00FE00
00FE00
00FE00
00FE00
00FE00
00FE00
00FE00
00FE00
00FE00
00FE00
00FE00
00FE00
00FE00
00FE00
00FE00
00FE00
00FE00
00FE00
00FE00
00FE00
00FE00
00FE00
00FE00
1FFFE0
7FFFF8
7FFFF8
7FFFF8
7FFFF8
ENDCHAR
STARTCHAR 00D0
ENCODING 208
SWIDTH 720 0
DWIDTH 56 0
BBX 50 56 2 0
BITMAP
03FFFE00000000
03FFFFFF000000
03FFFFFFE00000
03FFFFFFF80000
03FFFFFFFE0000
03FFFFFFFF0000
03F803FFFFC000
03F80003FFE000
03F80000FFF000
03F800003FF000
03F800000FF800
03F8000007FC00
03F8000003FE00
03F8000001FE00
03F8000001FF00
03F8000000FF00
03F80000007F00
03F80000007F80
03F80000007F80
03F80000003F80
03F80000003F80
03F80000003FC0
03F80000003FC0
03F80000003FC0
03F80000003FC0
03F80000001FC0
FFFFFFE0001FC0
FFFFFFE0001FC0
FFFFFFE0001FC0
FFFFFFE0001FC0
FFFFFFE0001FC0
FFFFFFE0003FC0
03F80000003FC0
03F80000003FC0
03F80000003FC0
03F80000003F80
03F80000003F80
03F80000007F80
03F80000007F80
03F8000000FF00
03F8000000FF00
03F8000001FF00
03F8000001FE00
03F8000003FE00
03F8000007FC00
03F800000FF800
03F800003FF800
03F800007FF000
03F80003FFE000
03F8003FFFC000
03FFFFFFFF0000
03FFFFFFFE0000
03FFFFFFF80000
03FFFFFFE00000
03FFFFFF000000
03FFFFF0000000
ENDCHAR
STARTCHAR 00D1
ENCODING 209
SWIDTH 758 0
DWIDTH 59 0
BBX 44 71 8 0
BITMAP
0007E000F000
001FF801F000
003FFE01E000
007FFF03E000
007FFFFFE000
00FFFFFFC000
00F81FFFC000
00F007FF8000
00F003FF0000
01E0007C0000
000000000000
000000000000
000000000000
000000000000
000000000000
FF00000007F0
FF00000007F0
FF80000007F0
FFC0000007F0
FFC0000007F0
FFE0000007F0
FFF0000007F0
FFF0000007F0
FFF8000007F0
FFF8000007F0
FBFC000007F0
F9FE000007F0
FDFE000007F0
FCFF000007F0
FC7F800007F0
FC7F800007F0
FC3FC00007F0
FC1FE00007F0
FC1FE00007F0
FC0FF00007F0
FC07F80007F0
FC07F80007F0
FC03FC0007F0
FC03FC0007F0
FC01FE0007F0
FC00FF0007F0
FC00FF0007F0
FC007F8007F0
FC003FC007F0
FC003FC007F0
FC001FE007F0
FC000FF007F0
FC000FF007F0
FC0007F807F0
FC0003FC07F0
FC0003FC07F0
FC0001FE07F0
FC0001FF07F0
FC0000FF07F0
FC00007F87F0
FC00007F87F0
FC00003FC7F0
FC00001FE7F0
FC00001FE7F0
FC00000FF7F0
FC000007FBF0
FC000007FFF0
FC000003FFF0
FC000001FFF0
FC000001FFF0
FC000000FFF0
FC000000FFF0
FC0000007FF0
FC0000003FF0
FC0000003FF0
FC0000001FF0
ENDCHAR
STARTCHAR 00D2
ENCODING 210
SWIDTH 771 0
DWIDTH 60 0
BBX 51 74 5 -1
BITMAP
0001FF00000000
0000FF00000000
00007F80000000
00003FC0000000
00001FC0000000
00001FE0000000
00000FF0000000
000007F0000000
000003F8000000
000001FC000000
0000007C000000
0000003E000000
00000000000000
00000000000000
00000000000000
00000000000000
00000000000000
00003FFF800000
0003FFFFF00000
000FFFFFFC0000
001FFFFFFF0000
007FFFFFFF8000
00FFFFFFFFE000
01FFE001FFF000
03FF80003FF800
07FE00000FF800
07FC000007FC00
0FF8000003FE00
1FF0000001FE00
1FE0000000FF00
3FC0000000FF00
3FC00000007F80
3F800000007F80
7F800000003F80
7F800000003FC0
7F000000003FC0
7F000000001FC0
FF000000001FC0
FF000000001FE0
FE000000001FE0
FE000000001FE0
FE000000001FE0
FE000000000FE0
FE000000000FE0
FE000000000FE0
FE000000000FE0
FE000000000FE0
FE000000000FE0
FE000000001FE0
FE000000001FE0
FE000000001FE0
FF000000001FE0
FF000000001FC0
FF000000001FC0
7F000000001FC0
7F800000003FC0
7F800000003F80
3F800000003F80
3FC00000007F80
3FC00000007F00
1FE0000000FF00
1FE0000001FE00
0FF0000001FE00
0FF8000003FC00
07FC000007FC00
03FF00001FF800
01FFC0007FF000
00FFFE0FFFE000
007FFFFFFFC000
003FFFFFFF8000
000FFFFFFE0000
0007FFFFF80000
0000FFFFC00000
000007FC000000
ENDCHAR
STARTCHAR 00D3
ENCODING 211
SWIDTH 771 0
DWIDTH 60 0
BBX 51 74 5 -1
BITMAP
0000000FF80000
0000000FF00000
0000001FE00000
0000003FC00000
0000003FC00000
0000007F800000
0000007F000000
000000FE000000
000001FC000000
000003F8000000
000003F0000000
000007C0000000
00000000000000
00000000000000
00000000000000
00000000000000
00000000000000
00003FFF800000
0003FFFFF00000
000FFFFFFC0000
001FFFFFFF0000
007FFFFFFF8000
00FFFFFFFFE000
01FFE001FFF000
03FF80003FF800
07FE00000FF800
07FC000007FC00
0FF8000003FE00
1FF0000001FE00
1FE0000000FF00
3FC0000000FF00
3FC00000007F80
3F800000007F80
7F800000003F80
7F800000003FC0
7F000000003FC0
7F000000001FC0
FF000000001FC0
FF000000001FE0
FE000000001FE0
FE000000001FE0
FE000000001FE0
FE000000000FE0
FE000000000FE0
FE000000000FE0
FE000000000FE0
FE000000000FE0
FE000000000FE0
FE000000001FE0
FE000000001FE0
FE000000001FE0
FF000000001FE0
FF000000001FC0
FF000000001FC0
7F000000001FC0
7F800000003FC0
7F800000003F80
3F800000003F80
3FC00000007F80
3FC00000007F00
1FE0000000FF00
1FE0000001FE00
0FF0000001FE00
0FF8000003FC00
07FC000007FC00
03FF00001FF800
01FFC0007FF000
00FFFE0FFFE000
007FFFFFFFC000
003FFFFFFF8000
000FFFFFFE0000
0007FFFFF80000
0000FFFFC00000
000007FC000000
ENDCHAR
STARTCHAR 00D4
ENCODING 212
SWIDTH 771 0
DWIDTH 60 0
BBX 51 74 5 -1
BITMAP
000007F8000000
000007FC000000
00000FFE000000
00001FFF000000
00003FFF000000
00007FBF800000
00007F1FC00000
0000FE0FE00000
0001FC07F00000
0003F003F80000
0007E001FC0000
000FC0007E0000
00000000000000
00000000000000
00000000000000
00000000000000
00000000000000
00003FFF800000
0003FFFFF00000
000FFFFFFC0000
001FFFFFFF0000
007FFFFFFF8000
00FFFFFFFFE000
01FFE001FFF000
03FF80003FF800
07FE00000FF800
07FC000007FC00
0FF8000003FE00
1FF0000001FE00
1FE0000000FF00
3FC0000000FF00
3FC00000007F80
3F800000007F80
7F800000003F80
7F800000003FC0
7F000000003FC0
7F000000001FC0
FF000000001FC0
FF000000001FE0
FE000000001FE0
FE000000001FE0
FE000000001FE0
FE000000000FE0
FE000000000FE0
FE000000000FE0
FE000000000FE0
FE000000000FE0
FE000000000FE0
FE000000001FE0
FE000000001FE0
FE000000001FE0
FF000000001FE0
FF000000001FC0
FF000000001FC0
7F000000001FC0
7F800000003FC0
7F800000003F80
3F800000003F80
3FC00000007F80
3FC00000007F00
1FE0000000FF00
1FE0000001FE00
0FF0000001FE00
0FF8000003FC00
07FC000007FC00
03FF00001FF800
01FFC0007FF000
00FFFE0FFFE000
007FFFFFFFC000
003FFFFFFF8000
000FFFFFFE0000
0007FFFFF80000
0000FFFFC00000
000007FC000000
ENDCHAR
STARTCHAR 00D5
ENCODING 213
SWIDTH 771 0
DWIDTH 60 0
BBX 51 72 5 -1
BITMAP
00007C000F0000
0001FF801F0000
0003FFC01E0000
0007FFF03E0000
0007FFFFFE0000
000FFFFFFC0000
000F81FFFC0000
000F00FFF80000
001F003FF00000
001E0007C00000
00000000000000
00000000000000
00000000000000
00000000000000
00000000000000
00003FFF800000
0003FFFFF00000
000FFFFFFC0000
001FFFFFFF0000
007FFFFFFF8000
00FFFFFFFFE000
01FFE001FFF000
03FF80003FF800
07FE00000FF800
07FC000007FC00
0FF8000003FE00
1FF0000001FE00
1FE0000000FF00
3FC0000000FF00
3FC00000007F80
3F800000007F80
7F800000003F80
7F800000003FC0
7F000000003FC0
7F000000001FC0
FF000000001FC0
FF000000001FE0
FE000000001FE0
FE000000001FE0
FE000000001FE0
FE000000000FE0
FE000000000FE0
FE000000000FE0
FE000000000FE0
FE000000000FE0
FE000000000FE0
FE000000001FE0
FE000000001FE0
FE000000001FE0
FF000000001FE0
FF000000001FC0
FF000000001FC0
7F000000001FC0
7F800000003FC0
7F800000003F80
3F800000003F80
3FC00000007F80
3FC00000007F00
1FE0000000FF00
1FE0000001FE00
0FF0000001FE00
0FF8000003FC00
07FC000007FC00
03FF00001FF800
01FFC0007FF000
00FFFE0FFFE000
007FFFFFFFC000
003FFFFFFF8000
000FFFFFFE0000
0007FFFFF80000
0000FFFFC00000
000007FC000000
ENDCHAR
STARTCHAR 00D6
ENCODING 214
SWIDTH 771 0
DWIDTH 60 0
BBX 51 72 5 -1
BITMAP
00006000C00000
0001F803F00000
0001FC07F00000
0001FC07F00000
0001FC07F00000
0001FC07F00000
0001F803F00000
0000F001E00000
00000000000000
00000000000000
00000000000000
00000000000000
00000000000000
00000000000000
00000000000000
00003FFF800000
0003FFFFF00000
000FFFFFFC0000
001FFFFFFF0000
007FFFFFFF8000
00FFFFFFFFE000
01FFE001FFF000
03FF80003FF800
07FE00000FF800
07FC000007FC00
0FF8000003FE00
1FF0000001FE00
1FE0000000FF00
3FC0000000FF00
3FC00000007F80
3F800000007F80
7F800000003F80
7F800000003FC0
7F000000003FC0
7F000000001FC0
FF000000001FC0
FF000000001FE0
FE000000001FE0
FE000000001FE0
FE000000001FE0
FE000000000FE0
FE000000000FE0
FE000000000FE0
FE000000000FE0
FE000000000FE0
FE000000000FE0
FE000000001FE0
FE000000001FE0
FE000000001FE0
FF000000001FE0
FF000000001FC0
FF000000001FC0
7F000000001FC0
7F800000003FC0
7F800000003F80
3F800000003F80
3FC00000007F80
3FC00000007F00
1FE0000000FF00
1FE0000001FE00
0FF0000001FE00
0FF8000003FC00
07FC000007FC00
03FF00001FF800
01FFC0007FF000
00FFFE0FFFE000
007FFFFFFFC000
003FFFFFFF8000
000FFFFFFE0000
0007FFFFF80000
0000FFFFC00000
000007FC000000
ENDCHAR
STARTCHAR 00D7
ENCODING 215
SWIDTH 565 0
DWIDTH 44 0
BBX 34 35 5 10
BITMAP
0000000200
1800000700
3C00000F80
7E00001FC0
FF00003FC0
7F80007F80
3FC000FF00
1FE001FE00
0FF003FC00
07F807F800
03FC0FF000
01FE1FE000
00FF3FC000
007FFF8000
003FFF0000
001FFE0000
000FFC0000
0007F80000
000FFC0000
001FFE0000
003FFF0000
007FFF8000
00FF3FC000
01FE1FE000
03FC0FF000
07F807F800
0FF003FC00
1FE001FE00
3FC000FF00
7F80007F80
FF00003FC0
7E00001FC0
3C00000F80
1800000700
0000000200
ENDCHAR
STARTCHAR 00D8
ENCODING 216
SWIDTH 771 0
DWIDTH 60 0
BBX 51 60 5 -2
BITMAP
00000000001000
00000000003800
00003FFF807E00
0003FFFFF0FE00
000FFFFFFCFE00
001FFFFFFFFC00
007FFFFFFFF800
00FFFFFFFFF800
01FFE001FFF000
03FF80003FF000
07FE00000FF800
07FC00001FFC00
0FF800003FFE00
1FF000007FFE00
1FE000007FFF00
3FC00000FEFF00
3FC00001FC7F80
3F800001F87F80
7F800003F83F80
7F800007F03FC0
7F000007E03FC0
7F00000FE01FC0
FF00001FC01FC0
FF00003F801FE0
FE00003F801FE0
FE00007F001FE0
FE0000FE001FE0
FE0000FC000FE0
FE0001FC000FE0
FE0003F8000FE0
FE0007F0000FE0
FE0007F0000FE0
FE000FE0000FE0
FE001FC0001FE0
FE001FC0001FE0
FE003F80001FE0
FF007F00001FE0
FF00FE00001FC0
FF00FE00001FC0
7F01FC00001FC0
7F03F800003FC0
7F83F800003F80
3F87F000003F80
3FCFE000007F80
3FCFC000007F00
1FFFC00000FF00
1FFF800001FE00
0FFF000001FE00
0FFF000003FC00
07FE000007FC00
03FF00001FF800
01FFC0007FF000
03FFFC0FFFE000
07FFFFFFFFC000
07FFFFFFFF8000
0FEFFFFFFE0000
1FC7FFFFF80000
1F80FFFFC00000
0F8007FC000000
03000000000000
ENDCHAR
STARTCHAR 00D9
ENCODING 217
SWIDTH 720 0
DWIDTH 56 0
BBX 43 74 7 -1
BITMAP
001FF0000000
000FF8000000
0007F8000000
0003FC000000
0001FC000000
0000FE000000
0000FF000000
00007F000000
00003F800000
00001FC00000
000007E00000
000003E00000
000000000000
000000000000
000000000000
000000000000
000000000000
FE0000000FE0
FE0000000FE0
FE0000000FE0
FE0000000FE0
FE0000000FE0
FE0000000FE0
FE0000000FE0
FE0000000FE0
FE0000000FE0
FE0000000FE0
FE0000000FE0
FE0000000FE0
FE0000000FE0
FE0000000FE0
FE0000000FE0
FE0000000FE0
FE0000000FE0
FE0000000FE0
FE0000000FE0
FE0000000FE0
FE0000000FE0
FE0000000FE0
FE0000000FE0
FE0000000FE0
FE0000000FE0
FE0000000FE0
FE0000000FE0
FE0000000FE0
FE0000000FE0
FE0000000FE0
FE0000000FE0
FE0000000FE0
FE0000000FE0
FE0000000FE0
FE0000000FE0
FE0000000FE0
FE0000000FE0
FE0000000FE0
FE0000000FE0
FE0000000FE0
FE0000001FC0
FF0000001FC0
7F0000001FC0
7F0000003FC0
7F8000003F80
3F8000007F80
3FC000007F80
1FE00000FF00
1FF00003FE00
0FFC0007FE00
07FFE0FFFC00
03FFFFFFF800
01FFFFFFF000
00FFFFFFC000
003FFFFF8000
000FFFFC0000
00007FC00000
ENDCHAR
STARTCHAR 00DA
ENCODING 218
SWIDTH 720 0
DWIDTH 56 0
BBX 43 74 7 -1
BITMAP
000000FF8000
000000FF0000
000001FE0000
000003FE0000
000003FC0000
000007F80000
000007F00000
00000FE00000
00001FC00000
00001F800000
00003F000000
00007E000000
000000000000
000000000000
000000000000
000000000000
000000000000
FE0000000FE0
FE0000000FE0
FE0000000FE0
FE0000000FE0
FE0000000FE0
FE0000000FE0
FE0000000FE0
FE0000000FE0
FE0000000FE0
FE0000000FE0
FE0000000FE0
FE0000000FE0
FE0000000FE0
FE0000000FE0
FE0000000FE0
FE0000000FE0
FE0000000FE0
FE0000000FE0
FE0000000FE0
FE0000000FE0
FE0000000FE0
FE0000000FE0
FE0000000FE0
FE0000000FE0
FE0000000FE0
FE0000000FE0
FE0000000FE0
FE0000000FE0
FE0000000FE0
FE0000000FE0
FE0000000FE0
FE0000000FE0
FE0000000FE0
FE0000000FE0
FE0000000FE0
FE0000000FE0
FE0000000FE0
FE0000000FE0
FE0000000FE0
FE0000000FE0
FE0000001FC0
FF0000001FC0
7F0000001FC0
7F0000003FC0
7F8000003F80
3F8000007F80
3FC000007F80
1FE00000FF00
1FF00003FE00
0FFC0007FE00
07FFE0FFFC00
03FFFFFFF800
01FFFFFFF000
00FFFFFFC000
003FFFFF8000
000FFFFC0000
00007FC00000
ENDCHAR
STARTCHAR 00DB
ENCODING 219
SWIDTH 720 0
DWIDTH 56 0
BBX 43 74 7 -1
BITMAP
00007F800000
00007FC00000
0000FFE00000
0001FFF00000
0003FFF00000
0007FBF80000
0007F1FC0000
000FE0FE0000
001FC07F0000
003F003F8000
007E000FC000
00FC0007E000
000000000000
000000000000
000000000000
000000000000
000000000000
FE0000000FE0
FE0000000FE0
FE0000000FE0
FE0000000FE0
FE0000000FE0
FE0000000FE0
FE0000000FE0
FE0000000FE0
FE0000000FE0
FE0000000FE0
FE0000000FE0
FE0000000FE0
FE0000000FE0
FE0000000FE0
FE0000000FE0
FE0000000FE0
FE0000000FE0
FE0000000FE0
FE0000000FE0
FE0000000FE0
FE0000000FE0
FE0000000FE0
FE0000000FE0
FE0000000FE0
FE0000000FE0
FE0000000FE0
FE0000000FE0
FE0000000FE0
FE0000000FE0
FE0000000FE0
FE0000000FE0
FE0000000FE0
FE0000000FE0
FE0000000FE0
FE0000000FE0
FE0000000FE0
FE0000000FE0
FE0000000FE0
FE0000000FE0
FE0000000FE0
FE0000001FC0
FF0000001FC0
7F0000001FC0
7F0000003FC0
7F8000003F80
3F8000007F80
3FC000007F80
1FE00000FF00
1FF00003FE00
0FFC0007FE00
07FFE0FFFC00
03FFFFFFF800
01FFFFFFF000
00FFFFFFC000
003FFFFF8000
000FFFFC0000
00007FC00000
ENDCHAR
STARTCHAR 00DC
ENCODING 220
SWIDTH 720 0
DWIDTH 56 0
BBX 43 72 7 -1
BITMAP
0006000C0000
001F803F0000
001FC07F0000
001FC07F0000
001FC07F0000
001FC07F0000
001F803F0000
000F001E0000
000000000000
000000000000
000000000000
000000000000
000000000000
000000000000
000000000000
FE0000000FE0
FE0000000FE0
FE0000000FE0
FE0000000FE0
FE0000000FE0
FE0000000FE0
FE0000000FE0
FE0000000FE0
FE0000000FE0
FE0000000FE0
FE0000000FE0
FE0000000FE0
FE0000000FE0
FE0000000FE0
FE0000000FE0
FE0000000FE0
FE0000000FE0
FE0000000FE0
FE0000000FE0
FE0000000FE0
FE0000000FE0
FE0000000FE0
FE0000000FE0
FE0000000FE0
FE0000000FE0
FE0000000FE0
FE0000000FE0
FE0000000FE0
FE0000000FE0
FE0000000FE0
FE0000000FE0
FE0000000FE0
FE0000000FE0
FE0000000FE0
FE0000000FE0
FE0000000FE0
FE0000000FE0
FE0000000FE0
FE0000000FE0
FE0000000FE0
FE0000001FC0
FF0000001FC0
7F0000001FC0
7F0000003FC0
7F8000003F80
3F8000007F80
3FC000007F80
1FE00000FF00
1FF00003FE00
0FFC0007FE00
07FFE0FFFC00
03FFFFFFF800
01FFFFFFF000
00FFFFFFC000
003FFFFF8000
000FFFFC0000
00007FC00000
ENDCHAR
STARTCHAR 00DD
ENCODING 221
SWIDTH 565 0
DWIDTH 44 0
BBX 44 73 0 0
BITMAP
0000007F8000
000000FF8000
000000FF0000
000001FE0000
000003FC0000
000003F80000
000007F00000
00000FE00000
00000FC00000
00001F800000
00003F000000
00003E000000
000000000000
000000000000
000000000000
000000000000
000000000000
FF0000000FF0
7F0000000FE0
7F8000001FE0
3F8000001FC0
3FC000003FC0
1FC000003F80
1FE000007F80
0FE000007F00
0FF00000FF00
07F00000FE00
07F80001FE00
03F80001FC00
03FC0003F800
01FE0003F800
00FE0007F000
00FF0007F000
007F000FE000
007F801FE000
003F801FC000
003FC03FC000
001FC03F8000
001FE07F8000
000FE07F0000
000FF0FF0000
0007F0FE0000
0003F9FC0000
0003F9FC0000
0001FFF80000
0001FFF80000
0000FFF00000
0000FFF00000
00007FE00000
00007FE00000
00003FC00000
00003FC00000
00001FC00000
00001FC00000
00001FC00000
00001FC00000
00001FC00000
00001FC00000
00001FC00000
00001FC00000
00001FC00000
00001FC00000
00001FC00000
00001FC00000
00001FC00000
00001FC00000
00001FC00000
00001FC00000
00001FC00000
00001FC00000
00001FC00000
00001FC00000
00001FC00000
ENDCHAR
STARTCHAR 00DE
ENCODING 222
SWIDTH 604 0
DWIDTH 47 0
BBX 35 56 8 0
BITMAP
FE00000000
FE00000000
FE00000000
FE00000000
FE00000000
FE00000000
FE00000000
FE00000000
FE00000000
FE00000000
FFFFF00000
FFFFFF8000
FFFFFFE000
FFFFFFF800
FFFFFFFC00
FFFFFFFE00
FE003FFF00
FE0003FF80
FE0000FF80
FE00007FC0
FE00003FC0
FE00001FE0
FE00001FE0
FE00001FE0
FE00000FE0
FE00000FE0
FE00000FE0
FE00000FE0
FE00000FE0
FE00000FE0
FE00001FE0
FE00001FC0
FE00001FC0
FE00003FC0
FE00007F80
FE0000FF80
FE0003FF00
FE003FFE00
FFFFFFFC00
FFFFFFF800
FFFFFFF000
FFFFFFC000
FFFFFF0000
FFFFE00000
FE00000000
FE00000000
FE00000000
FE00000000
FE00000000
FE00000000
FE00000000
FE00000000
FE00000000
FE00000000
FE00000000
FE00000000
ENDCHAR
STARTCHAR 00DF
ENCODING 223
SWIDTH 630 0
DWIDTH 49 0
BBX 39 60 7 0
BITMAP
007FFF8000
03FFFFE000
07FFFFF800
1FFFFFFC00
3FFFFFFE00
3FF80FFF00
7FC000FF80
7F80007F80
FF00003F80
FE00003FC0
FE00001FC0
FE00001FC0
FC00001FC0
FC00003F80
FC00003F80
FC00007F80
FC0000FF00
FC0001FE00
FC0003FC00
FC0007F800
FC001FF000
FC003FE000
FC003FC000
FC007F8000
FC007F0000
FC00FE0000
FC00FE0000
FC00FE0000
FC00FE0000
FC00FF0000
FC007F8000
FC007FC000
FC003FF000
FC003FF800
FC000FFC00
FC0007FF00
FC0003FF80
FC0001FFC0
FC00007FE0
FC00003FF0
FC00000FF8
FC000007F8
FC000003FC
FC000001FC
FC000001FC
FC000000FC
FC000000FE
FC000000FE
FC000000FE
FC000000FC
FC000001FC
FC040001FC
FC070003FC
FC07E00FF8
FC07FFFFF8
FC07FFFFF0
FC07FFFFE0
FC07FFFF80
FC00FFFE00
00000FF000
ENDCHAR
STARTCHAR 00E0
ENCODING 224
SWIDTH 552 0
DWIDTH 43 0
BBX 33 61 4 -1
BITMAP
00FF000000
00FF000000
007F800000
007FC00000
003FC00000
001FE00000
000FE00000
0007F00000
0003F80000
0001FC0000
0000FC0000
00007E0000
00003E0000
0000000000
0000000000
0000000000
0000000000
0000000000
001FFF8000
00FFFFF000
03FFFFF800
0FFFFFFC00
07FFFFFE00
07FC07FF00
03E001FF00
0300007F00
0000007F80
0000003F80
0000003F80
0000003F80
0000001F80
0000001F80
0000001F80
0000001F80
0000001F80
0001FFFF80
003FFFFF80
01FFFFFF80
07FFFFFF80
0FFFFFFF80
3FFE001F80
3FE0001F80
7F80001F80
FF00001F80
FF00003F80
FE00003F80
FE00003F80
FE00003F80
FE00003F80
FE00007F80
FE00007F80
FE0000FF80
FF0001FF80
FF8007FF80
7FC01FDF80
7FFFFFDF80
3FFFFF8F80
1FFFFE0F80
0FFFFC0F80
03FFF00F80
007F000000
ENDCHAR
STARTCHAR 00E1
ENCODING 225
SWIDTH 552 0
DWIDTH 43 0
BBX 33 61 4 -1
BITMAP
000007F800
000007F800
00000FF000
00001FF000
00001FE000
00003FC000
00003F8000
00007F0000
0000FE0000
0000FC0000
0001F80000
0003F00000
0003E00000
0000000000
0000000000
0000000000
0000000000
0000000000
001FFF8000
00FFFFF000
03FFFFF800
0FFFFFFC00
07FFFFFE00
07FC07FF00
03E001FF00
0300007F00
0000007F80
0000003F80
0000003F80
0000003F80
0000001F80
0000001F80
0000001F80
0000001F80
0000001F80
0001FFFF80
003FFFFF80
01FFFFFF80
07FFFFFF80
0FFFFFFF80
3FFE001F80
3FE0001F80
7F80001F80
FF00001F80
FF00003F80
FE00003F80
FE00003F80
FE00003F80
FE00003F80
FE00007F80
FE00007F80
FE0000FF80
FF0001FF80
FF8007FF80
7FC01FDF80
7FFFFFDF80
3FFFFF8F80
1FFFFE0F80
0FFFFC0F80
03FFF00F80
007F000000
ENDCHAR
STARTCHAR 00E2
ENCODING 226
SWIDTH 552 0
DWIDTH 43 0
BBX 33 61 4 -1
BITMAP
0003F80000
0003FC0000
0007FE0000
000FFE0000
001FFF0000
001FFF8000
003FBFC000
007F1FE000
00FE0FF000
01FC03F800
03F801FC00
07E000FC00
07C0003E00
0000000000
0000000000
0000000000
0000000000
0000000000
001FFF8000
00FFFFF000
03FFFFF800
0FFFFFFC00
07FFFFFE00
07FC07FF00
03E001FF00
0300007F00
0000007F80
0000003F80
0000003F80
0000003F80
0000001F80
0000001F80
0000001F80
0000001F80
0000001F80
0001FFFF80
003FFFFF80
01FFFFFF80
07FFFFFF80
0FFFFFFF80
3FFE001F80
3FE0001F80
7F80001F80
FF00001F80
FF00003F80
FE00003F80
FE00003F80
FE00003F80
FE00003F80
FE00007F80
FE00007F80
FE0000FF80
FF0001FF80
FF8007FF80
7FC01FDF80
7FFFFFDF80
3FFFFF8F80
1FFFFE0F80
0FFFFC0F80
03FFF00F80
007F000000
ENDCHAR
STARTCHAR 00E3
ENCODING 227
SWIDTH 552 0
DWIDTH 43 0
BBX 33 58 4 -1
BITMAP
007E000F00
01FF800F00
03FFE01F00
03FFF83E00
07FFFFFE00
07E7FFFE00
0F81FFFC00
0F007FF800
0F001FF000
0F0007C000
0000000000
0000000000
0000000000
0000000000
0000000000
001FFF8000
00FFFFF000
03FFFFF800
0FFFFFFC00
07FFFFFE00
07FC07FF00
03E001FF00
0300007F00
0000007F80
0000003F80
0000003F80
0000003F80
0000001F80
0000001F80
0000001F80
0000001F80
0000001F80
0001FFFF80
003FFFFF80
01FFFFFF80
07FFFFFF80
0FFFFFFF80
3FFE001F80
3FE0001F80
7F80001F80
FF00001F80
FF00003F80
FE00003F80
FE00003F80
FE00003F80
FE00003F80
FE00007F80
FE00007F80
FE0000FF80
FF0001FF80
FF8007FF80
7FC01FDF80
7FFFFFDF80
3FFFFF8F80
1FFFFE0F80
0FFFFC0F80
03FFF00F80
007F000000
ENDCHAR
STARTCHAR 00E4
ENCODING 228
SWIDTH 552 0
DWIDTH 43 0
BBX 33 58 4 -1
BITMAP
007000E000
00FC03F000
01FC03F800
01FC03F800
01FC03F800
01FC03F800
00FC03F000
007001E000
0000000000
0000000000
0000000000
0000000000
0000000000
0000000000
0000000000
001FFF8000
00FFFFF000
03FFFFF800
0FFFFFFC00
07FFFFFE00
07FC07FF00
03E001FF00
0300007F00
0000007F80
0000003F80
0000003F80
0000003F80
0000001F80
0000001F80
0000001F80
0000001F80
0000001F80
0001FFFF80
003FFFFF80
01FFFFFF80
07FFFFFF80
0FFFFFFF80
3FFE001F80
3FE0001F80
7F80001F80
FF00001F80
FF00003F80
FE00003F80
FE00003F80
FE00003F80
FE00003F80
FE00007F80
FE00007F80
FE0000FF80
FF0001FF80
FF8007FF80
7FC01FDF80
7FFFFFDF80
3FFFFF8F80
1FFFFE0F80
0FFFFC0F80
03FFF00F80
007F000000
ENDCHAR
STARTCHAR 00E5
ENCODING 229
SWIDTH 552 0
DWIDTH 43 0
BBX 33 65 4 -1
BITMAP
0000400000
0007FC0000
000FFF0000
001FFF8000
003F1F8000
003E07C000
007C03C000
007C03C000
007803C000
007803C000
007C03C000
003C07C000
003F0FC000
001FFF8000
001FFF0000
0007FE0000
0001F00000
0000000000
0000000000
0000000000
0000000000
0000000000
001FFF8000
00FFFFF000
03FFFFF800
0FFFFFFC00
07FFFFFE00
07FC07FF00
03E001FF00
0300007F00
0000007F80
0000003F80
0000003F80
0000003F80
0000001F80
0000001F80
0000001F80
0000001F80
0000001F80
0001FFFF80
003FFFFF80
01FFFFFF80
07FFFFFF80
0FFFFFFF80
3FFE001F80
3FE0001F80
7F80001F80
FF00001F80
FF00003F80
FE00003F80
FE00003F80
FE00003F80
FE00003F80
FE00007F80
FE00007F80
FE0000FF80
FF0001FF80
FF8007FF80
7FC01FDF80
7FFFFFDF80
3FFFFF8F80
1FFFFE0F80
0FFFFC0F80
03FFF00F80
007F000000
ENDCHAR
STARTCHAR 00E6
ENCODING 230
SWIDTH 861 0
DWIDTH 67 0
BBX 59 43 4 -1
BITMAP
003FFF0007FF8000
01FFFFC01FFFE000
0FFFFFE03FFFF800
1FFFFFF0FFFFFC00
0FFFFFF9FFFFFE00
0FF80FFDFF03FF00
0F8003FFFC00FF00
060000FFF0007F80
000000FFE0003F80
0000007FE0003FC0
0000007FC0001FC0
0000007FC0001FC0
0000007F80000FE0
0000003F80000FE0
0000003F80000FE0
0000003F80000FE0
0000003F80000FE0
0003FFFFFFFFFFE0
007FFFFFFFFFFFE0
03FFFFFFFFFFFFE0
07FFFFFFFFFFFFE0
1FFFFFFFFFFFFFE0
3FFC007F80000000
3FE0007F80000000
7F80007F80000000
FF00007F80000000
FF00007F80000000
FE00007F80000000
FE00007F80000000
FE00007FC0000000
FE00007FC0000000
FE0000FFC0000000
FE0000FFE0000000
FE0001FFF0000000
FF0003F7F8000080
FF8007F7FC000380
7FC03FE3FF803F80
7FFFFFC1FFFFFF80
3FFFFF80FFFFFF80
1FFFFF007FFFFF80
0FFFFC001FFFFF00
03FFF00007FFFC00
003F0000007F8000
ENDCHAR
STARTCHAR 00E7
ENCODING 231
SWIDTH 475 0
DWIDTH 37 0
BBX 31 61 4 -19
BITMAP
0007FFE0
003FFFFC
007FFFFE
01FFFFFC
03FFFFFC
07FFFFF8
0FFC0038
0FF00000
1FE00000
1FC00000
3FC00000
3F800000
7F800000
7F000000
7F000000
7F000000
7F000000
FF000000
FE000000
FE000000
FE000000
FE000000
FE000000
FE000000
FE000000
FF000000
7F000000
7F000000
7F000000
7F800000
7F800000
3F800000
3FC00000
1FE00000
1FF00000
0FF8001C
07FF00FC
07FFFFFC
03FFFFFC
00FFFFFC
007FFFFC
000FFFF0
0001FE00
0000F000
0001F000
0001E000
0003F000
0003FE00
0007FF00
00007F80
00001F80
00000FC0
00000FC0
00000FC0
00000FC0
00001F80
003FFF80
003FFF00
003FFE00
003FF800
000F8000
ENDCHAR
STARTCHAR 00E8
ENCODING 232
SWIDTH 552 0
DWIDTH 43 0
BBX 36 61 4 -1
BITMAP
00FF000000
00FF800000
007F800000
003FC00000
001FE00000
001FE00000
000FF00000
0007F00000
0003F80000
0001FC0000
0000FE0000
00007E0000
00001F0000
0000000000
0000000000
0000000000
0000000000
0000000000
0007FF8000
003FFFE000
007FFFF800
01FFFFFC00
03FFFFFE00
07FF03FF00
0FF800FF80
0FF0007F80
1FE0003FC0
1FC0001FC0
3F80001FE0
3F80000FE0
7F00000FE0
7F00000FE0
7F000007F0
7F000007F0
7F000007F0
FFFFFFFFF0
FFFFFFFFF0
FFFFFFFFF0
FFFFFFFFF0
FFFFFFFFF0
FE00000000
FE00000000
FE00000000
7F00000000
7F00000000
7F00000000
7F00000000
7F80000000
3F80000000
3FC0000000
3FC0000000
1FE0000000
0FF0000040
0FFC0003C0
07FF803FC0
03FFFFFFC0
01FFFFFFC0
00FFFFFFC0
003FFFFF80
000FFFFC00
00007FC000
ENDCHAR
STARTCHAR 00E9
ENCODING 233
SWIDTH 552 0
DWIDTH 43 0
BBX 36 61 4 -1
BITMAP
000007FC00
000007F800
00000FF800
00000FF000
00001FE000
00003FC000
00003F8000
00007F0000
00007E0000
0000FC0000
0001F80000
0003F00000
0003E00000
0000000000
0000000000
0000000000
0000000000
0000000000
0007FF8000
003FFFE000
007FFFF800
01FFFFFC00
03FFFFFE00
07FF03FF00
0FF800FF80
0FF0007F80
1FE0003FC0
1FC0001FC0
3F80001FE0
3F80000FE0
7F00000FE0
7F00000FE0
7F000007F0
7F000007F0
7F000007F0
FFFFFFFFF0
FFFFFFFFF0
FFFFFFFFF0
FFFFFFFFF0
FFFFFFFFF0
FE00000000
FE00000000
FE00000000
7F00000000
7F00000000
7F00000000
7F00000000
7F80000000
3F80000000
3FC0000000
3FC0000000
1FE0000000
0FF0000040
0FFC0003C0
07FF803FC0
03FFFFFFC0
01FFFFFFC0
00FFFFFFC0
003FFFFF80
000FFFFC00
00007FC000
ENDCHAR
STARTCHAR 00EA
ENCODING 234
SWIDTH 552 0
DWIDTH 43 0
BBX 36 61 4 -1
BITMAP
0001FC0000
0003FC0000
0007FE0000
000FFF0000
000FFF0000
001FFF8000
003F9FC000
007F0FE000
00FE07F000
01FC03F800
03F801FC00
07F000FE00
07C0003E00
0000000000
0000000000
0000000000
0000000000
0000000000
0007FF8000
003FFFE000
007FFFF800
01FFFFFC00
03FFFFFE00
07FF03FF00
0FF800FF80
0FF0007F80
1FE0003FC0
1FC0001FC0
3F80001FE0
3F80000FE0
7F00000FE0
7F00000FE0
7F000007F0
7F000007F0
7F000007F0
FFFFFFFFF0
FFFFFFFFF0
FFFFFFFFF0
FFFFFFFFF0
FFFFFFFFF0
FE00000000
FE00000000
FE00000000
7F00000000
7F00000000
7F00000000
7F00000000
7F80000000
3F80000000
3FC0000000
3FC0000000
1FE0000000
0FF0000040
0FFC0003C0
07FF803FC0
03FFFFFFC0
01FFFFFFC0
00FFFFFFC0
003FFFFF80
000FFFFC00
00007FC000
ENDCHAR
STARTCHAR 00EB
ENCODING 235
SWIDTH 552 0
DWIDTH 43 0
BBX 36 58 4 -1
BITMAP
007000E000
00FC01F000
01FC03F800
01FE03F800
01FE03F800
01FC03F800
00FC01F000
007800E000
0000000000
0000000000
0000000000
0000000000
0000000000
0000000000
0000000000
0007FF8000
003FFFE000
007FFFF800
01FFFFFC00
03FFFFFE00
07FF03FF00
0FF800FF80
0FF0007F80
1FE0003FC0
1FC0001FC0
3F80001FE0
3F80000FE0
7F00000FE0
7F00000FE0
7F000007F0
7F000007F0
7F000007F0
FFFFFFFFF0
FFFFFFFFF0
FFFFFFFFF0
FFFFFFFFF0
FFFFFFFFF0
FE00000000
FE00000000
FE00000000
7F00000000
7F00000000
7F00000000
7F00000000
7F80000000
3F80000000
3FC0000000
3FC0000000
1FE0000000
0FF0000040
0FFC0003C0
07FF803FC0
03FFFFFFC0
01FFFFFFC0
00FFFFFFC0
003FFFFF80
000FFFFC00
00007FC000
ENDCHAR
STARTCHAR 00EC
ENCODING 236
SWIDTH 257 0
DWIDTH 20 0
BBX 16 60 0 0
BITMAP
FF00
FF80
7F80
3FC0
3FC0
1FE0
0FF0
07F0
03F8
01FC
00FC
007E
003F
0000
0000
0000
0000
0000
01F8
01F8
01F8
01F8
01F8
01F8
01F8
01F8
01F8
01F8
01F8
01F8
01F8
01F8
01F8
01F8
01F8
01F8
01F8
01F8
01F8
01F8
01F8
01F8
01F8
01F8
01F8
01F8
01F8
01F8
01F8
01F8
01F8
01F8
01F8
01F8
01F8
01F8
01F8
01F8
01F8
01F8
ENDCHAR
STARTCHAR 00ED
ENCODING 237
SWIDTH 257 0
DWIDTH 20 0
BBX 16 60 6 0
BITMAP
01FF
01FE
03FE
03FC
07F8
0FF0
0FE0
1FC0
3F80
3F00
7E00
FC00
F800
0000
0000
0000
0000
0000
7E00
7E00
7E00
7E00
7E00
7E00
7E00
7E00
7E00
7E00
7E00
7E00
7E00
7E00
7E00
7E00
7E00
7E00
7E00
7E00
7E00
7E00
7E00
7E00
7E00
7E00
7E00
7E00
7E00
7E00
7E00
7E00
7E00
7E00
7E00
7E00
7E00
7E00
7E00
7E00
7E00
7E00
ENDCHAR
STARTCHAR 00EE
ENCODING 238
SWIDTH 257 0
DWIDTH 20 0
BBX 26 60 -3 0
BITMAP
007F8000
007F8000
00FFC000
01FFE000
01FFE000
03FFF000
07F7F800
0FE1FC00
1FC0FE00
3F807F00
7F003F80
FE001FC0
F80007C0
00000000
00000000
00000000
00000000
00000000
003F0000
003F0000
003F0000
003F0000
003F0000
003F0000
003F0000
003F0000
003F0000
003F0000
003F0000
003F0000
003F0000
003F0000
003F0000
003F0000
003F0000
003F0000
003F0000
003F0000
003F0000
003F0000
003F0000
003F0000
003F0000
003F0000
003F0000
003F0000
003F0000
003F0000
003F0000
003F0000
003F0000
003F0000
003F0000
003F0000
003F0000
003F0000
003F0000
003F0000
003F0000
003F0000
ENDCHAR
STARTCHAR 00EF
ENCODING 239
SWIDTH 257 0
DWIDTH 20 0
BBX 22 57 -1 0
BITMAP
380070
7E01F8
FE01FC
FE01FC
FE01FC
FE01FC
7E01F8
3C0070
000000
000000
000000
000000
000000
000000
000000
00FC00
00FC00
00FC00
00FC00
00FC00
00FC00
00FC00
00FC00
00FC00
00FC00
00FC00
00FC00
00FC00
00FC00
00FC00
00FC00
00FC00
00FC00
00FC00
00FC00
00FC00
00FC00
00FC00
00FC00
00FC00
00FC00
00FC00
00FC00
00FC00
00FC00
00FC00
00FC00
00FC00
00FC00
00FC00
00FC00
00FC00
00FC00
00FC00
00FC00
00FC00
00FC00
ENDCHAR
STARTCHAR 00F0
ENCODING 240
SWIDTH 604 0
DWIDTH 47 0
BBX 39 60 4 0
BITMAP
000E000300
000F800780
001FE01F80
003FF07FC0
001FFCFFC0
000FFFFF00
0003FFFC00
0000FFF800
00007FE000
0001FFF000
0007FFF800
001FFFFC00
003FF3FC00
00FFC1FE00
007F80FF00
003E007F80
0018003F80
0000001FC0
0000001FC0
0000000FE0
0000000FE0
00000007F0
0001FE07F0
001FFFC3F8
007FFFF3F8
01FFFFFDF8
03FFFFFFF8
07FFFFFFFC
0FFC007FFC
1FF0001FFC
1FE0000FFC
3FC00007FC
3F800003FE
7F800003FE
7F000001FE
7F000001FE
7F000000FE
FE000000FE
FE000000FE
FE000000FE
FE000000FE
FE000000FE
FE000000FE
FE000000FC
7F000001FC
7F000001FC
7F000001FC
7F000001F8
3F800003F8
3F800003F8
3FC00007F0
1FE0000FF0
0FF0001FE0
0FFE00FFC0
07FFFFFF80
03FFFFFF00
00FFFFFE00
007FFFF800
000FFFE000
0001FE0000
ENDCHAR
STARTCHAR 00F1
ENCODING 241
SWIDTH 617 0
DWIDTH 48 0
BBX 35 57 7 0
BITMAP
00FE001E00
01FF801E00
03FFC03E00
07FFF03E00
0FFFFFFC00
0FCFFFFC00
1F01FFF800
1F00FFF000
1E003FE000
1E00078000
0000000000
0000000000
0000000000
0000000000
0000000000
F803FFC000
F81FFFF800
FC3FFFFC00
FC7FFFFE00
FCFFFFFF00
FDFF07FF80
FFF000FF80
FFE0007FC0
FFC0003FC0
FF80001FC0
FF00001FC0
FF00000FE0
FE00000FE0
FE00000FE0
FE00000FE0
FE00000FE0
FE00000FE0
FE00000FE0
FE00000FE0
FC00000FE0
FC00000FE0
FC00000FE0
FC00000FE0
FC00000FE0
FC00000FE0
FC00000FE0
FC00000FE0
FC00000FE0
FC00000FE0
FC00000FE0
FC00000FE0
FC00000FE0
FC00000FE0
FC00000FE0
FC00000FE0
FC00000FE0
FC00000FE0
FC00000FE0
FC00000FE0
FC00000FE0
FC00000FE0
FC00000FE0
ENDCHAR
STARTCHAR 00F2
ENCODING 242
SWIDTH 604 0
DWIDTH 47 0
BBX 39 61 4 -1
BITMAP
007FC00000
003FC00000
003FE00000
001FE00000
000FF00000
0007F80000
0003F80000
0001FC0000
0000FE0000
00007E0000
00003F0000
00001F8000
00000F8000
0000000000
0000000000
0000000000
0000000000
0000000000
0007FFC000
003FFFF800
007FFFFC00
01FFFFFF00
03FFFFFF80
07FF83FFC0
0FFC007FE0
0FF0001FE0
1FE0000FF0
1FC00007F0
3FC00007F8
3F800003F8
7F800003FC
7F000001FC
7F000001FC
7F000001FC
7F000001FE
FF000000FE
FE000000FE
FE000000FE
FE000000FE
FE000000FE
FE000000FE
FE000000FE
FF000000FE
7F000001FE
7F000001FC
7F000001FC
7F000001FC
7F800003FC
3F800003F8
3FC00003F8
1FC00007F8
1FE0000FF0
0FF0001FF0
0FF8003FE0
07FE00FFC0
03FFFFFF80
01FFFFFF00
00FFFFFE00
003FFFF800
000FFFE000
0000FE0000
ENDCHAR
STARTCHAR 00F3
ENCODING 243
SWIDTH 604 0
DWIDTH 47 0
BBX 39 61 4 -1
BITMAP
000001FE00
000003FE00
000003FC00
000007F800
00000FF000
00000FF000
00001FE000
00001FC000
00003F8000
00007F0000
00007E0000
0000FC0000
0001F00000
0000000000
0000000000
0000000000
0000000000
0000000000
0007FFC000
003FFFF800
007FFFFC00
01FFFFFF00
03FFFFFF80
07FF83FFC0
0FFC007FE0
0FF0001FE0
1FE0000FF0
1FC00007F0
3FC00007F8
3F800003F8
7F800003FC
7F000001FC
7F000001FC
7F000001FC
7F000001FE
FF000000FE
FE000000FE
FE000000FE
FE000000FE
FE000000FE
FE000000FE
FE000000FE
FF000000FE
7F000001FE
7F000001FC
7F000001FC
7F000001FC
7F800003FC
3F800003F8
3FC00003F8
1FC00007F8
1FE0000FF0
0FF0001FF0
0FF8003FE0
07FE00FFC0
03FFFFFF80
01FFFFFF00
00FFFFFE00
003FFFF800
000FFFE000
0000FE0000
ENDCHAR
STARTCHAR 00F4
ENCODING 244
SWIDTH 604 0
DWIDTH 47 0
BBX 39 61 4 -1
BITMAP
0000FE0000
0001FF0000
0001FF0000
0003FF8000
0007FFC000
000FFFE000
001FEFF000
001FC7F000
003F83F800
007F01FC00
00FC007E00
01F8003F00
03F0001F80
0000000000
0000000000
0000000000
0000000000
0000000000
0007FFC000
003FFFF800
007FFFFC00
01FFFFFF00
03FFFFFF80
07FF83FFC0
0FFC007FE0
0FF0001FE0
1FE0000FF0
1FC00007F0
3FC00007F8
3F800003F8
7F800003FC
7F000001FC
7F000001FC
7F000001FC
7F000001FE
FF000000FE
FE000000FE
FE000000FE
FE000000FE
FE000000FE
FE000000FE
FE000000FE
FF000000FE
7F000001FE
7F000001FC
7F000001FC
7F000001FC
7F800003FC
3F800003F8
3FC00003F8
1FC00007F8
1FE0000FF0
0FF0001FF0
0FF8003FE0
07FE00FFC0
03FFFFFF80
01FFFFFF00
00FFFFFE00
003FFFF800
000FFFE000
0000FE0000
ENDCHAR
STARTCHAR 00F5
ENCODING 245
SWIDTH 604 0
DWIDTH 47 0
BBX 39 58 4 -1
BITMAP
001F8003C0
007FE007C0
00FFF80780
01FFFE0F80
01FFFFFF80
03FBFFFF00
03E07FFF00
03C01FFE00
07C007FC00
078001F000
0000000000
0000000000
0000000000
0000000000
0000000000
0007FFC000
003FFFF800
007FFFFC00
01FFFFFF00
03FFFFFF80
07FF83FFC0
0FFC007FE0
0FF0001FE0
1FE0000FF0
1FC00007F0
3FC00007F8
3F800003F8
7F800003FC
7F000001FC
7F000001FC
7F000001FC
7F000001FE
FF000000FE
FE000000FE
FE000000FE
FE000000FE
FE000000FE
FE000000FE
FE000000FE
FF000000FE
7F000001FE
7F000001FC
7F000001FC
7F000001FC
7F800003FC
3F800003F8
3FC00003F8
1FC00007F8
1FE0000FF0
0FF0001FF0
0FF8003FE0
07FE00FFC0
03FFFFFF80
01FFFFFF00
00FFFFFE00
003FFFF800
000FFFE000
0000FE0000
ENDCHAR
STARTCHAR 00F6
ENCODING 246
SWIDTH 604 0
DWIDTH 47 0
BBX 39 58 4 -1
BITMAP
001C007000
007E00FC00
007F01FC00
007F01FE00
007F01FE00
007F01FC00
007E00FC00
001C007800
0000000000
0000000000
0000000000
0000000000
0000000000
0000000000
0000000000
0007FFC000
003FFFF800
007FFFFC00
01FFFFFF00
03FFFFFF80
07FF83FFC0
0FFC007FE0
0FF0001FE0
1FE0000FF0
1FC00007F0
3FC00007F8
3F800003F8
7F800003FC
7F000001FC
7F000001FC
7F000001FC
7F000001FE
FF000000FE
FE000000FE
FE000000FE
FE000000FE
FE000000FE
FE000000FE
FE000000FE
FF000000FE
7F000001FE
7F000001FC
7F000001FC
7F000001FC
7F800003FC
3F800003F8
3FC00003F8
1FC00007F8
1FE0000FF0
0FF0001FF0
0FF8003FE0
07FE00FFC0
03FFFFFF80
01FFFFFF00
00FFFFFE00
003FFFF800
000FFFE000
0000FE0000
ENDCHAR
STARTCHAR 00F7
ENCODING 247
SWIDTH 565 0
DWIDTH 44 0
BBX 37 36 4 9
BITMAP
0001F80000
0003FC0000
0003FC0000
0003FC0000
0003FC0000
0003FC0000
0003FC0000
0001FC0000
0000F00000
0000000000
0000000000
0000000000
0000000000
0000000000
0000000000
FFFFFFFFF8
FFFFFFFFF8
FFFFFFFFF8
FFFFFFFFF8
FFFFFFFFF8
0000000000
0000000000
0000000000
0000000000
0000000000
0000000000
0000F00000
0001FC0000
0003FC0000
0003FC0000
0003FC0000
0003FC0000
0003FC0000
0003FC0000
0001F80000
0000200000
ENDCHAR
STARTCHAR 00F8
ENCODING 248
SWIDTH 604 0
DWIDTH 47 0
BBX 39 46 4 -3
BITMAP
00000000C0
00000000E0
0007FFC1F8
003FFFF3F8
007FFFFFF0
01FFFFFFF0
03FFFFFFE0
07FF83FFC0
0FFC007FC0
0FF0003FE0
1FE0007FF0
1FC0007FF0
3FC000FFF8
3F8001FFF8
7F8001FBFC
7F0003F9FC
7F0007F1FC
7F000FE1FC
7F000FC1FE
FF001FC0FE
FE003F80FE
FE007F00FE
FE007F00FE
FE00FE00FE
FE01FC00FE
FE01F800FE
FE03F800FE
7F07F001FE
7F0FE001FC
7F0FE001FC
7F1FC001FC
7FBF8003FC
3FBF0003F8
3FFF0003F8
1FFE0007F8
1FFC000FF0
0FF8001FF0
0FF8003FE0
07FE00FFC0
07FFFFFF80
0FFFFFFF00
1FFFFFFE00
3FBFFFF800
3F0FFFE000
1F00FE0000
0600000000
ENDCHAR
STARTCHAR 00F9
ENCODING 249
SWIDTH 617 0
DWIDTH 48 0
BBX 35 61 6 -1
BITMAP
00FF000000
00FF800000
007F800000
003FC00000
003FC00000
001FE00000
000FF00000
0007F00000
0003F80000
0001FC0000
0000FC0000
00007E0000
00003F0000
0000000000
0000000000
0000000000
0000000000
0000000000
FE000007E0
FE000007E0
FE000007E0
FE000007E0
FE000007E0
FE000007E0
FE000007E0
FE000007E0
FE000007E0
FE000007E0
FE000007E0
FE000007E0
FE000007E0
FE000007E0
FE000007E0
FE000007E0
FE000007E0
FE000007E0
FE000007E0
FE000007E0
FE000007E0
FE000007E0
FE000007E0
FE000007E0
FE00000FE0
FE00000FE0
FE00000FE0
FE00000FE0
FE00000FE0
FE00000FE0
FE00001FE0
FF00001FE0
7F00003FE0
7F80003FE0
7F80007FE0
7FC001FFE0
3FF007FFE0
1FFFFFF7E0
1FFFFFE7E0
0FFFFFC7E0
03FFFF03E0
00FFFC03E0
001FC00000
ENDCHAR
STARTCHAR 00FA
ENCODING 250
SWIDTH 617 0
DWIDTH 48 0
BBX 35 61 6 -1
BITMAP
000007FC00
000007F800
00000FF800
00000FF000
00001FE000
00003FC000
00003F8000
00007F0000
0000FE0000
0000FC0000
0001F80000
0003F00000
0003E00000
0000000000
0000000000
0000000000
0000000000
0000000000
FE000007E0
FE000007E0
FE000007E0
FE000007E0
FE000007E0
FE000007E0
FE000007E0
FE000007E0
FE000007E0
FE000007E0
FE000007E0
FE000007E0
FE000007E0
FE000007E0
FE000007E0
FE000007E0
FE000007E0
FE000007E0
FE000007E0
FE000007E0
FE000007E0
FE000007E0
FE000007E0
FE000007E0
FE00000FE0
FE00000FE0
FE00000FE0
FE00000FE0
FE00000FE0
FE00000FE0
FE00001FE0
FF00001FE0
7F00003FE0
7F80003FE0
7F80007FE0
7FC001FFE0
3FF007FFE0
1FFFFFF7E0
1FFFFFE7E0
0FFFFFC7E0
03FFFF03E0
00FFFC03E0
001FC00000
ENDCHAR
STARTCHAR 00FB
ENCODING 251
SWIDTH 617 0
DWIDTH 48 0
BBX 35 61 6 -1
BITMAP
0003FC0000
0003FC0000
0007FE0000
000FFF0000
000FFF0000
001FFF8000
003FBFC000
007F0FE000
00FE07F000
01FC03F800
03F801FC00
07F000FE00
07C0003E00
0000000000
0000000000
0000000000
0000000000
0000000000
FE000007E0
FE000007E0
FE000007E0
FE000007E0
FE000007E0
FE000007E0
FE000007E0
FE000007E0
FE000007E0
FE000007E0
FE000007E0
FE000007E0
FE000007E0
FE000007E0
FE000007E0
FE000007E0
FE000007E0
FE000007E0
FE000007E0
FE000007E0
FE000007E0
FE000007E0
FE000007E0
FE000007E0
FE00000FE0
FE00000FE0
FE00000FE0
FE00000FE0
FE00000FE0
FE00000FE0
FE00001FE0
FF00001FE0
7F00003FE0
7F80003FE0
7F80007FE0
7FC001FFE0
3FF007FFE0
1FFFFFF7E0
1FFFFFE7E0
0FFFFFC7E0
03FFFF03E0
00FFFC03E0
001FC00000
ENDCHAR
STARTCHAR 00FC
ENCODING 252
SWIDTH 617 0
DWIDTH 48 0
BBX 35 58 6 -1
BITMAP
007000E000
00FC03F000
01FC03F800
01FC03F800
01FC03F800
01FC03F800
00FC03F000
007800E000
0000000000
0000000000
0000000000
0000000000
0000000000
0000000000
0000000000
FE000007E0
FE000007E0
FE000007E0
FE000007E0
FE000007E0
FE000007E0
FE000007E0
FE000007E0
FE000007E0
FE000007E0
FE000007E0
FE000007E0
FE000007E0
FE000007E0
FE000007E0
FE000007E0
FE000007E0
FE000007E0
FE000007E0
FE000007E0
FE000007E0
FE000007E0
FE000007E0
FE000007E0
FE00000FE0
FE00000FE0
FE00000FE0
FE00000FE0
FE00000FE0
FE00000FE0
FE00001FE0
FF00001FE0
7F00003FE0
7F80003FE0
7F80007FE0
7FC001FFE0
3FF007FFE0
1FFFFFF7E0
1FFFFFE7E0
0FFFFFC7E0
03FFFF03E0
00FFFC03E0
001FC00000
ENDCHAR
STARTCHAR 00FD
ENCODING 253
SWIDTH 501 0
DWIDTH 39 0
BBX 40 79 0 -19
BITMAP
000001FE00
000001FE00
000003FC00
000007FC00
000007F800
00000FF000
00001FE000
00001FC000
00003F8000
00007F0000
00007E0000
0000FC0000
0000F80000
0000000000
0000000000
0000000000
0000000000
0000000000
FE000000FF
7F000000FE
7F000001FE
7F800001FC
3F800001FC
3F800003FC
1FC00003F8
1FC00003F8
1FE00007F8
0FE00007F0
0FE00007F0
07F0000FE0
07F0000FE0
07F0000FE0
03F8001FC0
03F8001FC0
01FC003FC0
01FC003F80
01FC003F80
00FE007F00
00FE007F00
007E007F00
007F00FE00
007F00FE00
003F80FE00
003F81FC00
001F81FC00
001FC1F800
001FC3F800
000FC3F800
000FE3F000
0007E7F000
0007E7E000
0007E7E000
0003FFE000
0003FFC000
0001FFC000
0001FFC000
0001FF8000
0000FF8000
0000FF0000
00007F0000
00007F0000
0000FE0000
0000FE0000
0000FE0000
0001FC0000
0001FC0000
0003F80000
0003F80000
0007F80000
0007F00000
000FF00000
001FE00000
007FC00000
7FFFC00000
7FFF800000
7FFF000000
7FFE000000
7FF8000000
0F80000000
ENDCHAR
STARTCHAR 00FE
ENCODING 254
SWIDTH 604 0
DWIDTH 47 0
BBX 37 78 7 -19
BITMAP
FC00000000
FC00000000
FC00000000
FC00000000
FC00000000
FC00000000
FC00000000
FC00000000
FC00000000
FC00000000
FC00000000
FC00000000
FC00000000
FC00000000
FC00000000
FC00000000
FC00000000
FC07FF8000
FC1FFFF000
FC3FFFF800
FC7FFFFC00
FCFFFFFE00
FDFE07FF00
FFF000FF80
FFE0007FC0
FFC0003FC0
FF80001FE0
FF00001FE0
FF00000FE0
FF00000FF0
FE000007F0
FE000007F0
FE000007F0
FE000007F0
FE000007F0
FC000007F0
FC000007F8
FC000007F8
FC000007F8
FC000007F8
FE000007F0
FE000007F0
FE000007F0
FE000007F0
FE000007F0
FE000007F0
FE00000FF0
FF00000FE0
FF00000FE0
FF80001FE0
FF80003FC0
FFC0003FC0
FFF000FF80
FFFC03FF00
FDFFFFFF00
FCFFFFFE00
FC7FFFFC00
FC1FFFF000
FC0FFFC000
FC007C0000
FC00000000
FC00000000
FC00000000
FC00000000
FC00000000
FC00000000
FC00000000
FC00000000
FC00000000
FC00000000
FC00000000
FC00000000
FC00000000
FC00000000
FC00000000
FC00000000
FC00000000
FC00000000
ENDCHAR
STARTCHAR 00FF
ENCODING 255
SWIDTH 501 0
DWIDTH 39 0
BBX 40 76 0 -19
BITMAP
001C003800
003F00FC00
007F00FE00
007F00FE00
007F00FE00
007F00FE00
003F00FC00
001C007800
0000000000
0000000000
0000000000
0000000000
0000000000
0000000000
0000000000
FE000000FF
7F000000FE
7F000001FE
7F800001FC
3F800001FC
3F800003FC
1FC00003F8
1FC00003F8
1FE00007F8
0FE00007F0
0FE00007F0
07F0000FE0
07F0000FE0
07F0000FE0
03F8001FC0
03F8001FC0
01FC003FC0
01FC003F80
01FC003F80
00FE007F00
00FE007F00
007E007F00
007F00FE00
007F00FE00
003F80FE00
003F81FC00
001F81FC00
001FC1F800
001FC3F800
000FC3F800
000FE3F000
0007E7F000
0007E7E000
0007E7E000
0003FFE000
0003FFC000
0001FFC000
0001FFC000
0001FF8000
0000FF8000
0000FF0000
00007F0000
00007F0000
0000FE0000
0000FE0000
0000FE0000
0001FC0000
0001FC0000
0003F80000
0003F80000
0007F80000
0007F00000
000FF00000
001FE00000
007FC00000
7FFFC00000
7FFF800000
7FFF000000
7FFE000000
7FF8000000
0F80000000
ENDCHAR
STARTCHAR 0100
ENCODING 256
SWIDTH 630 0
DWIDTH 49 0
BBX 49 67 0 0
BITMAP
0007FFFFF00000
0007FFFFF00000
0007FFFFF00000
0007FFFFF00000
0007FFFFF00000
0007FFFFF00000
00000000000000
00000000000000
00000000000000
00000000000000
00000000000000
000003F0000000
000007F0000000
000007F8000000
00000FF8000000
00000FFC000000
00000FFC000000
00001FFC000000
00001FFE000000
00003F7E000000
00003F7F000000
00003F3F000000
00007F3F000000
00007E3F800000
00007E1F800000
0000FE1FC00000
0000FC1FC00000
0001FC0FC00000
0001FC0FE00000
0001F80FE00000
0003F807E00000
0003F807F00000
0007F007F00000
0007F003F80000
0007E003F80000
000FE001F80000
000FE001FC0000
001FC001FC0000
001FC000FE0000
001FC000FE0000
003F8000FE0000
003F80007F0000
003F00007F0000
007F00003F8000
007FFFFFFF8000
00FFFFFFFF8000
00FFFFFFFFC000
00FFFFFFFFC000
01FFFFFFFFC000
01FFFFFFFFE000
03F800000FE000
03F800000FF000
03F8000007F000
07F0000007F000
07F0000003F800
0FF0000003F800
0FE0000003FC00
0FE0000001FC00
1FC0000001FC00
1FC0000001FE00
1FC0000000FE00
3F80000000FE00
3F800000007F00
7F000000007F00
7F000000007F80
7F000000003F80
FE000000003F80
ENDCHAR
STARTCHAR 0101
ENCODING 257
SWIDTH 552 0
DWIDTH 43 0
BBX 33 54 4 -1
BITMAP
03FFFFF800
03FFFFF800
03FFFFF800
03FFFFF800
03FFFFF800
03FFFFF800
0000000000
0000000000
0000000000
0000000000
0000000000
001FFF8000
00FFFFF000
03FFFFF800
0FFFFFFC00
07FFFFFE00
07FC07FF00
03E001FF00
0300007F00
0000007F80
0000003F80
0000003F80
0000003F80
0000001F80
0000001F80
0000001F80
0000001F80
0000001F80
0001FFFF80
003FFFFF80
01FFFFFF80
07FFFFFF80
0FFFFFFF80
3FFE001F80
3FE0001F80
7F80001F80
FF00001F80
FF00003F80
FE00003F80
FE00003F80
FE00003F80
FE00003F80
FE00007F80
FE00007F80
FE0000FF80
FF0001FF80
FF8007FF80
7FC01FDF80
7FFFFFDF80
3FFFFF8F80
1FFFFE0F80
0FFFFC0F80
03FFF00F80
007F000000
ENDCHAR
STARTCHAR 0102
ENCODING 258
SWIDTH 630 0
DWIDTH 49 0
BBX 49 71 0 0
BITMAP
00078000F80000
00078000F00000
0007C001F00000
0007E003F00000
0003FFFFE00000
0003FFFFE00000
0001FFFFC00000
0000FFFF800000
00003FFE000000
00000FF8000000
00000000000000
00000000000000
00000000000000
00000000000000
00000000000000
000003F0000000
000007F0000000
000007F8000000
00000FF8000000
00000FFC000000
00000FFC000000
00001FFC000000
00001FFE000000
00003F7E000000
00003F7F000000
00003F3F000000
00007F3F000000
00007E3F800000
00007E1F800000
0000FE1FC00000
0000FC1FC00000
0001FC0FC00000
0001FC0FE00000
0001F80FE00000
0003F807E00000
0003F807F00000
0007F007F00000
0007F003F80000
0007E003F80000
000FE001F80000
000FE001FC0000
001FC001FC0000
001FC000FE0000
001FC000FE0000
003F8000FE0000
003F80007F0000
003F00007F0000
007F00003F8000
007FFFFFFF8000
00FFFFFFFF8000
00FFFFFFFFC000
00FFFFFFFFC000
01FFFFFFFFC000
01FFFFFFFFE000
03F800000FE000
03F800000FF000
03F8000007F000
07F0000007F000
07F0000003F800
0FF0000003F800
0FE0000003FC00
0FE0000001FC00
1FC0000001FC00
1FC0000001FE00
1FC0000000FE00
3F80000000FE00
3F800000007F00
7F000000007F00
7F000000007F80
7F000000003F80
FE000000003F80
ENDCHAR
STARTCHAR 0103
ENCODING 259
SWIDTH 552 0
DWIDTH 43 0
BBX 33 59 4 -1
BITMAP
03C0003C00
03C0007C00
03C0007C00
03E000F800
01F001F800
01FFFFF000
00FFFFF000
00FFFFE000
007FFFC000
001FFF0000
0003F80000
0000000000
0000000000
0000000000
0000000000
0000000000
001FFF8000
00FFFFF000
03FFFFF800
0FFFFFFC00
07FFFFFE00
07FC07FF00
03E001FF00
0300007F00
0000007F80
0000003F80
0000003F80
0000003F80
0000001F80
0000001F80
0000001F80
0000001F80
0000001F80
0001FFFF80
003FFFFF80
01FFFFFF80
07FFFFFF80
0FFFFFFF80
3FFE001F80
3FE0001F80
7F80001F80
FF00001F80
FF00003F80
FE00003F80
FE00003F80
FE00003F80
FE00003F80
FE00007F80
FE00007F80
FE0000FF80
FF0001FF80
FF8007FF80
7FC01FDF80
7FFFFFDF80
3FFFFF8F80
1FFFFE0F80
0FFFFC0F80
03FFF00F80
007F000000
ENDCHAR
STARTCHAR 0104
ENCODING 260
SWIDTH 630 0
DWIDTH 49 0
BBX 50 73 0 -17
BITMAP
000003F0000000
000007F0000000
000007F8000000
00000FF8000000
00000FFC000000
00000FFC000000
00001FFC000000
00001FFE000000
00003F7E000000
00003F7F000000
00003F3F000000
00007F3F000000
00007E3F800000
00007E1F800000
0000FE1FC00000
0000FC1FC00000
0001FC0FC00000
0001FC0FE00000
0001F80FE00000
0003F807E00000
0003F807F00000
0007F007F00000
0007F003F80000
0007E003F80000
000FE001F80000
000FE001FC0000
001FC001FC0000
001FC000FE0000
001FC000FE0000
003F8000FE0000
003F80007F0000
003F00007F0000
007F00003F8000
007FFFFFFF8000
00FFFFFFFF8000
00FFFFFFFFC000
00FFFFFFFFC000
01FFFFFFFFC000
01FFFFFFFFE000
03F800000FE000
03F800000FF000
03F8000007F000
07F0000007F000
07F0000003F800
0FF0000003F800
0FE0000003FC00
0FE0000001FC00
1FC0000001FC00
1FC0000001FE00
1FC0000000FE00
3F80000000FE00
3F800000007F00
7F000000007F00
7F000000007F80
7F000000003F80
FE000000003F80
00000000003E00
00000000007C00
0000000000F800
0000000001F000
0000000003F000
0000000003E000
0000000007E000
0000000007E000
0000000007C000
0000000007C000
0000000007E000
0000000007E000
0000000007FFC0
0000000003FFC0
0000000003FFC0
0000000001FFC0
00000000007F80
ENDCHAR
STARTCHAR 0105
ENCODING 261
SWIDTH 552 0
DWIDTH 43 0
BBX 35 59 4 -17
BITMAP
001FFF8000
00FFFFF000
03FFFFF800
0FFFFFFC00
07FFFFFE00
07FC07FF00
03E001FF00
0300007F00
0000007F80
0000003F80
0000003F80
0000003F80
0000001F80
0000001F80
0000001F80
0000001F80
0000001F80
0001FFFF80
003FFFFF80
01FFFFFF80
07FFFFFF80
0FFFFFFF80
3FFE001F80
3FE0001F80
7F80001F80
FF00001F80
FF00003F80
FE00003F80
FE00003F80
FE00003F80
FE00003F80
FE00007F80
FE00007F80
FE0000FF80
FF0001FF80
FF8007FF80
7FC01FDF80
7FFFFFDF80
3FFFFF8F80
1FFFFE0F80
0FFFFC0F80
03FFF00F80
007F000F80
0000003F00
0000003E00
0000007C00
000000F800
000000F800
000001F000
000001F000
000001F000
000003F000
000003F000
000001F800
000001FEE0
000001FFE0
000000FFE0
0000007FE0
0000001FE0
ENDCHAR
STARTCHAR 0106
ENCODING 262
SWIDTH 630 0
DWIDTH 49 0
BBX 41 74 5 -1
BITMAP
0000001FF000
0000001FE000
0000003FC000
0000003FC000
0000007F8000
000000FF0000
000000FE0000
000001FC0000
000003F80000
000003F00000
000007E00000
00000FC00000
000000000000
000000000000
000000000000
000000000000
000000000000
00001FFFE000
0000FFFFFC00
0007FFFFFF80
000FFFFFFF80
003FFFFFFF80
007FFFFFFF80
00FFF800FF00
01FFC0001F00
03FF00000200
07FE00000000
0FFC00000000
0FF800000000
1FF000000000
1FE000000000
3FC000000000
3FC000000000
3F8000000000
7F8000000000
7F8000000000
7F0000000000
FF0000000000
FF0000000000
FF0000000000
FE0000000000
FE0000000000
FE0000000000
FE0000000000
FE0000000000
FE0000000000
FE0000000000
FE0000000000
FE0000000000
FE0000000000
FE0000000000
FF0000000000
FF0000000000
FF0000000000
7F0000000000
7F8000000000
7F8000000000
7F8000000000
3FC000000000
3FC000000000
1FE000000000
1FF000000000
0FF800000000
0FFC00000000
07FE00000000
03FF80000100
01FFE0000F00
01FFFF87FF00
007FFFFFFF00
003FFFFFFF00
001FFFFFFF00
0007FFFFFF00
0000FFFFF800
00000FFE0000
ENDCHAR
STARTCHAR 0107
ENCODING 263
SWIDTH 475 0
DWIDTH 37 0
BBX 31 61 4 -1
BITMAP
000007FC
000007F8
00000FF8
00000FF0
00001FE0
00003FC0
00003F80
00007F00
0000FE00
0000FC00
0001F800
0003F000
0003E000
00000000
00000000
00000000
00000000
00000000
0007FFE0
003FFFFC
007FFFFE
01FFFFFC
03FFFFFC
07FFFFF8
0FFC0038
0FF00000
1FE00000
1FC00000
3FC00000
3F800000
7F800000
7F000000
7F000000
7F000000
7F000000
FF000000
FE000000
FE000000
FE000000
FE000000
FE000000
FE000000
FE000000
FF000000
7F000000
7F000000
7F000000
7F800000
7F800000
3F800000
3FC00000
1FE00000
1FF00000
0FF8001C
07FF00FC
07FFFFFC
03FFFFFC
00FFFFFC
007FFFFC
000FFFF0
0001FE00
ENDCHAR
STARTCHAR 0108
ENCODING 264
SWIDTH 630 0
DWIDTH 49 0
BBX 41 74 5 -1
BITMAP
00000FF80000
00000FF80000
00001FFC0000
00003FFE0000
00007FFF0000
00007F7F0000
0000FE3F8000
0001FC1FC000
0003F80FE000
0007E007F000
000FC001F800
001F8000FC00
000000000000
000000000000
000000000000
000000000000
000000000000
00001FFFE000
0000FFFFFC00
0007FFFFFF80
000FFFFFFF80
003FFFFFFF80
007FFFFFFF80
00FFF800FF00
01FFC0001F00
03FF00000200
07FE00000000
0FFC00000000
0FF800000000
1FF000000000
1FE000000000
3FC000000000
3FC000000000
3F8000000000
7F8000000000
7F8000000000
7F0000000000
FF0000000000
FF0000000000
FF0000000000
FE0000000000
FE0000000000
FE0000000000
FE0000000000
FE0000000000
FE0000000000
FE0000000000
FE0000000000
FE0000000000
FE0000000000
FE0000000000
FF0000000000
FF0000000000
FF0000000000
7F0000000000
7F8000000000
7F8000000000
7F8000000000
3FC000000000
3FC000000000
1FE000000000
1FF000000000
0FF800000000
0FFC00000000
07FE00000000
03FF80000100
01FFE0000F00
01FFFF87FF00
007FFFFFFF00
003FFFFFFF00
001FFFFFFF00
0007FFFFFF00
0000FFFFF800
00000FFE0000
ENDCHAR
STARTCHAR 0109
ENCODING 265
SWIDTH 475 0
DWIDTH 37 0
BBX 31 61 4 -1
BITMAP
0003FC00
0003FC00
0007FE00
000FFF00
000FFF00
001FFF80
003F9FC0
007F0FE0
00FE07F0
01FC03F8
03F801FC
07F000FE
07C0003E
00000000
00000000
00000000
00000000
00000000
0007FFE0
003FFFFC
007FFFFE
01FFFFFC
03FFFFFC
07FFFFF8
0FFC0038
0FF00000
1FE00000
1FC00000
3FC00000
3F800000
7F800000
7F000000
7F000000
7F000000
7F000000
FF000000
FE000000
FE000000
FE000000
FE000000
FE000000
FE000000
FE000000
FF000000
7F000000
7F000000
7F000000
7F800000
7F800000
3F800000
3FC00000
1FE00000
1FF00000
0FF8001C
07FF00FC
07FFFFFC
03FFFFFC
00FFFFFC
007FFFFC
000FFFF0
0001FE00
ENDCHAR
STARTCHAR 010A
ENCODING 266
SWIDTH 630 0
DWIDTH 49 0
BBX 41 72 5 -1
BITMAP
000003E00000
000007F00000
000007F00000
000007F80000
000007F80000
000007F00000
000007F00000
000003E00000
000000800000
000000000000
000000000000
000000000000
000000000000
000000000000
000000000000
00001FFFE000
0000FFFFFC00
0007FFFFFF80
000FFFFFFF80
003FFFFFFF80
007FFFFFFF80
00FFF800FF00
01FFC0001F00
03FF00000200
07FE00000000
0FFC00000000
0FF800000000
1FF000000000
1FE000000000
3FC000000000
3FC000000000
3F8000000000
7F8000000000
7F8000000000
7F0000000000
FF0000000000
FF0000000000
FF0000000000
FE0000000000
FE0000000000
FE0000000000
FE0000000000
FE0000000000
FE0000000000
FE0000000000
FE0000000000
FE0000000000
FE0000000000
FE0000000000
FF0000000000
FF0000000000
FF0000000000
7F0000000000
7F8000000000
7F8000000000
7F8000000000
3FC000000000
3FC000000000
1FE000000000
1FF000000000
0FF800000000
0FFC00000000
07FE00000000
03FF80000100
01FFE0000F00
01FFFF87FF00
007FFFFFFF00
003FFFFFFF00
001FFFFFFF00
0007FFFFFF00
0000FFFFF800
00000FFE0000
ENDCHAR
STARTCHAR 010B
ENCODING 267
SWIDTH 475 0
DWIDTH 37 0
BBX 31 58 4 -1
BITMAP
0000F800
0001FC00
0003FC00
0003FC00
0003FC00
0003FC00
0001FC00
0000F800
00000000
00000000
00000000
00000000
00000000
00000000
00000000
0007FFE0
003FFFFC
007FFFFE
01FFFFFC
03FFFFFC
07FFFFF8
0FFC0038
0FF00000
1FE00000
1FC00000
3FC00000
3F800000
7F800000
7F000000
7F000000
7F000000
7F000000
FF000000
FE000000
FE000000
FE000000
FE000000
FE000000
FE000000
FE000000
FF000000
7F000000
7F000000
7F000000
7F800000
7F800000
3F800000
3FC00000
1FE00000
1FF00000
0FF8001C
07FF00FC
07FFFFFC
03FFFFFC
00FFFFFC
007FFFFC
000FFFF0
0001FE00
ENDCHAR
STARTCHAR 010C
ENCODING 268
SWIDTH 630 0
DWIDTH 49 0
BBX 41 74 5 -1
BITMAP
001F8000FC00
000FE003F800
0007F007F000
0003F80FE000
0001FC1FC000
0000FE3F8000
00007F7F0000
00003FFE0000
00001FFC0000
00001FFC0000
00000FF80000
000007F00000
000000000000
000000000000
000000000000
000000000000
000000000000
00001FFFE000
0000FFFFFC00
0007FFFFFF80
000FFFFFFF80
003FFFFFFF80
007FFFFFFF80
00FFF800FF00
01FFC0001F00
03FF00000200
07FE00000000
0FFC00000000
0FF800000000
1FF000000000
1FE000000000
3FC000000000
3FC000000000
3F8000000000
7F8000000000
7F8000000000
7F0000000000
FF0000000000
FF0000000000
FF0000000000
FE0000000000
FE0000000000
FE0000000000
FE0000000000
FE0000000000
FE0000000000
FE0000000000
FE0000000000
FE0000000000
FE0000000000
FE0000000000
FF0000000000
FF0000000000
FF0000000000
7F0000000000
7F8000000000
7F8000000000
7F8000000000
3FC000000000
3FC000000000
1FE000000000
1FF000000000
0FF800000000
0FFC00000000
07FE00000000
03FF80000100
01FFE0000F00
01FFFF87FF00
007FFFFFFF00
003FFFFFFF00
001FFFFFFF00
0007FFFFFF00
0000FFFFF800
00000FFE0000
ENDCHAR
STARTCHAR 010D
ENCODING 269
SWIDTH 475 0
DWIDTH 37 0
BBX 31 61 4 -1
BITMAP
07C0003E
07E0007E
03F000FC
01FC03F8
00FE07F0
007F0FE0
003F9FC0
003FFFC0
001FFF80
000FFF00
0007FE00
0003FC00
0003FC00
00000000
00000000
00000000
00000000
00000000
0007FFE0
003FFFFC
007FFFFE
01FFFFFC
03FFFFFC
07FFFFF8
0FFC0038
0FF00000
1FE00000
1FC00000
3FC00000
3F800000
7F800000
7F000000
7F000000
7F000000
7F000000
FF000000
FE000000
FE000000
FE000000
FE000000
FE000000
FE000000
FE000000
FF000000
7F000000
7F000000
7F000000
7F800000
7F800000
3F800000
3FC00000
1FE00000
1FF00000
0FF8001C
07FF00FC
07FFFFFC
03FFFFFC
00FFFFFC
007FFFFC
000FFFF0
0001FE00
ENDCHAR
STARTCHAR 010E
ENCODING 270
SWIDTH 720 0
DWIDTH 56 0
BBX 44 73 8 0
BITMAP
01F8001F8000
00FC003F0000
007E00FE0000
003F81FC0000
001FC3F80000
001FE7F80000
000FFFF00000
0007FFE00000
0003FFC00000
0001FF800000
0000FF000000
0000FF000000
000000000000
000000000000
000000000000
000000000000
000000000000
FFFF80000000
FFFFFFC00000
FFFFFFF80000
FFFFFFFE0000
FFFFFFFF8000
FFFFFFFFC000
FE00FFFFF000
FE0000FFF800
FE00003FFC00
FE00000FFE00
FE000003FE00
FE000001FF00
FE000000FF80
FE0000007F80
FE0000007FC0
FE0000003FC0
FE0000001FC0
FE0000001FE0
FE0000001FE0
FE0000000FE0
FE0000000FE0
FE0000000FF0
FE0000000FF0
FE0000000FF0
FE0000000FF0
FE00000007F0
FE00000007F0
FE00000007F0
FE00000007F0
FE00000007F0
FE00000007F0
FE0000000FF0
FE0000000FF0
FE0000000FF0
FE0000000FF0
FE0000000FE0
FE0000000FE0
FE0000001FE0
FE0000001FE0
FE0000003FC0
FE0000003FC0
FE0000007FC0
FE0000007F80
FE000000FF80
FE000001FF00
FE000003FE00
FE00000FFE00
FE00001FFC00
FE0000FFF800
FE000FFFF000
FFFFFFFFC000
FFFFFFFF8000
FFFFFFFE0000
FFFFFFF80000
FFFFFFC00000
FFFFFC000000
ENDCHAR
STARTCHAR 010F
ENCODING 271
SWIDTH 604 0
DWIDTH 47 0
BBX 50 60 4 -1
BITMAP
00000003F81FC0
00000003F81F80
00000003F83F80
00000003F83F80
00000003F83F00
00000003F83F00
00000003F83E00
00000003F87E00
00000003F87C00
00000003F87C00
00000003F8F800
00000003F8F000
00000003F80000
00000003F80000
00000003F80000
00000003F80000
00000003F80000
001FFF03F80000
007FFFC3F80000
00FFFFE1F80000
03FFFFF1F80000
07FFFFF9F80000
07FF03FDF80000
0FF8007FF80000
1FF0003FF80000
1FE0001FF80000
3FC0000FF80000
3FC0000FF80000
3F800007F80000
7F800007F80000
7F000003F80000
7F000003F80000
7F000003F80000
7F000003F80000
FF000003F80000
FE000003F80000
FE000003F80000
FE000003F80000
FE000003F80000
FE000003F80000
FE000003F80000
FE000003F80000
FF000003F80000
7F000003F80000
7F000003F80000
7F000003F80000
7F000003F80000
7F800007F80000
3F800007F80000
3FC0000FF80000
3FC0000FF80000
1FE0001FF80000
0FF8003FF80000
0FFE01FDF80000
07FFFFFDF80000
03FFFFF9F80000
01FFFFE1F80000
007FFFC1F80000
001FFF00F80000
0003F000000000
ENDCHAR
STARTCHAR 0110
ENCODING 272
SWIDTH 720 0
DWIDTH 56 0
BBX 50 56 2 0
BITMAP
03FFFE00000000
03FFFFFF000000
03FFFFFFE00000
03FFFFFFF80000
03FFFFFFFE0000
03FFFFFFFF0000
03F803FFFFC000
03F80003FFE000
03F80000FFF000
03F800003FF000
03F800000FF800
03F8000007FC00
03F8000003FE00
03F8000001FE00
03F8000001FF00
03F8000000FF00
03F80000007F00
03F80000007F80
03F80000007F80
03F80000003F80
03F80000003F80
03F80000003FC0
03F80000003FC0
03F80000003FC0
03F80000003FC0
03F80000001FC0
FFFFFFE0001FC0
FFFFFFE0001FC0
FFFFFFE0001FC0
FFFFFFE0001FC0
FFFFFFE0001FC0
FFFFFFE0003FC0
03F80000003FC0
03F80000003FC0
03F80000003FC0
03F80000003F80
03F80000003F80
03F80000007F80
03F80000007F80
03F8000000FF00
03F8000000FF00
03F8000001FF00
03F8000001FE00
03F8000003FE00
03F8000007FC00
03F800000FF800
03F800003FF800
03F800007FF000
03F80003FFE000
03F8003FFFC000
03FFFFFFFF0000
03FFFFFFFE0000
03FFFFFFF80000
03FFFFFFE00000
03FFFFFF000000
03FFFFF0000000
ENDCHAR
STARTCHAR 0111
ENCODING 273
SWIDTH 604 0
DWIDTH 47 0
BBX 43 60 4 -1
BITMAP
00000003F800
00000003F800
00000003F800
00000003F800
00000003F800
00000003F800
00000003F800
0003FFFFFFE0
0003FFFFFFE0
0003FFFFFFE0
0003FFFFFFE0
0003FFFFFFE0
00000003F800
00000003F800
00000003F800
00000003F800
00000003F800
000FFE03F800
003FFF83F800
00FFFFE3F800
01FFFFF1F800
03FFFFF9F800
07FFDFFDF800
0FFC00FFF800
1FF0003FF800
1FE0001FF800
3FC0000FF800
3FC0000FF800
3F800007F800
7F800007F800
7F000003F800
7F000003F800
7F000003F800
7F000003F800
FF000003F800
FF000003F800
FE000003F800
FE000003F800
FE000003F800
FE000003F800
FE000003F800
FF000003F800
FF000003F800
7F000003F800
7F000003F800
7F000003F800
7F800003F800
7F800007F800
3F800007F800
3FC0000FF800
3FE0000FF800
1FE0001FF800
0FF8003FF800
0FFE01FDF800
07FFFFF9F800
03FFFFF1F800
01FFFFE1F800
007FFFC1F800
001FFF00F800
0003F0000000
ENDCHAR
STARTCHAR 0112
ENCODING 274
SWIDTH 552 0
DWIDTH 43 0
BBX 31 67 8 0
BITMAP
0FFFFFE0
0FFFFFE0
0FFFFFE0
0FFFFFE0
0FFFFFE0
0FFFFFE0
00000000
00000000
00000000
00000000
00000000
FFFFFFFE
FFFFFFFE
FFFFFFFE
FFFFFFFE
FFFFFFFE
FFFFFFFE
FFFFFFFE
FE000000
FE000000
FE000000
FE000000
FE000000
FE000000
FE000000
FE000000
FE000000
FE000000
FE000000
FE000000
FE000000
FE000000
FE000000
FE000000
FE000000
FFFFFFF8
FFFFFFF8
FFFFFFF8
FFFFFFF8
FFFFFFF8
FFFFFFF8
FE000000
FE000000
FE000000
FE000000
FE000000
FE000000
FE000000
FE000000
FE000000
FE000000
FE000000
FE000000
FE000000
FE000000
FE000000
FE000000
FE000000
FE000000
FE000000
FE000000
FFFFFFFE
FFFFFFFE
FFFFFFFE
FFFFFFFE
FFFFFFFE
FFFFFFFE
ENDCHAR
STARTCHAR 0113
ENCODING 275
SWIDTH 552 0
DWIDTH 43 0
BBX 36 54 4 -1
BITMAP
01FFFFFC00
01FFFFFC00
01FFFFFC00
01FFFFFC00
01FFFFFC00
01FFFFFC00
0000000000
0000000000
0000000000
0000000000
0000000000
0007FF8000
003FFFE000
007FFFF800
01FFFFFC00
03FFFFFE00
07FF03FF00
0FF800FF80
0FF0007F80
1FE0003FC0
1FC0001FC0
3F80001FE0
3F80000FE0
7F00000FE0
7F00000FE0
7F000007F0
7F000007F0
7F000007F0
FFFFFFFFF0
FFFFFFFFF0
FFFFFFFFF0
FFFFFFFFF0
FFFFFFFFF0
FE00000000
FE00000000
FE00000000
7F00000000
7F00000000
7F00000000
7F00000000
7F80000000
3F80000000
3FC0000000
3FC0000000
1FE0000000
0FF0000040
0FFC0003C0
07FF803FC0
03FFFFFFC0
01FFFFFFC0
00FFFFFFC0
003FFFFF80
000FFFFC00
00007FC000
ENDCHAR
STARTCHAR 0114
ENCODING 276
SWIDTH 552 0
DWIDTH 43 0
BBX 31 71 8 0
BITMAP
0F0001F0
0F0001E0
0F8003E0
0FC007E0
07FFFFC0
07FFFFC0
03FFFF80
01FFFF00
007FFC00
001FF000
00000000
00000000
00000000
00000000
00000000
FFFFFFFE
FFFFFFFE
FFFFFFFE
FFFFFFFE
FFFFFFFE
FFFFFFFE
FFFFFFFE
FE000000
FE000000
FE000000
FE000000
FE000000
FE000000
FE000000
FE000000
FE000000
FE000000
FE000000
FE000000
FE000000
FE000000
FE000000
FE000000
FE000000
FFFFFFF8
FFFFFFF8
FFFFFFF8
FFFFFFF8
FFFFFFF8
FFFFFFF8
FE000000
FE000000
FE000000
FE000000
FE000000
FE000000
FE000000
FE000000
FE000000
FE000000
FE000000
FE000000
FE000000
FE000000
FE000000
FE000000
FE000000
FE000000
FE000000
FE000000
FFFFFFFE
FFFFFFFE
FFFFFFFE
FFFFFFFE
FFFFFFFE
FFFFFFFE
ENDCHAR
STARTCHAR 0115
ENCODING 277
SWIDTH 552 0
DWIDTH 43 0
BBX 36 59 4 -1
BITMAP
03C0003C00
03C0003C00
03E0007C00
01E0007C00
01F801F800
01FFFFF800
00FFFFF000
007FFFE000
003FFFC000
001FFF8000
0003FC0000
0000000000
0000000000
0000000000
0000000000
0000000000
0007FF8000
003FFFE000
007FFFF800
01FFFFFC00
03FFFFFE00
07FF03FF00
0FF800FF80
0FF0007F80
1FE0003FC0
1FC0001FC0
3F80001FE0
3F80000FE0
7F00000FE0
7F00000FE0
7F000007F0
7F000007F0
7F000007F0
FFFFFFFFF0
FFFFFFFFF0
FFFFFFFFF0
FFFFFFFFF0
FFFFFFFFF0
FE00000000
FE00000000
FE00000000
7F00000000
7F00000000
7F00000000
7F00000000
7F80000000
3F80000000
3FC0000000
3FC0000000
1FE0000000
0FF0000040
0FFC0003C0
07FF803FC0
03FFFFFFC0
01FFFFFFC0
00FFFFFFC0
003FFFFF80
000FFFFC00
00007FC000
ENDCHAR
STARTCHAR 0116
ENCODING 278
SWIDTH 552 0
DWIDTH 43 0
BBX 31 71 8 0
BITMAP
0007C000
000FE000
000FF000
000FF000
000FF000
000FF000
000FE000
0007E000
00000000
00000000
00000000
00000000
00000000
00000000
00000000
FFFFFFFE
FFFFFFFE
FFFFFFFE
FFFFFFFE
FFFFFFFE
FFFFFFFE
FFFFFFFE
FE000000
FE000000
FE000000
FE000000
FE000000
FE000000
FE000000
FE000000
FE000000
FE000000
FE000000
FE000000
FE000000
FE000000
FE000000
FE000000
FE000000
FFFFFFF8
FFFFFFF8
FFFFFFF8
FFFFFFF8
FFFFFFF8
FFFFFFF8
FE000000
FE000000
FE000000
FE000000
FE000000
FE000000
FE000000
FE000000
FE000000
FE000000
FE000000
FE000000
FE000000
FE000000
FE000000
FE000000
FE000000
FE000000
FE000000
FE000000
FFFFFFFE
FFFFFFFE
FFFFFFFE
FFFFFFFE
FFFFFFFE
FFFFFFFE
ENDCHAR
STARTCHAR 0117
ENCODING 279
SWIDTH 552 0
DWIDTH 43 0
BBX 36 58 4 -1
BITMAP
0000F80000
0001FC0000
0003FC0000
0003FC0000
0003FC0000
0003FC0000
0001FC0000
0000F80000
0000000000
0000000000
0000000000
0000000000
0000000000
0000000000
0000000000
0007FF8000
003FFFE000
007FFFF800
01FFFFFC00
03FFFFFE00
07FF03FF00
0FF800FF80
0FF0007F80
1FE0003FC0
1FC0001FC0
3F80001FE0
3F80000FE0
7F00000FE0
7F00000FE0
7F000007F0
7F000007F0
7F000007F0
FFFFFFFFF0
FFFFFFFFF0
FFFFFFFFF0
FFFFFFFFF0
FFFFFFFFF0
FE00000000
FE00000000
FE00000000
7F00000000
7F00000000
7F00000000
7F00000000
7F80000000
3F80000000
3FC0000000
3FC0000000
1FE0000000
0FF0000040
0FFC0003C0
07FF803FC0
03FFFFFFC0
01FFFFFFC0
00FFFFFFC0
003FFFFF80
000FFFFC00
00007FC000
ENDCHAR
STARTCHAR 0118
ENCODING 280
SWIDTH 552 0
DWIDTH 43 0
BBX 31 73 8 -17
BITMAP
FFFFFFFE
FFFFFFFE
FFFFFFFE
FFFFFFFE
FFFFFFFE
FFFFFFFE
FFFFFFFE
FE000000
FE000000
FE000000
FE000000
FE000000
FE000000
FE000000
FE000000
FE000000
FE000000
FE000000
FE000000
FE000000
FE000000
FE000000
FE000000
FE000000
FFFFFFF8
FFFFFFF8
FFFFFFF8
FFFFFFF8
FFFFFFF8
FFFFFFF8
FE000000
FE000000
FE000000
FE000000
FE000000
FE000000
FE000000
FE000000
FE000000
FE000000
FE000000
FE000000
FE000000
FE000000
FE000000
FE000000
FE000000
FE000000
FE000000
FE000000
FFFFFFFE
FFFFFFFE
FFFFFFFE
FFFFFFFE
FFFFFFFE
FFFFFFFE
000003F0
000007E0
00000FC0
00000F80
00001F00
00003F00
00003E00
00003E00
00007E00
00007E00
00007E00
00007F00
00003FDC
00003FFC
00001FFC
00000FFC
000007FC
ENDCHAR
STARTCHAR 0119
ENCODING 281
SWIDTH 552 0
DWIDTH 43 0
BBX 36 59 4 -17
BITMAP
0007FF8000
003FFFE000
007FFFF800
01FFFFFC00
03FFFFFE00
07FF03FF00
0FF800FF80
0FF0007F80
1FE0003FC0
1FC0001FC0
3F80001FE0
3F80000FE0
7F00000FE0
7F00000FE0
7F000007F0
7F000007F0
7F000007F0
FFFFFFFFF0
FFFFFFFFF0
FFFFFFFFF0
FFFFFFFFF0
FFFFFFFFF0
FE00000000
FE00000000
FE00000000
7F00000000
7F00000000
7F00000000
7F00000000
7F80000000
3F80000000
3FC0000000
3FC0000000
1FE0000000
0FF0000040
0FFC0003C0
07FF803FC0
03FFFFFFC0
01FFFFFFC0
00FFFFFFC0
003FFFFF80
000FFFFF00
00007FBE00
0000007C00
000000F800
000001F000
000003F000
000003E000
000007E000
000007C000
000007C000
000007C000
000007C000
000007E000
000007FF80
000007FF80
000003FF80
000001FF80
0000007F80
ENDCHAR
STARTCHAR 011A
ENCODING 282
SWIDTH 552 0
DWIDTH 43 0
BBX 31 73 8 0
BITMAP
1F8001F8
1FC007F0
0FE00FE0
07F01FC0
03F83F80
01FC7F00
00FEFE00
007FFC00
003FFC00
003FF800
001FF000
000FE000
00000000
00000000
00000000
00000000
00000000
FFFFFFFE
FFFFFFFE
FFFFFFFE
FFFFFFFE
FFFFFFFE
FFFFFFFE
FFFFFFFE
FE000000
FE000000
FE000000
FE000000
FE000000
FE000000
FE000000
FE000000
FE000000
FE000000
FE000000
FE000000
FE000000
FE000000
FE000000
FE000000
FE000000
FFFFFFF8
FFFFFFF8
FFFFFFF8
FFFFFFF8
FFFFFFF8
FFFFFFF8
FE000000
FE000000
FE000000
FE000000
FE000000
FE000000
FE000000
FE000000
FE000000
FE000000
FE000000
FE000000
FE000000
FE000000
FE000000
FE000000
FE000000
FE000000
FE000000
FE000000
FFFFFFFE
FFFFFFFE
FFFFFFFE
FFFFFFFE
FFFFFFFE
FFFFFFFE
ENDCHAR
STARTCHAR 011B
ENCODING 283
SWIDTH 552 0
DWIDTH 43 0
BBX 36 61 4 -1
BITMAP
07C0003E00
07E0007E00
03F800FC00
01FC03F800
00FE07F000
007F0FE000
003F9FE000
001FFFC000
001FFF8000
000FFF0000
0007FE0000
0003FC0000
0003FC0000
0000000000
0000000000
0000000000
0000000000
0000000000
0007FF8000
003FFFE000
007FFFF800
01FFFFFC00
03FFFFFE00
07FF03FF00
0FF800FF80
0FF0007F80
1FE0003FC0
1FC0001FC0
3F80001FE0
3F80000FE0
7F00000FE0
7F00000FE0
7F000007F0
7F000007F0
7F000007F0
FFFFFFFFF0
FFFFFFFFF0
FFFFFFFFF0
FFFFFFFFF0
FFFFFFFFF0
FE00000000
FE00000000
FE00000000
7F00000000
7F00000000
7F00000000
7F00000000
7F80000000
3F80000000
3FC0000000
3FC0000000
1FE0000000
0FF0000040
0FFC0003C0
07FF803FC0
03FFFFFFC0
01FFFFFFC0
00FFFFFFC0
003FFFFF80
000FFFFC00
00007FC000
ENDCHAR
STARTCHAR 011C
ENCODING 284
SWIDTH 720 0
DWIDTH 56 0
BBX 46 74 5 -1
BITMAP
000003FC0000
000003FE0000
000007FF0000
00000FFF8000
00001FFFC000
00003FDFC000
00003F8FE000
00007F07F000
0000FE03F800
0001F801FC00
0003F0007E00
0007E0003F00
000000000000
000000000000
000000000000
000000000000
000000000000
00000FFFF800
00007FFFFF80
0003FFFFFFF0
0007FFFFFFF8
001FFFFFFFF0
003FFFFFFFF0
00FFFC001FF0
01FFE00003E0
03FF80000060
03FE00000000
07FC00000000
0FF800000000
1FF000000000
1FE000000000
3FE000000000
3FC000000000
3F8000000000
7F8000000000
7F8000000000
7F0000000000
FF0000000000
FF0000000000
FF0000000000
FE0000000000
FE0000000000
FE0000000000
FE0000000000
FE00001FFFFC
FE00001FFFFC
FE00001FFFFC
FE00001FFFFC
FE00001FFFFC
FE00001FFFFC
FE00000001FC
FF00000001FC
FF00000001FC
7F00000001FC
7F00000001FC
7F80000001FC
7F80000001FC
3F80000001FC
3FC0000001FC
3FE0000001FC
1FE0000001FC
1FF0000001FC
0FF8000001FC
07FC000001FC
07FE000001FC
03FF800001FC
01FFF00003FC
00FFFF01FFFC
007FFFFFFFFC
003FFFFFFFFC
000FFFFFFFFC
0003FFFFFFF0
00007FFFFF00
000003FF8000
ENDCHAR
STARTCHAR 011D
ENCODING 285
SWIDTH 604 0
DWIDTH 47 0
BBX 37 79 4 -19
BITMAP
0001FE0000
0001FE0000
0003FF0000
0007FF8000
0007FF8000
000FFFC000
001FCFE000
003F87F000
007F03F800
00FE01FC00
01FC00FE00
03F8007F00
03E0001F00
0000000000
0000000000
0000000000
0000000000
0000000000
001FFE00F8
007FFFC0F8
00FFFFE1F8
01FFFFF1F8
03FFFFF9F8
07FF07FDF8
0FF800FFF8
1FF0003FF8
1FE0001FF8
3FC0000FF8
3FC00007F8
3F800007F8
7F800007F8
7F000003F8
7F000003F8
7F000003F8
7F000003F8
FF000003F8
FE000003F8
FE000003F8
FE000001F8
FE000001F8
FE000001F8
FE000001F8
FE000003F8
FF000003F8
7F000003F8
7F000003F8
7F000003F8
7F000003F8
7F800007F8
3F800007F8
3FC00007F8
1FC0000FF8
1FE0001FF8
0FF8003FF8
0FFE01FDF8
07FFFFFDF8
03FFFFF9F8
01FFFFF3F8
007FFFC3F8
001FFF03F8
0003F003F8
00000003F8
00000003F8
00000003F8
00000003F8
00000003F8
00000003F8
00000007F0
0000000FF0
0000000FF0
0800001FE0
0F00007FE0
0FF001FFC0
0FFFFFFF80
0FFFFFFF00
0FFFFFFE00
07FFFFF800
00FFFFE000
0003F80000
ENDCHAR
STARTCHAR 011E
ENCODING 286
SWIDTH 720 0
DWIDTH 56 0
BBX 46 72 5 -1
BITMAP
0003E0003C00
0001E0003C00
0001F0007C00
0001F800FC00
0000FFFFF800
0000FFFFF000
00007FFFF000
00003FFFE000
00001FFF8000
000003FE0000
000000000000
000000000000
000000000000
000000000000
000000000000
00000FFFF800
00007FFFFF80
0003FFFFFFF0
0007FFFFFFF8
001FFFFFFFF0
003FFFFFFFF0
00FFFC001FF0
01FFE00003E0
03FF80000060
03FE00000000
07FC00000000
0FF800000000
1FF000000000
1FE000000000
3FE000000000
3FC000000000
3F8000000000
7F8000000000
7F8000000000
7F0000000000
FF0000000000
FF0000000000
FF0000000000
FE0000000000
FE0000000000
FE0000000000
FE0000000000
FE00001FFFFC
FE00001FFFFC
FE00001FFFFC
FE00001FFFFC
FE00001FFFFC
FE00001FFFFC
FE00000001FC
FF00000001FC
FF00000001FC
7F00000001FC
7F00000001FC
7F80000001FC
7F80000001FC
3F80000001FC
3FC0000001FC
3FE0000001FC
1FE0000001FC
1FF0000001FC
0FF8000001FC
07FC000001FC
07FE000001FC
03FF800001FC
01FFF00003FC
00FFFF01FFFC
007FFFFFFFFC
003FFFFFFFFC
000FFFFFFFFC
0003FFFFFFF0
00007FFFFF00
000003FF8000
ENDCHAR
STARTCHAR 011F
ENCODING 287
SWIDTH 604 0
DWIDTH 47 0
BBX 37 77 4 -19
BITMAP
01E0001E00
01E0001E00
01F0003E00
01F0003E00
00FC00FC00
00FFFFFC00
007FFFF800
003FFFF000
001FFFE000
000FFF8000
0001FC0000
0000000000
0000000000
0000000000
0000000000
0000000000
001FFE00F8
007FFFC0F8
00FFFFE1F8
01FFFFF1F8
03FFFFF9F8
07FF07FDF8
0FF800FFF8
1FF0003FF8
1FE0001FF8
3FC0000FF8
3FC00007F8
3F800007F8
7F800007F8
7F000003F8
7F000003F8
7F000003F8
7F000003F8
FF000003F8
FE000003F8
FE000003F8
FE000001F8
FE000001F8
FE000001F8
FE000001F8
FE000003F8
FF000003F8
7F000003F8
7F000003F8
7F000003F8
7F000003F8
7F800007F8
3F800007F8
3FC00007F8
1FC0000FF8
1FE0001FF8
0FF8003FF8
0FFE01FDF8
07FFFFFDF8
03FFFFF9F8
01FFFFF3F8
007FFFC3F8
001FFF03F8
0003F003F8
00000003F8
00000003F8
00000003F8
00000003F8
00000003F8
00000003F8
00000007F0
0000000FF0
0000000FF0
0800001FE0
0F00007FE0
0FF001FFC0
0FFFFFFF80
0FFFFFFF00
0FFFFFFE00
07FFFFF800
00FFFFE000
0003F80000
ENDCHAR
STARTCHAR 0120
ENCODING 288
SWIDTH 720 0
DWIDTH 56 0
BBX 46 72 5 -1
BITMAP
000000F80000
000001FC0000
000001FC0000
000001FC0000
000001FE0000
000001FC0000
000001FC0000
000000F80000
000000200000
000000000000
000000000000
000000000000
000000000000
000000000000
000000000000
00000FFFF800
00007FFFFF80
0003FFFFFFF0
0007FFFFFFF8
001FFFFFFFF0
003FFFFFFFF0
00FFFC001FF0
01FFE00003E0
03FF80000060
03FE00000000
07FC00000000
0FF800000000
1FF000000000
1FE000000000
3FE000000000
3FC000000000
3F8000000000
7F8000000000
7F8000000000
7F0000000000
FF0000000000
FF0000000000
FF0000000000
FE0000000000
FE0000000000
FE0000000000
FE0000000000
FE00001FFFFC
FE00001FFFFC
FE00001FFFFC
FE00001FFFFC
FE00001FFFFC
FE00001FFFFC
FE00000001FC
FF00000001FC
FF00000001FC
7F00000001FC
7F00000001FC
7F80000001FC
7F80000001FC
3F80000001FC
3FC0000001FC
3FE0000001FC
1FE0000001FC
1FF0000001FC
0FF8000001FC
07FC000001FC
07FE000001FC
03FF800001FC
01FFF00003FC
00FFFF01FFFC
007FFFFFFFFC
003FFFFFFFFC
000FFFFFFFFC
0003FFFFFFF0
00007FFFFF00
000003FF8000
ENDCHAR
STARTCHAR 0121
ENCODING 289
SWIDTH 604 0
DWIDTH 47 0
BBX 37 76 4 -19
BITMAP
00007C0000
0000FE0000
0001FE0000
0001FE0000
0001FE0000
0001FE0000
0000FE0000
00007C0000
0000000000
0000000000
0000000000
0000000000
0000000000
0000000000
0000000000
001FFE00F8
007FFFC0F8
00FFFFE1F8
01FFFFF1F8
03FFFFF9F8
07FF07FDF8
0FF800FFF8
1FF0003FF8
1FE0001FF8
3FC0000FF8
3FC00007F8
3F800007F8
7F800007F8
7F000003F8
7F000003F8
7F000003F8
7F000003F8
FF000003F8
FE000003F8
FE000003F8
FE000001F8
FE000001F8
FE000001F8
FE000001F8
FE000003F8
FF000003F8
7F000003F8
7F000003F8
7F000003F8
7F000003F8
7F800007F8
3F800007F8
3FC00007F8
1FC0000FF8
1FE0001FF8
0FF8003FF8
0FFE01FDF8
07FFFFFDF8
03FFFFF9F8
01FFFFF3F8
007FFFC3F8
001FFF03F8
0003F003F8
00000003F8
00000003F8
00000003F8
00000003F8
00000003F8
00000003F8
00000007F0
0000000FF0
0000000FF0
0800001FE0
0F00007FE0
0FF001FFC0
0FFFFFFF80
0FFFFFFF00
0FFFFFFE00
07FFFFF800
00FFFFE000
0003F80000
ENDCHAR
STARTCHAR 0122
ENCODING 290
SWIDTH 720 0
DWIDTH 56 0
BBX 46 73 5 -17
BITMAP
00000FFFF800
00007FFFFF80
0003FFFFFFF0
0007FFFFFFF8
001FFFFFFFF0
003FFFFFFFF0
00FFFC001FF0
01FFE00003E0
03FF80000060
03FE00000000
07FC00000000
0FF800000000
1FF000000000
1FE000000000
3FE000000000
3FC000000000
3F8000000000
7F8000000000
7F8000000000
7F0000000000
FF0000000000
FF0000000000
FF0000000000
FE0000000000
FE0000000000
FE0000000000
FE0000000000
FE00001FFFFC
FE00001FFFFC
FE00001FFFFC
FE00001FFFFC
FE00001FFFFC
FE00001FFFFC
FE00000001FC
FF00000001FC
FF00000001FC
7F00000001FC
7F00000001FC
7F80000001FC
7F80000001FC
3F80000001FC
3FC0000001FC
3FE0000001FC
1FE0000001FC
1FF0000001FC
0FF8000001FC
07FC000001FC
07FE000001FC
03FF800001FC
01FFF00003FC
00FFFF01FFFC
007FFFFFFFFC
003FFFFFFFFC
000FFFFFFFFC
0003FFFFFFF0
00007FFFFF00
000003FF8000
000000000000
000000000000
000000000000
000000000000
000000FE0000
000000FE0000
000000FE0000
000000FC0000
000000FC0000
000001F80000
000001F80000
000001F00000
000003F00000
000003E00000
000003C00000
000007C00000
ENDCHAR
STARTCHAR 0123
ENCODING 291
SWIDTH 604 0
DWIDTH 47 0
BBX 37 79 4 -19
BITMAP
00000F0000
00000F0000
00001F0000
00003E0000
00003E0000
00007E0000
00007C0000
0000FC0000
0000FC0000
0001FC0000
0001F80000
0003F80000
0003F80000
0000000000
0000000000
0000000000
0000000000
0000000000
001FFE00F8
007FFFC0F8
00FFFFE1F8
01FFFFF1F8
03FFFFF9F8
07FF07FDF8
0FF800FFF8
1FF0003FF8
1FE0001FF8
3FC0000FF8
3FC00007F8
3F800007F8
7F800007F8
7F000003F8
7F000003F8
7F000003F8
7F000003F8
FF000003F8
FE000003F8
FE000003F8
FE000001F8
FE000001F8
FE000001F8
FE000001F8
FE000003F8
FF000003F8
7F000003F8
7F000003F8
7F000003F8
7F000003F8
7F800007F8
3F800007F8
3FC00007F8
1FC0000FF8
1FE0001FF8
0FF8003FF8
0FFE01FDF8
07FFFFFDF8
03FFFFF9F8
01FFFFF3F8
007FFFC3F8
001FFF03F8
0003F003F8
00000003F8
00000003F8
00000003F8
00000003F8
00000003F8
00000003F8
00000007F0
0000000FF0
0000000FF0
0800001FE0
0F00007FE0
0FF001FFC0
0FFFFFFF80
0FFFFFFF00
0FFFFFFE00
07FFFFF800
00FFFFE000
0003F80000
ENDCHAR
STARTCHAR 0124
ENCODING 292
SWIDTH 732 0
DWIDTH 57 0
BBX 42 73 8 0
BITMAP
00007F800000
0000FF800000
0001FFC00000
0003FFE00000
0003FFF00000
0007F7F80000
000FE3FC0000
001FC1FE0000
003F80FE0000
007F003F0000
00FE001F8000
00F8000FC000
000000000000
000000000000
000000000000
000000000000
000000000000
FE0000001FC0
FE0000001FC0
FE0000001FC0
FE0000001FC0
FE0000001FC0
FE0000001FC0
FE0000001FC0
FE0000001FC0
FE0000001FC0
FE0000001FC0
FE0000001FC0
FE0000001FC0
FE0000001FC0
FE0000001FC0
FE0000001FC0
FE0000001FC0
FE0000001FC0
FE0000001FC0
FE0000001FC0
FE0000001FC0
FE0000001FC0
FE0000001FC0
FE0000001FC0
FE0000001FC0
FFFFFFFFFFC0
FFFFFFFFFFC0
FFFFFFFFFFC0
FFFFFFFFFFC0
FFFFFFFFFFC0
FFFFFFFFFFC0
FE0000001FC0
FE0000001FC0
FE0000001FC0
FE0000001FC0
FE0000001FC0
FE0000001FC0
FE0000001FC0
FE0000001FC0
FE0000001FC0
FE0000001FC0
FE0000001FC0
FE0000001FC0
FE0000001FC0
FE0000001FC0
FE0000001FC0
FE0000001FC0
FE0000001FC0
FE0000001FC0
FE0000001FC0
FE0000001FC0
FE0000001FC0
FE0000001FC0
FE0000001FC0
FE0000001FC0
FE0000001FC0
FE0000001FC0
ENDCHAR
STARTCHAR 0125
ENCODING 293
SWIDTH 617 0
DWIDTH 48 0
BBX 45 77 -3 0
BITMAP
007F80000000
007F80000000
00FFC0000000
01FFE0000000
03FFF0000000
07FFF8000000
07F3F8000000
0FE1FC000000
1FC0FE000000
3F807F000000
7E001F800000
FC000FC00000
000000000000
000000000000
000000000000
000000000000
000000000000
000000000000
003F00000000
003F00000000
003F00000000
003F00000000
003F00000000
003F00000000
003F00000000
003F00000000
003F00000000
003F00000000
003F00000000
003F00000000
003F00000000
003F00000000
003F00000000
003F00000000
003F00000000
003F00FFF000
003F03FFFE00
003F0FFFFF00
003F1FFFFF80
003F3FFFFFC0
003F7FC1FFE0
003FFC003FE0
003FF8001FF0
003FF0000FF0
003FE00007F0
003FC00007F0
003FC00003F8
003FC00003F8
003F800003F8
003F800003F8
003F800003F8
003F800003F8
003F800003F8
003F800003F8
003F000003F8
003F000003F8
003F000003F8
003F000003F8
003F000003F8
003F000003F8
003F000003F8
003F000003F8
003F000003F8
003F000003F8
003F000003F8
003F000003F8
003F000003F8
003F000003F8
003F000003F8
003F000003F8
003F000003F8
003F000003F8
003F000003F8
003F000003F8
003F000003F8
003F000003F8
003F000003F8
ENDCHAR
STARTCHAR 0126
ENCODING 294
SWIDTH 732 0
DWIDTH 57 0
BBX 58 56 0 0
BITMAP
00FE0000001FC000
00FE0000001FC000
00FE0000001FC000
00FE0000001FC000
00FE0000001FC000
00FE0000001FC000
00FE0000001FC000
00FE0000001FC000
00FE0000001FC000
00FE0000001FC000
FFFFFFFFFFFFFFC0
FFFFFFFFFFFFFFC0
FFFFFFFFFFFFFFC0
FFFFFFFFFFFFFFC0
FFFFFFFFFFFFFFC0
00FE0000001FC000
00FE0000001FC000
00FE0000001FC000
00FE0000001FC000
00FE0000001FC000
00FE0000001FC000
00FE0000001FC000
00FE0000001FC000
00FE0000001FC000
00FFFFFFFFFFC000
00FFFFFFFFFFC000
00FFFFFFFFFFC000
00FFFFFFFFFFC000
00FFFFFFFFFFC000
00FFFFFFFFFFC000
00FE0000001FC000
00FE0000001FC000
00FE0000001FC000
00FE0000001FC000
00FE0000001FC000
00FE0000001FC000
00FE0000001FC000
00FE0000001FC000
00FE0000001FC000
00FE0000001FC000
00FE0000001FC000
00FE0000001FC000
00FE0000001FC000
00FE0000001FC000
00FE0000001FC000
00FE0000001FC000
00FE0000001FC000
00FE0000001FC000
00FE0000001FC000
00FE0000001FC000
00FE0000001FC000
00FE0000001FC000
00FE0000001FC000
00FE0000001FC000
00FE0000001FC000
00FE0000001FC000
ENDCHAR
STARTCHAR 0127
ENCODING 295
SWIDTH 617 0
DWIDTH 48 0
BBX 41 59 1 0
BITMAP
03F000000000
03F000000000
03F000000000
03F000000000
03F000000000
03F000000000
03F000000000
FFFFFFF80000
FFFFFFF80000
FFFFFFF80000
FFFFFFF80000
FFFFFFF80000
03F000000000
03F000000000
03F000000000
03F000000000
03F000000000
03F000000000
03F003FC0000
03F01FFFC000
03F07FFFE000
03F1FFFFF800
03F3FFFFFC00
03F7FFFFFC00
03F7F007FE00
03FF8001FE00
03FF0000FF00
03FE0000FF00
03FE00007F00
03FC00007F00
03FC00003F80
03F800003F80
03F800003F80
03F800003F80
03F800003F80
03F800003F80
03F800003F80
03F000003F80
03F000003F80
03F000003F80
03F000003F80
03F000003F80
03F000003F80
03F000003F80
03F000003F80
03F000003F80
03F000003F80
03F000003F80
03F000003F80
03F000003F80
03F000003F80
03F000003F80
03F000003F80
03F000003F80
03F000003F80
03F000003F80
03F000003F80
03F000003F80
03F000003F80
ENDCHAR
STARTCHAR 0128
ENCODING 296
SWIDTH 334 0
DWIDTH 26 0
BBX 28 71 -1 0
BITMAP
03E000F0
0FF800F0
1FFE00F0
3FFF81F0
3FFFFFE0
7FFFFFE0
7C0FFFC0
F807FFC0
F001FF80
F0007E00
00000000
00000000
00000000
00000000
00000000
0FFFFF00
0FFFFF00
0FFFFF00
0FFFFF00
0FFFFF00
00FFF000
001FC000
001FC000
001FC000
001FC000
001FC000
001FC000
001FC000
001FC000
001FC000
001FC000
001FC000
001FC000
001FC000
001FC000
001FC000
001FC000
001FC000
001FC000
001FC000
001FC000
001FC000
001FC000
001FC000
001FC000
001FC000
001FC000
001FC000
001FC000
001FC000
001FC000
001FC000
001FC000
001FC000
001FC000
001FC000
001FC000
001FC000
001FC000
001FC000
001FC000
001FC000
001FC000
001FC000
001FC000
001FC000
03FFFC00
0FFFFF00
0FFFFF00
0FFFFF00
0FFFFF00
ENDCHAR
STARTCHAR 0129
ENCODING 297
SWIDTH 257 0
DWIDTH 20 0
BBX 28 57 -4 0
BITMAP
07F000F0
0FFC00F0
1FFE01F0
3FFF81F0
7FFFFFE0
7E7FFFE0
F80FFFC0
F807FF80
F001FF00
F0003C00
00000000
00000000
00000000
00000000
00000000
001F8000
001F8000
001F8000
001F8000
001F8000
001F8000
001F8000
001F8000
001F8000
001F8000
001F8000
001F8000
001F8000
001F8000
001F8000
001F8000
001F8000
001F8000
001F8000
001F8000
001F8000
001F8000
001F8000
001F8000
001F8000
001F8000
001F8000
001F8000
001F8000
001F8000
001F8000
001F8000
001F8000
001F8000
001F8000
001F8000
001F8000
001F8000
001F8000
001F8000
001F8000
001F8000
ENDCHAR
STARTCHAR 012A
ENCODING 298
SWIDTH 334 0
DWIDTH 26 0
BBX 23 67 2 0
BITMAP
FFFFFE
FFFFFE
FFFFFE
FFFFFE
FFFFFE
FFFFFE
000000
000000
000000
000000
000000
7FFFF8
7FFFF8
7FFFF8
7FFFF8
7FFFF8
07FF80
00FE00
00FE00
00FE00
00FE00
00FE00
00FE00
00FE00
00FE00
00FE00
00FE00
00FE00
00FE00
00FE00
00FE00
00FE00
00FE00
00FE00
00FE00
00FE00
00FE00
00FE00
00FE00
00FE00
00FE00
00FE00
00FE00
00FE00
00FE00
00FE00
00FE00
00FE00
00FE00
00FE00
00FE00
00FE00
00FE00
00FE00
00FE00
00FE00
00FE00
00FE00
00FE00
00FE00
00FE00
00FE00
1FFFE0
7FFFF8
7FFFF8
7FFFF8
7FFFF8
ENDCHAR
STARTCHAR 012B
ENCODING 299
SWIDTH 257 0
DWIDTH 20 0
BBX 24 53 -2 0
BITMAP
FFFFFF
FFFFFF
FFFFFF
FFFFFF
FFFFFF
FFFFFF
000000
000000
000000
000000
000000
007E00
007E00
007E00
007E00
007E00
007E00
007E00
007E00
007E00
007E00
007E00
007E00
007E00
007E00
007E00
007E00
007E00
007E00
007E00
007E00
007E00
007E00
007E00
007E00
007E00
007E00
007E00
007E00
007E00
007E00
007E00
007E00
007E00
007E00
007E00
007E00
007E00
007E00
007E00
007E00
007E00
007E00
ENDCHAR
STARTCHAR 012C
ENCODING 300
SWIDTH 334 0
DWIDTH 26 0
BBX 24 71 1 0
BITMAP
F0000F
F8001F
78001F
7C003E
7FFFFE
3FFFFC
1FFFF8
0FFFF0
07FFE0
00FF00
000000
000000
000000
000000
000000
3FFFFC
3FFFFC
3FFFFC
3FFFFC
3FFFFC
03FFC0
007F00
007F00
007F00
007F00
007F00
007F00
007F00
007F00
007F00
007F00
007F00
007F00
007F00
007F00
007F00
007F00
007F00
007F00
007F00
007F00
007F00
007F00
007F00
007F00
007F00
007F00
007F00
007F00
007F00
007F00
007F00
007F00
007F00
007F00
007F00
007F00
007F00
007F00
007F00
007F00
007F00
007F00
007F00
007F00
007F00
0FFFF0
3FFFFC
3FFFFC
3FFFFC
3FFFFC
ENDCHAR
STARTCHAR 012D
ENCODING 301
SWIDTH 257 0
DWIDTH 20 0
BBX 24 58 -2 0
BITMAP
F0000F
F0000F
F8001F
F8003E
7C007E
7FFFFE
3FFFFC
1FFFF8
0FFFF0
07FFC0
00FF00
000000
000000
000000
000000
000000
007E00
007E00
007E00
007E00
007E00
007E00
007E00
007E00
007E00
007E00
007E00
007E00
007E00
007E00
007E00
007E00
007E00
007E00
007E00
007E00
007E00
007E00
007E00
007E00
007E00
007E00
007E00
007E00
007E00
007E00
007E00
007E00
007E00
007E00
007E00
007E00
007E00
007E00
007E00
007E00
007E00
007E00
ENDCHAR
STARTCHAR 012E
ENCODING 302
SWIDTH 334 0
DWIDTH 26 0
BBX 20 73 3 -17
BITMAP
FFFFF0
FFFFF0
FFFFF0
FFFFF0
FFFFF0
0FFF00
01FC00
01FC00
01FC00
01FC00
01FC00
01FC00
01FC00
01FC00
01FC00
01FC00
01FC00
01FC00
01FC00
01FC00
01FC00
01FC00
01FC00
01FC00
01FC00
01FC00
01FC00
01FC00
01FC00
01FC00
01FC00
01FC00
01FC00
01FC00
01FC00
01FC00
01FC00
01FC00
01FC00
01FC00
01FC00
01FC00
01FC00
01FC00
01FC00
01FC00
01FC00
01FC00
01FC00
01FC00
01FC00
3FFFC0
FFFFF0
FFFFF0
FFFFF0
FFFFF0
000FC0
001F80
003F00
003E00
007C00
00FC00
00F800
00F800
01F800
01F800
01F800
01FC00
00FF70
00FFF0
007FF0
003FF0
001FF0
ENDCHAR
STARTCHAR 012F
ENCODING 303
SWIDTH 257 0
DWIDTH 20 0
BBX 13 74 2 -17
BITMAP
03E0
07E0
0FF0
0FF0
0FF0
0FF0
07F0
07E0
0000
0000
0000
0000
0000
0000
0000
07E0
07E0
07E0
07E0
07E0
07E0
07E0
07E0
07E0
07E0
07E0
07E0
07E0
07E0
07E0
07E0
07E0
07E0
07E0
07E0
07E0
07E0
07E0
07E0
07E0
07E0
07E0
07E0
07E0
07E0
07E0
07E0
07E0
07E0
07E0
07E0
07E0
07E0
07E0
07E0
07E0
07E0
07C0
0FC0
1F80
3F00
3E00
7C00
7C00
FC00
FC00
FC00
FC00
FC00
FFF8
7FF8
7FF8
3FF8
0FF8
ENDCHAR
STARTCHAR 0130
ENCODING 304
SWIDTH 334 0
DWIDTH 26 0
BBX 20 71 3 0
BITMAP
00F800
01FC00
03FC00
03FC00
03FC00
03FC00
01FC00
01F800
006000
000000
000000
000000
000000
000000
000000
FFFFF0
FFFFF0
FFFFF0
FFFFF0
FFFFF0
0FFF00
01FC00
01FC00
01FC00
01FC00
01FC00
01FC00
01FC00
01FC00
01FC00
01FC00
01FC00
01FC00
01FC00
01FC00
01FC00
01FC00
01FC00
01FC00
01FC00
01FC00
01FC00
01FC00
01FC00
01FC00
01FC00
01FC00
01FC00
01FC00
01FC00
01FC00
01FC00
01FC00
01FC00
01FC00
01FC00
01FC00
01FC00
01FC00
01FC00
01FC00
01FC00
01FC00
01FC00
01FC00
01FC00
3FFFC0
FFFFF0
FFFFF0
FFFFF0
FFFFF0
ENDCHAR
STARTCHAR 0131
ENCODING 305
SWIDTH 257 0
DWIDTH 20 0
BBX 6 42 7 0
BITMAP
FC
FC
FC
FC
FC
FC
FC
FC
FC
FC
FC
FC
FC
FC
FC
FC
FC
FC
FC
FC
FC
FC
FC
FC
FC
FC
FC
FC
FC
FC
FC
FC
FC
FC
FC
FC
FC
FC
FC
FC
FC
FC
ENDCHAR
STARTCHAR 0132
ENCODING 306
SWIDTH 604 0
DWIDTH 47 0
BBX 38 71 3 -15
BITMAP
FFFFF001FC
FFFFF001FC
FFFFF001FC
FFFFF001FC
FFFFF001FC
0FFF0001FC
01FC0001FC
01FC0001FC
01FC0001FC
01FC0001FC
01FC0001FC
01FC0001FC
01FC0001FC
01FC0001FC
01FC0001FC
01FC0001FC
01FC0001FC
01FC0001FC
01FC0001FC
01FC0001FC
01FC0001FC
01FC0001FC
01FC0001FC
01FC0001FC
01FC0001FC
01FC0001FC
01FC0001FC
01FC0001FC
01FC0001FC
01FC0001FC
01FC0001FC
01FC0001FC
01FC0001FC
01FC0001FC
01FC0001FC
01FC0001FC
01FC0001FC
01FC0001FC
01FC0001FC
01FC0001FC
01FC0001FC
01FC0001FC
01FC0001FC
01FC0001FC
01FC0001FC
01FC0001FC
01FC0001FC
01FC0001FC
01FC0001FC
01FC0001FC
01FC0001FC
3FFFC001FC
FFFFF001FC
FFFFF001FC
FFFFF001FC
FFFFF001FC
00000003FC
00000003F8
00000003F8
00000003F8
00000003F8
00000007F8
0000000FF0
0000001FF0
000078FFE0
00007FFFE0
00007FFFC0
00007FFF80
00007FFF00
00007FFC00
00000FE000
ENDCHAR
STARTCHAR 0133
ENCODING 307
SWIDTH 514 0
DWIDTH 40 0
BBX 28 76 6 -19
BITMAP
3E0003E0
7E0007F0
FF000FF0
FF000FF0
FF000FF0
FF000FF0
7F0007F0
7E0003E0
00000000
00000000
00000000
00000000
00000000
00000000
00000000
7E0007F0
7E0007F0
7E0007F0
7E0007F0
7E0007F0
7E0007F0
7E0007F0
7E0007F0
7E0007F0
7E0007F0
7E0007F0
7E0007F0
7E0007F0
7E0007F0
7E0007F0
7E0007F0
7E0007F0
7E0007F0
7E0007F0
7E0007F0
7E0007F0
7E0007F0
7E0007F0
7E0007F0
7E0007F0
7E0007F0
7E0007F0
7E0007F0
7E0007F0
7E0007F0
7E0007F0
7E0007F0
7E0007F0
7E0007F0
7E0007F0
7E0007F0
7E0007F0
7E0007F0
7E0007F0
7E0007F0
7E0007F0
7E0007F0
000007F0
000007F0
000007F0
000007F0
000007F0
000007F0
000007F0
000007E0
00000FE0
00000FE0
00000FE0
00001FE0
00203FC0
003FFFC0
003FFF80
003FFF80
003FFF00
003FFC00
0003C000
ENDCHAR
STARTCHAR 0134
ENCODING 308
SWIDTH 270 0
DWIDTH 21 0
BBX 30 88 -6 -15
BITMAP
000FF800
000FF800
001FFC00
003FFE00
007FFF00
007F7F80
00FE3F80
01FC1FC0
03F80FE0
07F007F0
0FC001F8
0F8000FC
00000000
00000000
00000000
00000000
00000000
0007F000
0007F000
0007F000
0007F000
0007F000
0007F000
0007F000
0007F000
0007F000
0007F000
0007F000
0007F000
0007F000
0007F000
0007F000
0007F000
0007F000
0007F000
0007F000
0007F000
0007F000
0007F000
0007F000
0007F000
0007F000
0007F000
0007F000
0007F000
0007F000
0007F000
0007F000
0007F000
0007F000
0007F000
0007F000
0007F000
0007F000
0007F000
0007F000
0007F000
0007F000
0007F000
0007F000
0007F000
0007F000
0007F000
0007F000
0007F000
0007F000
0007F000
0007F000
0007F000
0007F000
0007F000
0007F000
0007F000
0007F000
0007F000
0007F000
0007F000
000FF000
000FE000
001FE000
003FE000
F1FFC000
FFFF8000
FFFF8000
FFFF0000
FFFC0000
FFF00000
3F800000
ENDCHAR
STARTCHAR 0135
ENCODING 309
SWIDTH 257 0
DWIDTH 20 0
BBX 27 79 -4 -19
BITMAP
003FC000
003FC000
007FE000
00FFF000
00FFF000
01FFF800
03FBFC00
07F0FE00
0FE07F00
1FC03F80
3F801FC0
7F000FE0
7C0003E0
00000000
00000000
00000000
00000000
00000000
001F8000
001F8000
001F8000
001F8000
001F8000
001F8000
001F8000
001F8000
001F8000
001F8000
001F8000
001F8000
001F8000
001F8000
001F8000
001F8000
001F8000
001F8000
001F8000
001F8000
001F8000
001F8000
001F8000
001F8000
001F8000
001F8000
001F8000
001F8000
001F8000
001F8000
001F8000
001F8000
001F8000
001F8000
001F8000
001F8000
001F8000
001F8000
001F8000
001F8000
001F8000
001F8000
001F8000
001F8000
001F8000
001F8000
001F8000
001F8000
001F8000
001F8000
003F8000
003F8000
003F8000
007F8000
81FF0000
FFFF0000
FFFE0000
FFFE0000
FFF80000
FFF00000
1F000000
ENDCHAR
STARTCHAR 0136
ENCODING 310
SWIDTH 617 0
DWIDTH 48 0
BBX 40 73 8 -17
BITMAP
FE000001FE
FE000003FC
FE000007F8
FE00000FF8
FE00000FF0
FE00001FE0
FE00003FC0
FE00007F80
FE0000FF00
FE0001FE00
FE0003FC00
FE0007F800
FE000FF000
FE001FE000
FE001FE000
FE003FC000
FE007F8000
FE00FF0000
FE01FE0000
FE03FC0000
FE07F80000
FE0FF00000
FE1FE00000
FE3FC00000
FE3F800000
FE7FC00000
FEFFE00000
FFFFE00000
FFFFF00000
FFFFF80000
FFE7FC0000
FFC3FC0000
FF83FE0000
FF01FF0000
FE00FF0000
FE007F8000
FE007FC000
FE003FE000
FE001FE000
FE000FF000
FE000FF800
FE0007FC00
FE0003FC00
FE0001FE00
FE0001FF00
FE0000FF00
FE00007F80
FE00003FC0
FE00003FE0
FE00001FE0
FE00000FF0
FE000007F8
FE000007FC
FE000003FC
FE000001FE
FE000000FF
0000000000
0000000000
0000000000
0000000000
0000000000
0000FE0000
0000FC0000
0001FC0000
0001FC0000
0001F80000
0001F80000
0003F00000
0003F00000
0003E00000
0007C00000
0007C00000
0007800000
ENDCHAR
STARTCHAR 0137
ENCODING 311
SWIDTH 527 0
DWIDTH 41 0
BBX 33 76 7 -17
BITMAP
FC00000000
FC00000000
FC00000000
FC00000000
FC00000000
FC00000000
FC00000000
FC00000000
FC00000000
FC00000000
FC00000000
FC00000000
FC00000000
FC00000000
FC00000000
FC00000000
FC00000000
FC0000FF80
FC0000FF00
FC0001FE00
FC0003FC00
FC0007F800
FC000FF000
FC001FE000
FC003FC000
FC007F8000
FC00FF0000
FC01FE0000
FC03FC0000
FC07F80000
FC0FF00000
FC1FE00000
FC3FC00000
FC3F800000
FC7F000000
FCFF000000
FDFF800000
FFFFC00000
FFFFC00000
FFFFE00000
FFCFF00000
FF87F80000
FF07F80000
FE03FC0000
FC01FE0000
FC00FF0000
FC00FF0000
FC007F8000
FC003FC000
FC001FE000
FC001FE000
FC000FF000
FC0007F800
FC0007FC00
FC0003FC00
FC0001FE00
FC0000FF00
FC0000FF80
FC00007F80
0000000000
0000000000
0000000000
0000000000
0000000000
000FE00000
000FC00000
000FC00000
001FC00000
001F800000
001F800000
003F000000
003F000000
003E000000
007C000000
007C000000
0078000000
ENDCHAR
STARTCHAR 0138
ENCODING 312
SWIDTH 527 0
DWIDTH 41 0
BBX 33 42 7 0
BITMAP
FE0000FF00
FE0001FF00
FE0003FE00
FE0003FC00
FE0007F800
FE000FF000
FE001FE000
FE003FC000
FE007FC000
FE007F8000
FE00FF0000
FE01FE0000
FE03FC0000
FE07F80000
FE0FF00000
FE1FF00000
FE1FE00000
FE3FC00000
FE7F800000
FEFF800000
FDFFC00000
FDFFE00000
FFFFF00000
FFFFF00000
FFC7F80000
FF83FC0000
FF03FC0000
FE01FE0000
FE00FF0000
FE007F8000
FE007F8000
FE003FC000
FE001FE000
FE001FF000
FE000FF000
FE0007F800
FE0003FC00
FE0003FE00
FE0001FE00
FE0000FF00
FE00007F80
FE00007F80
ENDCHAR
STARTCHAR 0139
ENCODING 313
SWIDTH 514 0
DWIDTH 40 0
BBX 32 73 7 0
BITMAP
01FE0000
03FE0000
03FC0000
07F80000
0FF00000
0FE00000
1FC00000
3F800000
3F000000
7E000000
FC000000
F8000000
00000000
00000000
00000000
00000000
00000000
7F000000
7F000000
7F000000
7F000000
7F000000
7F000000
7F000000
7F000000
7F000000
7F000000
7F000000
7F000000
7F000000
7F000000
7F000000
7F000000
7F000000
7F000000
7F000000
7F000000
7F000000
7F000000
7F000000
7F000000
7F000000
7F000000
7F000000
7F000000
7F000000
7F000000
7F000000
7F000000
7F000000
7F000000
7F000000
7F000000
7F000000
7F000000
7F000000
7F000000
7F000000
7F000000
7F000000
7F000000
7F000000
7F000000
7F000000
7F000000
7F000000
7F000000
7FFFFFFF
7FFFFFFF
7FFFFFFF
7FFFFFFF
7FFFFFFF
7FFFFFFF
ENDCHAR
STARTCHAR 013A
ENCODING 314
SWIDTH 257 0
DWIDTH 20 0
BBX 16 77 6 0
BITMAP
01FF
03FE
03FC
07F8
07F8
0FF0
1FE0
1FC0
3F80
7F00
7E00
FC00
0000
0000
0000
0000
0000
0000
7E00
7E00
7E00
7E00
7E00
7E00
7E00
7E00
7E00
7E00
7E00
7E00
7E00
7E00
7E00
7E00
7E00
7E00
7E00
7E00
7E00
7E00
7E00
7E00
7E00
7E00
7E00
7E00
7E00
7E00
7E00
7E00
7E00
7E00
7E00
7E00
7E00
7E00
7E00
7E00
7E00
7E00
7E00
7E00
7E00
7E00
7E00
7E00
7E00
7E00
7E00
7E00
7E00
7E00
7E00
7E00
7E00
7E00
7E00
ENDCHAR
STARTCHAR 013B
ENCODING 315
SWIDTH 514 0
DWIDTH 40 0
BBX 31 73 8 -17
BITMAP
FE000000
FE000000
FE000000
FE000000
FE000000
FE000000
FE000000
FE000000
FE000000
FE000000
FE000000
FE000000
FE000000
FE000000
FE000000
FE000000
FE000000
FE000000
FE000000
FE000000
FE000000
FE000000
FE000000
FE000000
FE000000
FE000000
FE000000
FE000000
FE000000
FE000000
FE000000
FE000000
FE000000
FE000000
FE000000
FE000000
FE000000
FE000000
FE000000
FE000000
FE000000
FE000000
FE000000
FE000000
FE000000
FE000000
FE000000
FE000000
FE000000
FE000000
FFFFFFFE
FFFFFFFE
FFFFFFFE
FFFFFFFE
FFFFFFFE
FFFFFFFE
00000000
00000000
00000000
00000000
00000000
0007F000
0007F000
0007F000
0007E000
0007E000
000FC000
000FC000
000F8000
001F8000
001F0000
001E0000
003E0000
ENDCHAR
STARTCHAR 013C
ENCODING 316
SWIDTH 257 0
DWIDTH 20 0
BBX 10 76 5 -17
BITMAP
3F00
3F00
3F00
3F00
3F00
3F00
3F00
3F00
3F00
3F00
3F00
3F00
3F00
3F00
3F00
3F00
3F00
3F00
3F00
3F00
3F00
3F00
3F00
3F00
3F00
3F00
3F00
3F00
3F00
3F00
3F00
3F00
3F00
3F00
3F00
3F00
3F00
3F00
3F00
3F00
3F00
3F00
3F00
3F00
3F00
3F00
3F00
3F00
3F00
3F00
3F00
3F00
3F00
3F00
3F00
3F00
3F00
3F00
3F00
0000
0000
0000
0000
0000
1FC0
1FC0
1F80
1F80
3F00
3F00
3E00
7E00
7C00
7C00
F800
F000
ENDCHAR
STARTCHAR 013D
ENCODING 317
SWIDTH 514 0
DWIDTH 40 0
BBX 31 56 8 0
BITMAP
FE0000FE
FE0000FE
FE0000FC
FE0000FC
FE0001FC
FE0001F8
FE0001F8
FE0001F0
FE0003F0
FE0003E0
FE0003E0
FE0003C0
FE0007C0
FE000000
FE000000
FE000000
FE000000
FE000000
FE000000
FE000000
FE000000
FE000000
FE000000
FE000000
FE000000
FE000000
FE000000
FE000000
FE000000
FE000000
FE000000
FE000000
FE000000
FE000000
FE000000
FE000000
FE000000
FE000000
FE000000
FE000000
FE000000
FE000000
FE000000
FE000000
FE000000
FE000000
FE000000
FE000000
FE000000
FE000000
FFFFFFFE
FFFFFFFE
FFFFFFFE
FFFFFFFE
FFFFFFFE
FFFFFFFE
ENDCHAR
STARTCHAR 013E
ENCODING 318
SWIDTH 257 0
DWIDTH 20 0
BBX 19 59 7 0
BITMAP
FC0FE0
FC0FE0
FC0FE0
FC0FC0
FC0FC0
FC1F80
FC1F80
FC1F00
FC1F00
FC3E00
FC3E00
FC3C00
FC0000
FC0000
FC0000
FC0000
FC0000
FC0000
FC0000
FC0000
FC0000
FC0000
FC0000
FC0000
FC0000
FC0000
FC0000
FC0000
FC0000
FC0000
FC0000
FC0000
FC0000
FC0000
FC0000
FC0000
FC0000
FC0000
FC0000
FC0000
FC0000
FC0000
FC0000
FC0000
FC0000
FC0000
FC0000
FC0000
FC0000
FC0000
FC0000
FC0000
FC0000
FC0000
FC0000
FC0000
FC0000
FC0000
FC0000
ENDCHAR
STARTCHAR 013F
ENCODING 319
SWIDTH 514 0
DWIDTH 40 0
BBX 31 56 8 0
BITMAP
FE000000
FE000000
FE000000
FE000000
FE000000
FE000000
FE000000
FE000000
FE000000
FE000000
FE000000
FE000000
FE000000
FE000000
FE000000
FE000000
FE000000
FE000000
FE000000
FE000000
FE000000
FE000000
FE000000
FE000000
FE001F00
FE003F80
FE003FC0
FE003FC0
FE003FC0
FE003FC0
FE003F80
FE001F80
FE000400
FE000000
FE000000
FE000000
FE000000
FE000000
FE000000
FE000000
FE000000
FE000000
FE000000
FE000000
FE000000
FE000000
FE000000
FE000000
FE000000
FE000000
FFFFFFFE
FFFFFFFE
FFFFFFFE
FFFFFFFE
FFFFFFFE
FFFFFFFE
ENDCHAR
STARTCHAR 0140
ENCODING 320
SWIDTH 257 0
DWIDTH 20 0
BBX 17 59 7 0
BITMAP
FC0000
FC0000
FC0000
FC0000
FC0000
FC0000
FC0000
FC0000
FC0000
FC0000
FC0000
FC0000
FC0000
FC0000
FC0000
FC0000
FC0000
FC0000
FC0000
FC0000
FC0000
FC0000
FC0000
FC0000
FC0000
FC0E00
FC3F00
FC3F80
FC7F80
FC7F80
FC7F80
FC3F80
FC3F80
FC0E00
FC0000
FC0000
FC0000
FC0000
FC0000
FC0000
FC0000
FC0000
FC0000
FC0000
FC0000
FC0000
FC0000
FC0000
FC0000
FC0000
FC0000
FC0000
FC0000
FC0000
FC0000
FC0000
FC0000
FC0000
FC0000
ENDCHAR
STARTCHAR 0141
ENCODING 321
SWIDTH 514 0
DWIDTH 40 0
BBX 38 56 1 0
BITMAP
01FC000000
01FC000000
01FC000000
01FC000000
01FC000000
01FC000000
01FC000000
01FC000000
01FC000000
01FC000000
01FC000000
01FC000000
01FC000000
01FC000000
01FC000000
01FC000000
01FC000000
01FC000000
01FC000000
01FC000000
01FC018000
01FC038000
01FC0FC000
01FC3FC000
01FC7FE000
01FDFFC000
01FFFF0000
01FFFE0000
01FFF80000
01FFE00000
03FF800000
07FF000000
1FFC000000
7FFC000000
FFFC000000
7FFC000000
7FFC000000
39FC000000
31FC000000
01FC000000
01FC000000
01FC000000
01FC000000
01FC000000
01FC000000
01FC000000
01FC000000
01FC000000
01FC000000
01FC000000
01FFFFFFFC
01FFFFFFFC
01FFFFFFFC
01FFFFFFFC
01FFFFFFFC
01FFFFFFFC
ENDCHAR
STARTCHAR 0142
ENCODING 322
SWIDTH 257 0
DWIDTH 20 0
BBX 20 59 0 0
BITMAP
03F800
03F800
03F800
03F800
03F800
03F800
03F800
03F800
03F800
03F800
03F800
03F800
03F800
03F800
03F800
03F800
03F800
03F800
03F800
03F800
03F800
03F800
03F800
03F8E0
03F9E0
03FBF0
03FFF0
03FFF0
03FFE0
03FF80
03FF00
0FFC00
1FF800
7FF800
FFF800
FFF800
FFF800
7BF800
23F800
03F800
03F800
03F800
03F800
03F800
03F800
03F800
03F800
03F800
03F800
03F800
03F800
03F800
03F800
03F800
03F800
03F800
03F800
03F800
03F800
ENDCHAR
STARTCHAR 0143
ENCODING 323
SWIDTH 758 0
DWIDTH 59 0
BBX 44 73 8 0
BITMAP
000000FF8000
000000FF0000
000001FE0000
000001FE0000
000003FC0000
000007F80000
000007F00000
00000FE00000
00001FC00000
00001F800000
00003F000000
00007E000000
000000000000
000000000000
000000000000
000000000000
000000000000
FF00000007F0
FF00000007F0
FF80000007F0
FFC0000007F0
FFC0000007F0
FFE0000007F0
FFF0000007F0
FFF0000007F0
FFF8000007F0
FFF8000007F0
FBFC000007F0
F9FE000007F0
FDFE000007F0
FCFF000007F0
FC7F800007F0
FC7F800007F0
FC3FC00007F0
FC1FE00007F0
FC1FE00007F0
FC0FF00007F0
FC07F80007F0
FC07F80007F0
FC03FC0007F0
FC03FC0007F0
FC01FE0007F0
FC00FF0007F0
FC00FF0007F0
FC007F8007F0
FC003FC007F0
FC003FC007F0
FC001FE007F0
FC000FF007F0
FC000FF007F0
FC0007F807F0
FC0003FC07F0
FC0003FC07F0
FC0001FE07F0
FC0001FF07F0
FC0000FF07F0
FC00007F87F0
FC00007F87F0
FC00003FC7F0
FC00001FE7F0
FC00001FE7F0
FC00000FF7F0
FC000007FBF0
FC000007FFF0
FC000003FFF0
FC000001FFF0
FC000001FFF0
FC000000FFF0
FC000000FFF0
FC0000007FF0
FC0000003FF0
FC0000003FF0
FC0000001FF0
ENDCHAR
STARTCHAR 0144
ENCODING 324
SWIDTH 617 0
DWIDTH 48 0
BBX 35 60 7 0
BITMAP
00000FF800
00000FF000
00001FF000
00001FE000
00003FC000
00007F8000
00007F0000
0000FE0000
0001FC0000
0001F80000
0003F00000
0007E00000
0007C00000
0000000000
0000000000
0000000000
0000000000
0000000000
F803FFC000
F81FFFF800
FC3FFFFC00
FC7FFFFE00
FCFFFFFF00
FDFF07FF80
FFF000FF80
FFE0007FC0
FFC0003FC0
FF80001FC0
FF00001FC0
FF00000FE0
FE00000FE0
FE00000FE0
FE00000FE0
FE00000FE0
FE00000FE0
FE00000FE0
FE00000FE0
FC00000FE0
FC00000FE0
FC00000FE0
FC00000FE0
FC00000FE0
FC00000FE0
FC00000FE0
FC00000FE0
FC00000FE0
FC00000FE0
FC00000FE0
FC00000FE0
FC00000FE0
FC00000FE0
FC00000FE0
FC00000FE0
FC00000FE0
FC00000FE0
FC00000FE0
FC00000FE0
FC00000FE0
FC00000FE0
FC00000FE0
ENDCHAR
STARTCHAR 0145
ENCODING 325
SWIDTH 758 0
DWIDTH 59 0
BBX 44 73 8 -17
BITMAP
FF00000007F0
FF00000007F0
FF80000007F0
FFC0000007F0
FFC0000007F0
FFE0000007F0
FFF0000007F0
FFF0000007F0
FFF8000007F0
FFF8000007F0
FBFC000007F0
F9FE000007F0
FDFE000007F0
FCFF000007F0
FC7F800007F0
FC7F800007F0
FC3FC00007F0
FC1FE00007F0
FC1FE00007F0
FC0FF00007F0
FC07F80007F0
FC07F80007F0
FC03FC0007F0
FC03FC0007F0
FC01FE0007F0
FC00FF0007F0
FC00FF0007F0
FC007F8007F0
FC003FC007F0
FC003FC007F0
FC001FE007F0
FC000FF007F0
FC000FF007F0
FC0007F807F0
FC0003FC07F0
FC0003FC07F0
FC0001FE07F0
FC0001FF07F0
FC0000FF07F0
FC00007F87F0
FC00007F87F0
FC00003FC7F0
FC00001FE7F0
FC00001FE7F0
FC00000FF7F0
FC000007FBF0
FC000007FFF0
FC000003FFF0
FC000001FFF0
FC000001FFF0
FC000000FFF0
FC000000FFF0
FC0000007FF0
FC0000003FF0
FC0000003FF0
FC0000001FF0
000000000000
000000000000
000000000000
000000000000
000000000000
00000FE00000
00000FC00000
00001FC00000
00001F800000
00001F800000
00001F800000
00003F000000
00003E000000
00003E000000
00007C000000
00007C000000
000078000000
ENDCHAR
STARTCHAR 0146
ENCODING 326
SWIDTH 617 0
DWIDTH 48 0
BBX 35 59 7 -17
BITMAP
F803FFC000
F81FFFF800
FC3FFFFC00
FC7FFFFE00
FCFFFFFF00
FDFF07FF80
FFF000FF80
FFE0007FC0
FFC0003FC0
FF80001FC0
FF00001FC0
FF00000FE0
FE00000FE0
FE00000FE0
FE00000FE0
FE00000FE0
FE00000FE0
FE00000FE0
FE00000FE0
FC00000FE0
FC00000FE0
FC00000FE0
FC00000FE0
FC00000FE0
FC00000FE0
FC00000FE0
FC00000FE0
FC00000FE0
FC00000FE0
FC00000FE0
FC00000FE0
FC00000FE0
FC00000FE0
FC00000FE0
FC00000FE0
FC00000FE0
FC00000FE0
FC00000FE0
FC00000FE0
FC00000FE0
FC00000FE0
FC00000FE0
0000000000
0000000000
0000000000
0000000000
0000000000
0001FC0000
0001FC0000
0001F80000
0001F80000
0003F00000
0003F00000
0003E00000
0007E00000
0007C00000
0007C00000
000F800000
000F000000
ENDCHAR
STARTCHAR 0147
ENCODING 327
SWIDTH 758 0
DWIDTH 59 0
BBX 44 73 8 0
BITMAP
00FC0007E000
007F001FC000
003F803F8000
001FC07F0000
000FE0FE0000
0007F1FC0000
0003FBF80000
0001FFF00000
0000FFE00000
0000FFE00000
00007FC00000
00003F800000
000000000000
000000000000
000000000000
000000000000
000000000000
FF00000007F0
FF00000007F0
FF80000007F0
FFC0000007F0
FFC0000007F0
FFE0000007F0
FFF0000007F0
FFF0000007F0
FFF8000007F0
FFF8000007F0
FBFC000007F0
F9FE000007F0
FDFE000007F0
FCFF000007F0
FC7F800007F0
FC7F800007F0
FC3FC00007F0
FC1FE00007F0
FC1FE00007F0
FC0FF00007F0
FC07F80007F0
FC07F80007F0
FC03FC0007F0
FC03FC0007F0
FC01FE0007F0
FC00FF0007F0
FC00FF0007F0
FC007F8007F0
FC003FC007F0
FC003FC007F0
FC001FE007F0
FC000FF007F0
FC000FF007F0
FC0007F807F0
FC0003FC07F0
FC0003FC07F0
FC0001FE07F0
FC0001FF07F0
FC0000FF07F0
FC00007F87F0
FC00007F87F0
FC00003FC7F0
FC00001FE7F0
FC00001FE7F0
FC00000FF7F0
FC000007FBF0
FC000007FFF0
FC000003FFF0
FC000001FFF0
FC000001FFF0
FC000000FFF0
FC000000FFF0
FC0000007FF0
FC0000003FF0
FC0000003FF0
FC0000001FF0
ENDCHAR
STARTCHAR 0148
ENCODING 328
SWIDTH 617 0
DWIDTH 48 0
BBX 35 60 7 0
BITMAP
0F80007C00
0FC000FC00
07E003F800
03F807F000
01FC0FE000
00FE1FC000
007F3F8000
007FFF0000
003FFF0000
001FFE0000
000FFC0000
0007F80000
0007F80000
0000000000
0000000000
0000000000
0000000000
0000000000
F803FFC000
F81FFFF800
FC3FFFFC00
FC7FFFFE00
FCFFFFFF00
FDFF07FF80
FFF000FF80
FFE0007FC0
FFC0003FC0
FF80001FC0
FF00001FC0
FF00000FE0
FE00000FE0
FE00000FE0
FE00000FE0
FE00000FE0
FE00000FE0
FE00000FE0
FE00000FE0
FC00000FE0
FC00000FE0
FC00000FE0
FC00000FE0
FC00000FE0
FC00000FE0
FC00000FE0
FC00000FE0
FC00000FE0
FC00000FE0
FC00000FE0
FC00000FE0
FC00000FE0
FC00000FE0
FC00000FE0
FC00000FE0
FC00000FE0
FC00000FE0
FC00000FE0
FC00000FE0
FC00000FE0
FC00000FE0
FC00000FE0
ENDCHAR
STARTCHAR 0149
ENCODING 329
SWIDTH 681 0
DWIDTH 53 0
BBX 47 56 0 0
BITMAP
0FE000000000
0FF000000000
0FF000000000
1FE000000000
1FE000000000
1FE000000000
1FC000000000
1FC000000000
1FC000000000
3F8000000000
3F8000000000
3F0000000000
3F0000000000
3F0000000000
7E0FC03FFE00
7E0FC0FFFF80
7C0FC3FFFFE0
7C0FC7FFFFF0
FC0FCFFFFFF8
F80FDFF07FF8
000FFF800FFC
000FFE0003FC
000FFC0001FC
000FF80001FE
000FF80000FE
000FF00000FE
000FF00000FE
000FF00000FE
000FE00000FE
000FE00000FE
000FE00000FE
000FE00000FE
000FE00000FE
000FE00000FE
000FE00000FE
000FE00000FE
000FE00000FE
000FE00000FE
000FE00000FE
000FE00000FE
000FE00000FE
000FE00000FE
000FE00000FE
000FE00000FE
000FE00000FE
000FE00000FE
000FE00000FE
000FE00000FE
000FE00000FE
000FE00000FE
000FE00000FE
000FE00000FE
000FE00000FE
000FE00000FE
000FE00000FE
000FE00000FE
ENDCHAR
STARTCHAR 014A
ENCODING 330
SWIDTH 758 0
DWIDTH 59 0
BBX 44 71 8 -15
BITMAP
FF00000007F0
FF00000007F0
FF80000007F0
FFC0000007F0
FFC0000007F0
FFE0000007F0
FFF0000007F0
FFF0000007F0
FFF8000007F0
FFFC000007F0
FBFC000007F0
F9FE000007F0
FDFF000007F0
FCFF000007F0
FC7F800007F0
FC7FC00007F0
FC3FC00007F0
FC1FE00007F0
FC0FF00007F0
FC0FF00007F0
FC07F80007F0
FC03FC0007F0
FC03FC0007F0
FC01FE0007F0
FC00FF0007F0
FC00FF0007F0
FC007F8007F0
FC003FC007F0
FC003FC007F0
FC001FE007F0
FC000FF007F0
FC000FF007F0
FC0007F807F0
FC0003FC07F0
FC0003FC07F0
FC0001FE07F0
FC0000FF07F0
FC0000FF07F0
FC00007F87F0
FC00003FC7F0
FC00003FC7F0
FC00001FE7F0
FC00000FF7F0
FC000007F7F0
FC000007FBF0
FC000003FFF0
FC000001FFF0
FC000001FFF0
FC000000FFF0
FC0000007FF0
FC0000007FF0
FC0000003FF0
FC0000001FF0
FC0000001FF0
FC0000000FF0
FC00000007F0
0000000007F0
0000000007F0
0000000007E0
0000000007E0
000000000FE0
000000000FE0
000000001FC0
000000003FC0
000001E1FFC0
000001FFFF80
000001FFFF00
000001FFFE00
000001FFFC00
000001FFF000
0000007F0000
ENDCHAR
STARTCHAR 014B
ENCODING 331
SWIDTH 617 0
DWIDTH 48 0
BBX 35 61 7 -19
BITMAP
F803FFC000
F81FFFF800
FC3FFFFC00
FC7FFFFE00
FCFFFFFF00
FDFF07FF80
FFF000FF80
FFE0007FC0
FFC0003FC0
FF80001FC0
FF00001FE0
FF00000FE0
FE00000FE0
FE00000FE0
FE00000FE0
FE00000FE0
FE00000FE0
FE00000FE0
FE00000FE0
FC00000FE0
FC00000FE0
FC00000FE0
FC00000FE0
FC00000FE0
FC00000FE0
FC00000FE0
FC00000FE0
FC00000FE0
FC00000FE0
FC00000FE0
FC00000FE0
FC00000FE0
FC00000FE0
FC00000FE0
FC00000FE0
FC00000FE0
FC00000FE0
FC00000FE0
FC00000FE0
FC00000FE0
FC00000FE0
FC00000FE0
0000000FE0
0000000FE0
0000000FE0
0000000FE0
0000000FE0
0000000FE0
0000000FE0
0000000FE0
0000000FE0
0000000FE0
0000001FC0
0000001FC0
0000207FC0
00003FFF80
00003FFF80
00003FFF00
00003FFE00
00003FF800
000003C000
ENDCHAR
STARTCHAR 014C
ENCODING 332
SWIDTH 771 0
DWIDTH 60 0
BBX 51 68 5 -1
BITMAP
0003FFFFF80000
0003FFFFF80000
0003FFFFF80000
0003FFFFF80000
0003FFFFF80000
0003FFFFF80000
00000000000000
00000000000000
00000000000000
00000000000000
00000000000000
00003FFF800000
0003FFFFF00000
000FFFFFFC0000
001FFFFFFF0000
007FFFFFFF8000
00FFFFFFFFE000
01FFE001FFF000
03FF80003FF800
07FE00000FF800
07FC000007FC00
0FF8000003FE00
1FF0000001FE00
1FE0000000FF00
3FC0000000FF00
3FC00000007F80
3F800000007F80
7F800000003F80
7F800000003FC0
7F000000003FC0
7F000000001FC0
FF000000001FC0
FF000000001FE0
FE000000001FE0
FE000000001FE0
FE000000001FE0
FE000000000FE0
FE000000000FE0
FE000000000FE0
FE000000000FE0
FE000000000FE0
FE000000000FE0
FE000000001FE0
FE000000001FE0
FE000000001FE0
FF000000001FE0
FF000000001FC0
FF000000001FC0
7F000000001FC0
7F800000003FC0
7F800000003F80
3F800000003F80
3FC00000007F80
3FC00000007F00
1FE0000000FF00
1FE0000001FE00
0FF0000001FE00
0FF8000003FC00
07FC000007FC00
03FF00001FF800
01FFC0007FF000
00FFFE0FFFE000
007FFFFFFFC000
003FFFFFFF8000
000FFFFFFE0000
0007FFFFF80000
0000FFFFC00000
000007FC000000
ENDCHAR
STARTCHAR 014D
ENCODING 333
SWIDTH 604 0
DWIDTH 47 0
BBX 39 54 4 -1
BITMAP
00FFFFFE00
00FFFFFE00
00FFFFFE00
00FFFFFE00
00FFFFFE00
00FFFFFE00
0000000000
0000000000
0000000000
0000000000
0000000000
0007FFC000
003FFFF800
007FFFFC00
01FFFFFF00
03FFFFFF80
07FF83FFC0
0FFC007FE0
0FF0001FE0
1FE0000FF0
1FC00007F0
3FC00007F8
3F800003F8
7F800003FC
7F000001FC
7F000001FC
7F000001FC
7F000001FE
FF000000FE
FE000000FE
FE000000FE
FE000000FE
FE000000FE
FE000000FE
FE000000FE
FF000000FE
7F000001FE
7F000001FC
7F000001FC
7F000001FC
7F800003FC
3F800003F8
3FC00003F8
1FC00007F8
1FE0000FF0
0FF0001FF0
0FF8003FE0
07FE00FFC0
03FFFFFF80
01FFFFFF00
00FFFFFE00
003FFFF800
000FFFE000
0000FE0000
ENDCHAR
STARTCHAR 014E
ENCODING 334
SWIDTH 771 0
DWIDTH 60 0
BBX 51 72 5 -1
BITMAP
0007C000780000
0003C000780000
0003C000F80000
0003F001F80000
0001FFFFF00000
0001FFFFE00000
0000FFFFE00000
00007FFF800000
00003FFF000000
000007F8000000
00000000000000
00000000000000
00000000000000
00000000000000
00000000000000
00003FFF800000
0003FFFFF00000
000FFFFFFC0000
001FFFFFFF0000
007FFFFFFF8000
00FFFFFFFFE000
01FFE001FFF000
03FF80003FF800
07FE00000FF800
07FC000007FC00
0FF8000003FE00
1FF0000001FE00
1FE0000000FF00
3FC0000000FF00
3FC00000007F80
3F800000007F80
7F800000003F80
7F800000003FC0
7F000000003FC0
7F000000001FC0
FF000000001FC0
FF000000001FE0
FE000000001FE0
FE000000001FE0
FE000000001FE0
FE000000000FE0
FE000000000FE0
FE000000000FE0
FE000000000FE0
FE000000000FE0
FE000000000FE0
FE000000001FE0
FE000000001FE0
FE000000001FE0
FF000000001FE0
FF000000001FC0
FF000000001FC0
7F000000001FC0
7F800000003FC0
7F800000003F80
3F800000003F80
3FC00000007F80
3FC00000007F00
1FE0000000FF00
1FE0000001FE00
0FF0000001FE00
0FF8000003FC00
07FC000007FC00
03FF00001FF800
01FFC0007FF000
00FFFE0FFFE000
007FFFFFFFC000
003FFFFFFF8000
000FFFFFFE0000
0007FFFFF80000
0000FFFFC00000
000007FC000000
ENDCHAR
STARTCHAR 014F
ENCODING 335
SWIDTH 604 0
DWIDTH 47 0
BBX 39 59 4 -1
BITMAP
01F0001F00
00F0001E00
00F0001E00
00F8003E00
00FC00FE00
007FFFFC00
007FFFF800
003FFFF800
001FFFE000
0007FFC000
0000FE0000
0000000000
0000000000
0000000000
0000000000
0000000000
0007FFC000
003FFFF800
007FFFFC00
01FFFFFF00
03FFFFFF80
07FF83FFC0
0FFC007FE0
0FF0001FE0
1FE0000FF0
1FC00007F0
3FC00007F8
3F800003F8
7F800003FC
7F000001FC
7F000001FC
7F000001FC
7F000001FE
FF000000FE
FE000000FE
FE000000FE
FE000000FE
FE000000FE
FE000000FE
FE000000FE
FF000000FE
7F000001FE
7F000001FC
7F000001FC
7F000001FC
7F800003FC
3F800003F8
3FC00003F8
1FC00007F8
1FE0000FF0
0FF0001FF0
0FF8003FE0
07FE00FFC0
03FFFFFF80
01FFFFFF00
00FFFFFE00
003FFFF800
000FFFE000
0000FE0000
ENDCHAR
STARTCHAR 0150
ENCODING 336
SWIDTH 771 0
DWIDTH 60 0
BBX 51 74 5 -1
BITMAP
00003FC1FE0000
00007F81FE0000
00007F03FC0000
0000FE03F80000
0000FE07F00000
0001FC07E00000
0003F80FE00000
0003F01FC00000
0007E01F800000
000FC03F000000
000F803E000000
001F007C000000
00000000000000
00000000000000
00000000000000
00000000000000
00000000000000
00003FFF800000
0003FFFFF00000
000FFFFFFC0000
001FFFFFFF0000
007FFFFFFF8000
00FFFFFFFFE000
01FFE001FFF000
03FF80003FF800
07FE00000FF800
07FC000007FC00
0FF8000003FE00
1FF0000001FE00
1FE0000000FF00
3FC0000000FF00
3FC00000007F80
3F800000007F80
7F800000003F80
7F800000003FC0
7F000000003FC0
7F000000001FC0
FF000000001FC0
FF000000001FE0
FE000000001FE0
FE000000001FE0
FE000000001FE0
FE000000000FE0
FE000000000FE0
FE000000000FE0
FE000000000FE0
FE000000000FE0
FE000000000FE0
FE000000001FE0
FE000000001FE0
FE000000001FE0
FF000000001FE0
FF000000001FC0
FF000000001FC0
7F000000001FC0
7F800000003FC0
7F800000003F80
3F800000003F80
3FC00000007F80
3FC00000007F00
1FE0000000FF00
1FE0000001FE00
0FF0000001FE00
0FF8000003FC00
07FC000007FC00
03FF00001FF800
01FFC0007FF000
00FFFE0FFFE000
007FFFFFFFC000
003FFFFFFF8000
000FFFFFFE0000
0007FFFFF80000
0000FFFFC00000
000007FC000000
ENDCHAR
STARTCHAR 0151
ENCODING 337
SWIDTH 604 0
DWIDTH 47 0
BBX 39 61 4 -1
BITMAP
000FF03F80
000FF07F80
001FE07F80
001FC0FF00
003F80FE00
003F81FC00
007F01FC00
00FE03F800
00FC03F000
01F807E000
01F00FC000
03E00F8000
03C01F0000
0000000000
0000000000
0000000000
0000000000
0000000000
0007FFC000
003FFFF800
007FFFFC00
01FFFFFF00
03FFFFFF80
07FF83FFC0
0FFC007FE0
0FF0001FE0
1FE0000FF0
1FC00007F0
3FC00007F8
3F800003F8
7F800003FC
7F000001FC
7F000001FC
7F000001FC
7F000001FE
FF000000FE
FE000000FE
FE000000FE
FE000000FE
FE000000FE
FE000000FE
FE000000FE
FF000000FE
7F000001FE
7F000001FC
7F000001FC
7F000001FC
7F800003FC
3F800003F8
3FC00003F8
1FC00007F8
1FE0000FF0
0FF0001FF0
0FF8003FE0
07FE00FFC0
03FFFFFF80
01FFFFFF00
00FFFFFE00
003FFFF800
000FFFE000
0000FE0000
ENDCHAR
STARTCHAR 0152
ENCODING 338
SWIDTH 925 0
DWIDTH 72 0
BBX 63 57 5 -1
BITMAP
00007FFFFFFFFFFE
0003FFFFFFFFFFFE
000FFFFFFFFFFFFE
003FFFFFFFFFFFFE
007FFFFFFFFFFFFE
00FFFFFFFFFFFFFE
01FFF000FFFFFFFE
03FF80007F000000
07FE00007F000000
0FFC00007F000000
0FF800007F000000
1FF000007F000000
1FE000007F000000
3FC000007F000000
3FC000007F000000
3F8000007F000000
7F8000007F000000
7F8000007F000000
7F0000007F000000
7F0000007F000000
FF0000007F000000
FF0000007F000000
FE0000007F000000
FE0000007F000000
FE0000007FFFFFF8
FE0000007FFFFFF8
FE0000007FFFFFF8
FE0000007FFFFFF8
FE0000007FFFFFF8
FE0000007FFFFFF8
FE0000007F000000
FE0000007F000000
FE0000007F000000
FE0000007F000000
FF0000007F000000
FF0000007F000000
FF0000007F000000
7F0000007F000000
7F0000007F000000
7F8000007F000000
3F8000007F000000
3FC000007F000000
3FC000007F000000
1FE000007F000000
1FE000007F000000
0FF000007F000000
0FF800007F000000
07FC00007F000000
03FF00007F000000
01FFC0007F000000
00FFFE0FFFFFFFFE
007FFFFFFFFFFFFE
003FFFFFFFFFFFFE
000FFFFFFFFFFFFE
0007FFFFFFFFFFFE
0000FFFFFFFFFFFE
000007FC00000000
ENDCHAR
STARTCHAR 0153
ENCODING 339
SWIDTH 938 0
DWIDTH 73 0
BBX 66 43 4 -1
BITMAP
0007FF80001FFE0000
003FFFF0007FFF8000
00FFFFF801FFFFE000
01FFFFFE03FFFFF000
03FFFFFF07FFFFF800
07FF07FF0FFC1FFC00
0FF8007F9FE003FC00
0FF0003FDFC001FE00
1FE0001FFF8000FF00
3FC0000FFF00007F00
3F800007FF00007F00
3F800007FE00007F80
7F800007FE00003F80
7F000003FE00003F80
7F000003FC00003F80
7F000003FC00003F80
FF000003FC00003F80
FF000001FFFFFFFFC0
FE000001FFFFFFFFC0
FE000001FFFFFFFFC0
FE000001FFFFFFFFC0
FE000001FFFFFFFFC0
FE000001FC00000000
FE000001FC00000000
FF000001FC00000000
FF000003FC00000000
7F000003FC00000000
7F000003FC00000000
7F000003FE00000000
7F000003FE00000000
3F800007FE00000000
3F800007FF00000000
3FC0000FFF00000000
1FE0000FFF80000000
0FE0001FDFC0000100
0FF8007FDFF0000F00
07FE01FF8FFE00FF00
03FFFFFF07FFFFFF00
01FFFFFE03FFFFFF00
00FFFFFC01FFFFFF00
003FFFF0007FFFFE00
000FFFC0001FFFF000
0000FC000001FE0000
ENDCHAR
STARTCHAR 0154
ENCODING 340
SWIDTH 617 0
DWIDTH 48 0
BBX 39 73 8 0
BITMAP
00001FF000
00003FE000
00003FC000
00007F8000
00007F0000
0000FE0000
0001FE0000
0001FC0000
0003F80000
0007F00000
0007C00000
000F800000
0000000000
0000000000
0000000000
0000000000
0000000000
FFFF800000
FFFFFF0000
FFFFFFE000
FFFFFFF800
FFFFFFFC00
FFFFFFFE00
FFFFFFFF00
FE0003FF80
FE0000FF80
FE00007FC0
FE00003FC0
FE00001FE0
FE00001FE0
FE00000FE0
FE00000FE0
FE00000FE0
FE00000FE0
FE00000FE0
FE00000FE0
FE00000FE0
FE00001FE0
FE00001FC0
FE00003FC0
FE00003FC0
FE00007F80
FE0001FF00
FE0007FE00
FFFFFFFC00
FFFFFFF800
FFFFFFF000
FFFFFFC000
FFFFFF0000
FFFFFF8000
FE003F8000
FE003FC000
FE001FE000
FE000FE000
FE000FF000
FE0007F000
FE0007F800
FE0003FC00
FE0001FC00
FE0001FE00
FE0000FF00
FE0000FF00
FE00007F80
FE00007F80
FE00003FC0
FE00001FE0
FE00001FE0
FE00000FF0
FE00000FF0
FE000007F8
FE000003FC
FE000003FC
FE000001FE
ENDCHAR
STARTCHAR 0155
ENCODING 341
SWIDTH 411 0
DWIDTH 32 0
BBX 24 60 7 0
BITMAP
0001FE
0003FE
0003FC
0007F8
0007F8
000FF0
001FE0
001FC0
003F80
007F00
007E00
00FC00
00F800
000000
000000
000000
000000
000000
F803FF
F80FFF
F81FFF
FC3FFE
FC7FFE
FCFFFE
FDFE00
FDF800
FFE000
FFC000
FF8000
FF8000
FF0000
FF0000
FE0000
FE0000
FE0000
FE0000
FC0000
FC0000
FC0000
FC0000
FC0000
FC0000
FC0000
FC0000
FC0000
FC0000
FC0000
FC0000
FC0000
FC0000
FC0000
FC0000
FC0000
FC0000
FC0000
FC0000
FC0000
FC0000
FC0000
FC0000
ENDCHAR
STARTCHAR 0156
ENCODING 342
SWIDTH 617 0
DWIDTH 48 0
BBX 39 73 8 -17
BITMAP
FFFF800000
FFFFFF0000
FFFFFFE000
FFFFFFF800
FFFFFFFC00
FFFFFFFE00
FFFFFFFF00
FE0003FF80
FE0000FF80
FE00007FC0
FE00003FC0
FE00001FE0
FE00001FE0
FE00000FE0
FE00000FE0
FE00000FE0
FE00000FE0
FE00000FE0
FE00000FE0
FE00000FE0
FE00001FE0
FE00001FC0
FE00003FC0
FE00003FC0
FE00007F80
FE0001FF00
FE0007FE00
FFFFFFFC00
FFFFFFF800
FFFFFFF000
FFFFFFC000
FFFFFF0000
FFFFFF8000
FE003F8000
FE003FC000
FE001FE000
FE000FE000
FE000FF000
FE0007F000
FE0007F800
FE0003FC00
FE0001FC00
FE0001FE00
FE0000FF00
FE0000FF00
FE00007F80
FE00007F80
FE00003FC0
FE00001FE0
FE00001FE0
FE00000FF0
FE00000FF0
FE000007F8
FE000003FC
FE000003FC
FE000001FE
0000000000
0000000000
0000000000
0000000000
0000000000
0000FC0000
0001FC0000
0001FC0000
0001F80000
0001F80000
0001F00000
0003F00000
0003E00000
0003E00000
0007C00000
0007C00000
0007800000
ENDCHAR
STARTCHAR 0157
ENCODING 343
SWIDTH 411 0
DWIDTH 32 0
BBX 26 59 5 -17
BITMAP
3E00FFC0
3E03FFC0
3E07FFC0
3F0FFF80
3F1FFF80
3F3FFF80
3F7F8000
3F7E0000
3FF80000
3FF00000
3FE00000
3FE00000
3FC00000
3FC00000
3F800000
3F800000
3F800000
3F800000
3F000000
3F000000
3F000000
3F000000
3F000000
3F000000
3F000000
3F000000
3F000000
3F000000
3F000000
3F000000
3F000000
3F000000
3F000000
3F000000
3F000000
3F000000
3F000000
3F000000
3F000000
3F000000
3F000000
3F000000
00000000
00000000
00000000
00000000
00000000
1FC00000
1F800000
1F800000
3F800000
3F000000
3F000000
7E000000
7E000000
7C000000
78000000
F8000000
F0000000
ENDCHAR
STARTCHAR 0158
ENCODING 344
SWIDTH 617 0
DWIDTH 48 0
BBX 39 73 8 0
BITMAP
1F8001F800
0FC003F000
07F007E000
03F81FC000
01FC3FC000
00FE7F8000
00FFFF0000
007FFE0000
003FFC0000
001FF80000
000FF80000
000FF00000
0000000000
0000000000
0000000000
0000000000
0000000000
FFFF800000
FFFFFF0000
FFFFFFE000
FFFFFFF800
FFFFFFFC00
FFFFFFFE00
FFFFFFFF00
FE0003FF80
FE0000FF80
FE00007FC0
FE00003FC0
FE00001FE0
FE00001FE0
FE00000FE0
FE00000FE0
FE00000FE0
FE00000FE0
FE00000FE0
FE00000FE0
FE00000FE0
FE00001FE0
FE00001FC0
FE00003FC0
FE00003FC0
FE00007F80
FE0001FF00
FE0007FE00
FFFFFFFC00
FFFFFFF800
FFFFFFF000
FFFFFFC000
FFFFFF0000
FFFFFF8000
FE003F8000
FE003FC000
FE001FE000
FE000FE000
FE000FF000
FE0007F000
FE0007F800
FE0003FC00
FE0001FC00
FE0001FE00
FE0000FF00
FE0000FF00
FE00007F80
FE00007F80
FE00003FC0
FE00001FE0
FE00001FE0
FE00000FF0
FE00000FF0
FE000007F8
FE000003FC
FE000003FC
FE000001FE
ENDCHAR
STARTCHAR 0159
ENCODING 345
SWIDTH 411 0
DWIDTH 32 0
BBX 26 60 6 0
BITMAP
F00007C0
FC001FC0
7E003F80
7F007F00
3F80FE00
1FC1FC00
0FE3F800
07F7F000
03FFE000
01FFC000
00FFC000
00FF8000
007F0000
00000000
00000000
00000000
00000000
00000000
7C01FF80
7C07FF80
7C0FFF80
7E1FFF00
7E3FFF00
7E7FFF00
7EFF0000
7EFC0000
7FF00000
7FE00000
7FC00000
7FC00000
7F800000
7F800000
7F000000
7F000000
7F000000
7F000000
7E000000
7E000000
7E000000
7E000000
7E000000
7E000000
7E000000
7E000000
7E000000
7E000000
7E000000
7E000000
7E000000
7E000000
7E000000
7E000000
7E000000
7E000000
7E000000
7E000000
7E000000
7E000000
7E000000
7E000000
ENDCHAR
ENDFONT
